M48
; DRILL file {KiCad 7.0.7} date Tue Oct 17 21:45:58 2023
; FORMAT={-:-/ absolute / metric / decimal}
; #@! TF.CreationDate,2023-10-17T21:45:58+02:00
; #@! TF.GenerationSoftware,Kicad,Pcbnew,7.0.7
; #@! TF.FileFunction,Plated,1,2,PTH
FMAT,2
METRIC
; #@! TA.AperFunction,Plated,PTH,ViaDrill
T1C0.400
; #@! TA.AperFunction,Plated,PTH,ComponentDrill
T2C0.800
; #@! TA.AperFunction,Plated,PTH,ComponentDrill
T3C1.000
%
G90
G05
T1
X124.9Y-86.2
X125.5Y-124.4
X128.2Y-95.2
X132.87Y-120.65
X134.92Y-109.23
X137.2Y-85.8
X141.32Y-95.23
X141.92Y-119.43
X144.4Y-86.5
X144.42Y-125.93
X148.12Y-130.23
X150.23Y-113.83
X151.32Y-93.53
X151.52Y-111.93
X152.0Y-109.7
X152.72Y-90.53
X153.02Y-96.43
X154.52Y-126.43
X154.7Y-107.7
X155.3Y-111.5
X155.32Y-114.13
X155.9Y-107.7
X156.1Y-112.3
X156.12Y-123.63
X156.3Y-99.325
X156.575Y-86.025
X156.575Y-96.13
X156.7Y-115.8
X156.74Y-113.068
X157.32Y-107.63
X157.52Y-121.83
X158.02Y-128.03
X159.72Y-112.03
X159.82Y-89.63
X160.22Y-122.23
X161.6Y-109.25
X162.0Y-108.2
X163.03Y-107.03
X163.22Y-119.53
X163.22Y-128.13
X163.5Y-113.1
X164.183Y-113.9
X164.82Y-112.33
X164.975Y-104.7
X165.22Y-129.23
X165.424Y-109.28
X165.424Y-110.665
X165.62Y-94.43
X166.32Y-122.13
X166.72Y-127.73
X167.015Y-110.235
X167.04Y-107.77
X167.12Y-115.73
X167.62Y-133.13
X168.3Y-86.6
X169.22Y-100.93
X169.35Y-106.05
X171.22Y-122.43
X174.003Y-89.853
X178.102Y-117.112
X178.11Y-101.0
X178.92Y-113.63
X180.708Y-100.042
X181.02Y-86.13
X181.22Y-103.93
X184.02Y-101.23
X186.32Y-110.43
X186.62Y-87.13
X186.62Y-108.43
X189.12Y-99.63
X189.4Y-124.8
X189.82Y-119.13
X190.22Y-120.73
X191.02Y-114.03
X192.02Y-119.93
X192.12Y-130.63
X193.32Y-103.93
X194.8Y-96.8
X194.82Y-101.03
X195.7Y-131.1
X196.02Y-119.13
X197.76Y-119.13
X198.32Y-115.23
X198.46Y-99.2
X200.22Y-110.43
X203.11Y-98.86
X203.52Y-113.23
X204.5Y-132.7
X204.6Y-88.9
T2
X138.62Y-89.74
X138.62Y-92.24
X146.75Y-89.71
X146.75Y-92.21
X148.9Y-100.1
X148.9Y-102.6
T3
X128.5Y-86.96
X128.5Y-89.5
X155.045Y-100.815
X155.045Y-103.355
X157.585Y-100.815
X157.585Y-103.355
X160.125Y-100.815
X160.125Y-103.355
X173.28Y-91.6
X173.28Y-94.14
X173.32Y-124.96
X173.32Y-127.5
X175.82Y-91.6
X175.82Y-94.14
X175.86Y-124.96
X175.86Y-127.5
X178.36Y-91.6
X178.36Y-94.14
X178.4Y-124.96
X178.4Y-127.5
X180.9Y-91.6
X180.9Y-94.14
X180.94Y-124.96
X180.94Y-127.5
X192.38Y-91.6
X192.38Y-94.14
X192.5Y-124.96
X192.5Y-127.5
X194.92Y-91.6
X194.92Y-94.14
X195.04Y-124.96
X195.04Y-127.5
X195.86Y-105.46
X195.86Y-108.0
X195.86Y-110.54
X195.86Y-113.08
X197.46Y-91.6
X197.46Y-94.14
X197.58Y-124.96
X197.58Y-127.5
X198.4Y-105.46
X198.4Y-108.0
X198.4Y-110.54
X198.4Y-113.08
X200.0Y-91.6
X200.0Y-94.14
X200.12Y-124.96
X200.12Y-127.5
T3
G00X125.5Y-97.5
M15
G01X125.5Y-99.5
M16
G05
G00X127.5Y-103.2
M15
G01X129.5Y-103.2
M16
G05
G00X131.5Y-97.5
M15
G01X131.5Y-99.5
M16
G05
T0
M30
