%TF.GenerationSoftware,KiCad,Pcbnew,7.0.7*%
%TF.CreationDate,2023-10-17T21:45:56+02:00*%
%TF.ProjectId,Motherboard_pico,4d6f7468-6572-4626-9f61-72645f706963,rev?*%
%TF.SameCoordinates,Original*%
%TF.FileFunction,Drillmap*%
%TF.FilePolarity,Positive*%
%FSLAX45Y45*%
G04 Gerber Fmt 4.5, Leading zero omitted, Abs format (unit mm)*
G04 Created by KiCad (PCBNEW 7.0.7) date 2023-10-17 21:45:56*
%MOMM*%
%LPD*%
G01*
G04 APERTURE LIST*
%ADD10C,0.200000*%
%ADD11C,0.089916*%
G04 APERTURE END LIST*
D10*
X12150000Y-8400000D02*
X20700000Y-8400000D01*
X20700000Y-13500000D01*
X12150000Y-13500000D01*
X12150000Y-8400000D01*
D11*
X12655064Y-11072834D02*
X12744980Y-11162750D01*
X12744980Y-11072834D02*
X12655064Y-11162750D01*
X12655064Y-11512762D02*
X12744980Y-11602678D01*
X12744980Y-11512762D02*
X12655064Y-11602678D01*
D10*
X12400777Y-13821484D02*
X12400777Y-13621484D01*
X12400777Y-13621484D02*
X12448396Y-13621484D01*
X12448396Y-13621484D02*
X12476967Y-13631008D01*
X12476967Y-13631008D02*
X12496015Y-13650055D01*
X12496015Y-13650055D02*
X12505539Y-13669103D01*
X12505539Y-13669103D02*
X12515062Y-13707198D01*
X12515062Y-13707198D02*
X12515062Y-13735769D01*
X12515062Y-13735769D02*
X12505539Y-13773865D01*
X12505539Y-13773865D02*
X12496015Y-13792912D01*
X12496015Y-13792912D02*
X12476967Y-13811960D01*
X12476967Y-13811960D02*
X12448396Y-13821484D01*
X12448396Y-13821484D02*
X12400777Y-13821484D01*
X12600777Y-13821484D02*
X12600777Y-13688150D01*
X12600777Y-13726246D02*
X12610301Y-13707198D01*
X12610301Y-13707198D02*
X12619824Y-13697674D01*
X12619824Y-13697674D02*
X12638872Y-13688150D01*
X12638872Y-13688150D02*
X12657920Y-13688150D01*
X12724586Y-13821484D02*
X12724586Y-13688150D01*
X12724586Y-13621484D02*
X12715062Y-13631008D01*
X12715062Y-13631008D02*
X12724586Y-13640531D01*
X12724586Y-13640531D02*
X12734110Y-13631008D01*
X12734110Y-13631008D02*
X12724586Y-13621484D01*
X12724586Y-13621484D02*
X12724586Y-13640531D01*
X12848396Y-13821484D02*
X12829348Y-13811960D01*
X12829348Y-13811960D02*
X12819824Y-13792912D01*
X12819824Y-13792912D02*
X12819824Y-13621484D01*
X12953158Y-13821484D02*
X12934110Y-13811960D01*
X12934110Y-13811960D02*
X12924586Y-13792912D01*
X12924586Y-13792912D02*
X12924586Y-13621484D01*
X13181729Y-13821484D02*
X13181729Y-13621484D01*
X13181729Y-13621484D02*
X13248396Y-13764341D01*
X13248396Y-13764341D02*
X13315062Y-13621484D01*
X13315062Y-13621484D02*
X13315062Y-13821484D01*
X13496015Y-13821484D02*
X13496015Y-13716722D01*
X13496015Y-13716722D02*
X13486491Y-13697674D01*
X13486491Y-13697674D02*
X13467443Y-13688150D01*
X13467443Y-13688150D02*
X13429348Y-13688150D01*
X13429348Y-13688150D02*
X13410301Y-13697674D01*
X13496015Y-13811960D02*
X13476967Y-13821484D01*
X13476967Y-13821484D02*
X13429348Y-13821484D01*
X13429348Y-13821484D02*
X13410301Y-13811960D01*
X13410301Y-13811960D02*
X13400777Y-13792912D01*
X13400777Y-13792912D02*
X13400777Y-13773865D01*
X13400777Y-13773865D02*
X13410301Y-13754817D01*
X13410301Y-13754817D02*
X13429348Y-13745293D01*
X13429348Y-13745293D02*
X13476967Y-13745293D01*
X13476967Y-13745293D02*
X13496015Y-13735769D01*
X13591253Y-13688150D02*
X13591253Y-13888150D01*
X13591253Y-13697674D02*
X13610301Y-13688150D01*
X13610301Y-13688150D02*
X13648396Y-13688150D01*
X13648396Y-13688150D02*
X13667443Y-13697674D01*
X13667443Y-13697674D02*
X13676967Y-13707198D01*
X13676967Y-13707198D02*
X13686491Y-13726246D01*
X13686491Y-13726246D02*
X13686491Y-13783388D01*
X13686491Y-13783388D02*
X13676967Y-13802436D01*
X13676967Y-13802436D02*
X13667443Y-13811960D01*
X13667443Y-13811960D02*
X13648396Y-13821484D01*
X13648396Y-13821484D02*
X13610301Y-13821484D01*
X13610301Y-13821484D02*
X13591253Y-13811960D01*
X13772205Y-13802436D02*
X13781729Y-13811960D01*
X13781729Y-13811960D02*
X13772205Y-13821484D01*
X13772205Y-13821484D02*
X13762682Y-13811960D01*
X13762682Y-13811960D02*
X13772205Y-13802436D01*
X13772205Y-13802436D02*
X13772205Y-13821484D01*
X13772205Y-13697674D02*
X13781729Y-13707198D01*
X13781729Y-13707198D02*
X13772205Y-13716722D01*
X13772205Y-13716722D02*
X13762682Y-13707198D01*
X13762682Y-13707198D02*
X13772205Y-13697674D01*
X13772205Y-13697674D02*
X13772205Y-13716722D01*
D11*
X12050084Y-14105042D02*
X12140000Y-14194958D01*
X12140000Y-14105042D02*
X12050084Y-14194958D01*
D10*
X12438872Y-14041484D02*
X12457920Y-14041484D01*
X12457920Y-14041484D02*
X12476967Y-14051008D01*
X12476967Y-14051008D02*
X12486491Y-14060531D01*
X12486491Y-14060531D02*
X12496015Y-14079579D01*
X12496015Y-14079579D02*
X12505539Y-14117674D01*
X12505539Y-14117674D02*
X12505539Y-14165293D01*
X12505539Y-14165293D02*
X12496015Y-14203388D01*
X12496015Y-14203388D02*
X12486491Y-14222436D01*
X12486491Y-14222436D02*
X12476967Y-14231960D01*
X12476967Y-14231960D02*
X12457920Y-14241484D01*
X12457920Y-14241484D02*
X12438872Y-14241484D01*
X12438872Y-14241484D02*
X12419824Y-14231960D01*
X12419824Y-14231960D02*
X12410301Y-14222436D01*
X12410301Y-14222436D02*
X12400777Y-14203388D01*
X12400777Y-14203388D02*
X12391253Y-14165293D01*
X12391253Y-14165293D02*
X12391253Y-14117674D01*
X12391253Y-14117674D02*
X12400777Y-14079579D01*
X12400777Y-14079579D02*
X12410301Y-14060531D01*
X12410301Y-14060531D02*
X12419824Y-14051008D01*
X12419824Y-14051008D02*
X12438872Y-14041484D01*
X12591253Y-14222436D02*
X12600777Y-14231960D01*
X12600777Y-14231960D02*
X12591253Y-14241484D01*
X12591253Y-14241484D02*
X12581729Y-14231960D01*
X12581729Y-14231960D02*
X12591253Y-14222436D01*
X12591253Y-14222436D02*
X12591253Y-14241484D01*
X12715062Y-14127198D02*
X12696015Y-14117674D01*
X12696015Y-14117674D02*
X12686491Y-14108150D01*
X12686491Y-14108150D02*
X12676967Y-14089103D01*
X12676967Y-14089103D02*
X12676967Y-14079579D01*
X12676967Y-14079579D02*
X12686491Y-14060531D01*
X12686491Y-14060531D02*
X12696015Y-14051008D01*
X12696015Y-14051008D02*
X12715062Y-14041484D01*
X12715062Y-14041484D02*
X12753158Y-14041484D01*
X12753158Y-14041484D02*
X12772205Y-14051008D01*
X12772205Y-14051008D02*
X12781729Y-14060531D01*
X12781729Y-14060531D02*
X12791253Y-14079579D01*
X12791253Y-14079579D02*
X12791253Y-14089103D01*
X12791253Y-14089103D02*
X12781729Y-14108150D01*
X12781729Y-14108150D02*
X12772205Y-14117674D01*
X12772205Y-14117674D02*
X12753158Y-14127198D01*
X12753158Y-14127198D02*
X12715062Y-14127198D01*
X12715062Y-14127198D02*
X12696015Y-14136722D01*
X12696015Y-14136722D02*
X12686491Y-14146246D01*
X12686491Y-14146246D02*
X12676967Y-14165293D01*
X12676967Y-14165293D02*
X12676967Y-14203388D01*
X12676967Y-14203388D02*
X12686491Y-14222436D01*
X12686491Y-14222436D02*
X12696015Y-14231960D01*
X12696015Y-14231960D02*
X12715062Y-14241484D01*
X12715062Y-14241484D02*
X12753158Y-14241484D01*
X12753158Y-14241484D02*
X12772205Y-14231960D01*
X12772205Y-14231960D02*
X12781729Y-14222436D01*
X12781729Y-14222436D02*
X12791253Y-14203388D01*
X12791253Y-14203388D02*
X12791253Y-14165293D01*
X12791253Y-14165293D02*
X12781729Y-14146246D01*
X12781729Y-14146246D02*
X12772205Y-14136722D01*
X12772205Y-14136722D02*
X12753158Y-14127198D01*
X12886491Y-14241484D02*
X12924586Y-14241484D01*
X12924586Y-14241484D02*
X12943634Y-14231960D01*
X12943634Y-14231960D02*
X12953158Y-14222436D01*
X12953158Y-14222436D02*
X12972205Y-14193865D01*
X12972205Y-14193865D02*
X12981729Y-14155769D01*
X12981729Y-14155769D02*
X12981729Y-14079579D01*
X12981729Y-14079579D02*
X12972205Y-14060531D01*
X12972205Y-14060531D02*
X12962682Y-14051008D01*
X12962682Y-14051008D02*
X12943634Y-14041484D01*
X12943634Y-14041484D02*
X12905539Y-14041484D01*
X12905539Y-14041484D02*
X12886491Y-14051008D01*
X12886491Y-14051008D02*
X12876967Y-14060531D01*
X12876967Y-14060531D02*
X12867443Y-14079579D01*
X12867443Y-14079579D02*
X12867443Y-14127198D01*
X12867443Y-14127198D02*
X12876967Y-14146246D01*
X12876967Y-14146246D02*
X12886491Y-14155769D01*
X12886491Y-14155769D02*
X12905539Y-14165293D01*
X12905539Y-14165293D02*
X12943634Y-14165293D01*
X12943634Y-14165293D02*
X12962682Y-14155769D01*
X12962682Y-14155769D02*
X12972205Y-14146246D01*
X12972205Y-14146246D02*
X12981729Y-14127198D01*
X13076967Y-14241484D02*
X13115062Y-14241484D01*
X13115062Y-14241484D02*
X13134110Y-14231960D01*
X13134110Y-14231960D02*
X13143634Y-14222436D01*
X13143634Y-14222436D02*
X13162682Y-14193865D01*
X13162682Y-14193865D02*
X13172205Y-14155769D01*
X13172205Y-14155769D02*
X13172205Y-14079579D01*
X13172205Y-14079579D02*
X13162682Y-14060531D01*
X13162682Y-14060531D02*
X13153158Y-14051008D01*
X13153158Y-14051008D02*
X13134110Y-14041484D01*
X13134110Y-14041484D02*
X13096015Y-14041484D01*
X13096015Y-14041484D02*
X13076967Y-14051008D01*
X13076967Y-14051008D02*
X13067443Y-14060531D01*
X13067443Y-14060531D02*
X13057920Y-14079579D01*
X13057920Y-14079579D02*
X13057920Y-14127198D01*
X13057920Y-14127198D02*
X13067443Y-14146246D01*
X13067443Y-14146246D02*
X13076967Y-14155769D01*
X13076967Y-14155769D02*
X13096015Y-14165293D01*
X13096015Y-14165293D02*
X13134110Y-14165293D01*
X13134110Y-14165293D02*
X13153158Y-14155769D01*
X13153158Y-14155769D02*
X13162682Y-14146246D01*
X13162682Y-14146246D02*
X13172205Y-14127198D01*
X13257920Y-14241484D02*
X13257920Y-14108150D01*
X13257920Y-14127198D02*
X13267443Y-14117674D01*
X13267443Y-14117674D02*
X13286491Y-14108150D01*
X13286491Y-14108150D02*
X13315063Y-14108150D01*
X13315063Y-14108150D02*
X13334110Y-14117674D01*
X13334110Y-14117674D02*
X13343634Y-14136722D01*
X13343634Y-14136722D02*
X13343634Y-14241484D01*
X13343634Y-14136722D02*
X13353158Y-14117674D01*
X13353158Y-14117674D02*
X13372205Y-14108150D01*
X13372205Y-14108150D02*
X13400777Y-14108150D01*
X13400777Y-14108150D02*
X13419824Y-14117674D01*
X13419824Y-14117674D02*
X13429348Y-14136722D01*
X13429348Y-14136722D02*
X13429348Y-14241484D01*
X13524586Y-14241484D02*
X13524586Y-14108150D01*
X13524586Y-14127198D02*
X13534110Y-14117674D01*
X13534110Y-14117674D02*
X13553158Y-14108150D01*
X13553158Y-14108150D02*
X13581729Y-14108150D01*
X13581729Y-14108150D02*
X13600777Y-14117674D01*
X13600777Y-14117674D02*
X13610301Y-14136722D01*
X13610301Y-14136722D02*
X13610301Y-14241484D01*
X13610301Y-14136722D02*
X13619824Y-14117674D01*
X13619824Y-14117674D02*
X13638872Y-14108150D01*
X13638872Y-14108150D02*
X13667443Y-14108150D01*
X13667443Y-14108150D02*
X13686491Y-14117674D01*
X13686491Y-14117674D02*
X13696015Y-14136722D01*
X13696015Y-14136722D02*
X13696015Y-14241484D01*
X14086491Y-14031960D02*
X13915063Y-14289103D01*
X14343634Y-14041484D02*
X14362682Y-14041484D01*
X14362682Y-14041484D02*
X14381729Y-14051008D01*
X14381729Y-14051008D02*
X14391253Y-14060531D01*
X14391253Y-14060531D02*
X14400777Y-14079579D01*
X14400777Y-14079579D02*
X14410301Y-14117674D01*
X14410301Y-14117674D02*
X14410301Y-14165293D01*
X14410301Y-14165293D02*
X14400777Y-14203388D01*
X14400777Y-14203388D02*
X14391253Y-14222436D01*
X14391253Y-14222436D02*
X14381729Y-14231960D01*
X14381729Y-14231960D02*
X14362682Y-14241484D01*
X14362682Y-14241484D02*
X14343634Y-14241484D01*
X14343634Y-14241484D02*
X14324586Y-14231960D01*
X14324586Y-14231960D02*
X14315063Y-14222436D01*
X14315063Y-14222436D02*
X14305539Y-14203388D01*
X14305539Y-14203388D02*
X14296015Y-14165293D01*
X14296015Y-14165293D02*
X14296015Y-14117674D01*
X14296015Y-14117674D02*
X14305539Y-14079579D01*
X14305539Y-14079579D02*
X14315063Y-14060531D01*
X14315063Y-14060531D02*
X14324586Y-14051008D01*
X14324586Y-14051008D02*
X14343634Y-14041484D01*
X14496015Y-14222436D02*
X14505539Y-14231960D01*
X14505539Y-14231960D02*
X14496015Y-14241484D01*
X14496015Y-14241484D02*
X14486491Y-14231960D01*
X14486491Y-14231960D02*
X14496015Y-14222436D01*
X14496015Y-14222436D02*
X14496015Y-14241484D01*
X14629348Y-14041484D02*
X14648396Y-14041484D01*
X14648396Y-14041484D02*
X14667444Y-14051008D01*
X14667444Y-14051008D02*
X14676967Y-14060531D01*
X14676967Y-14060531D02*
X14686491Y-14079579D01*
X14686491Y-14079579D02*
X14696015Y-14117674D01*
X14696015Y-14117674D02*
X14696015Y-14165293D01*
X14696015Y-14165293D02*
X14686491Y-14203388D01*
X14686491Y-14203388D02*
X14676967Y-14222436D01*
X14676967Y-14222436D02*
X14667444Y-14231960D01*
X14667444Y-14231960D02*
X14648396Y-14241484D01*
X14648396Y-14241484D02*
X14629348Y-14241484D01*
X14629348Y-14241484D02*
X14610301Y-14231960D01*
X14610301Y-14231960D02*
X14600777Y-14222436D01*
X14600777Y-14222436D02*
X14591253Y-14203388D01*
X14591253Y-14203388D02*
X14581729Y-14165293D01*
X14581729Y-14165293D02*
X14581729Y-14117674D01*
X14581729Y-14117674D02*
X14591253Y-14079579D01*
X14591253Y-14079579D02*
X14600777Y-14060531D01*
X14600777Y-14060531D02*
X14610301Y-14051008D01*
X14610301Y-14051008D02*
X14629348Y-14041484D01*
X14762682Y-14041484D02*
X14886491Y-14041484D01*
X14886491Y-14041484D02*
X14819825Y-14117674D01*
X14819825Y-14117674D02*
X14848396Y-14117674D01*
X14848396Y-14117674D02*
X14867444Y-14127198D01*
X14867444Y-14127198D02*
X14876967Y-14136722D01*
X14876967Y-14136722D02*
X14886491Y-14155769D01*
X14886491Y-14155769D02*
X14886491Y-14203388D01*
X14886491Y-14203388D02*
X14876967Y-14222436D01*
X14876967Y-14222436D02*
X14867444Y-14231960D01*
X14867444Y-14231960D02*
X14848396Y-14241484D01*
X14848396Y-14241484D02*
X14791253Y-14241484D01*
X14791253Y-14241484D02*
X14772206Y-14231960D01*
X14772206Y-14231960D02*
X14762682Y-14222436D01*
X15067444Y-14041484D02*
X14972206Y-14041484D01*
X14972206Y-14041484D02*
X14962682Y-14136722D01*
X14962682Y-14136722D02*
X14972206Y-14127198D01*
X14972206Y-14127198D02*
X14991253Y-14117674D01*
X14991253Y-14117674D02*
X15038872Y-14117674D01*
X15038872Y-14117674D02*
X15057920Y-14127198D01*
X15057920Y-14127198D02*
X15067444Y-14136722D01*
X15067444Y-14136722D02*
X15076967Y-14155769D01*
X15076967Y-14155769D02*
X15076967Y-14203388D01*
X15076967Y-14203388D02*
X15067444Y-14222436D01*
X15067444Y-14222436D02*
X15057920Y-14231960D01*
X15057920Y-14231960D02*
X15038872Y-14241484D01*
X15038872Y-14241484D02*
X14991253Y-14241484D01*
X14991253Y-14241484D02*
X14972206Y-14231960D01*
X14972206Y-14231960D02*
X14962682Y-14222436D01*
X15248396Y-14108150D02*
X15248396Y-14241484D01*
X15200777Y-14031960D02*
X15153158Y-14174817D01*
X15153158Y-14174817D02*
X15276967Y-14174817D01*
X15343634Y-14041484D02*
X15343634Y-14079579D01*
X15419825Y-14041484D02*
X15419825Y-14079579D01*
X15715063Y-14317674D02*
X15705539Y-14308150D01*
X15705539Y-14308150D02*
X15686491Y-14279579D01*
X15686491Y-14279579D02*
X15676968Y-14260531D01*
X15676968Y-14260531D02*
X15667444Y-14231960D01*
X15667444Y-14231960D02*
X15657920Y-14184341D01*
X15657920Y-14184341D02*
X15657920Y-14146246D01*
X15657920Y-14146246D02*
X15667444Y-14098627D01*
X15667444Y-14098627D02*
X15676968Y-14070055D01*
X15676968Y-14070055D02*
X15686491Y-14051008D01*
X15686491Y-14051008D02*
X15705539Y-14022436D01*
X15705539Y-14022436D02*
X15715063Y-14012912D01*
X15781729Y-14060531D02*
X15791253Y-14051008D01*
X15791253Y-14051008D02*
X15810301Y-14041484D01*
X15810301Y-14041484D02*
X15857920Y-14041484D01*
X15857920Y-14041484D02*
X15876968Y-14051008D01*
X15876968Y-14051008D02*
X15886491Y-14060531D01*
X15886491Y-14060531D02*
X15896015Y-14079579D01*
X15896015Y-14079579D02*
X15896015Y-14098627D01*
X15896015Y-14098627D02*
X15886491Y-14127198D01*
X15886491Y-14127198D02*
X15772206Y-14241484D01*
X15772206Y-14241484D02*
X15896015Y-14241484D01*
X16134110Y-14241484D02*
X16134110Y-14041484D01*
X16219825Y-14241484D02*
X16219825Y-14136722D01*
X16219825Y-14136722D02*
X16210301Y-14117674D01*
X16210301Y-14117674D02*
X16191253Y-14108150D01*
X16191253Y-14108150D02*
X16162682Y-14108150D01*
X16162682Y-14108150D02*
X16143634Y-14117674D01*
X16143634Y-14117674D02*
X16134110Y-14127198D01*
X16343634Y-14241484D02*
X16324587Y-14231960D01*
X16324587Y-14231960D02*
X16315063Y-14222436D01*
X16315063Y-14222436D02*
X16305539Y-14203388D01*
X16305539Y-14203388D02*
X16305539Y-14146246D01*
X16305539Y-14146246D02*
X16315063Y-14127198D01*
X16315063Y-14127198D02*
X16324587Y-14117674D01*
X16324587Y-14117674D02*
X16343634Y-14108150D01*
X16343634Y-14108150D02*
X16372206Y-14108150D01*
X16372206Y-14108150D02*
X16391253Y-14117674D01*
X16391253Y-14117674D02*
X16400777Y-14127198D01*
X16400777Y-14127198D02*
X16410301Y-14146246D01*
X16410301Y-14146246D02*
X16410301Y-14203388D01*
X16410301Y-14203388D02*
X16400777Y-14222436D01*
X16400777Y-14222436D02*
X16391253Y-14231960D01*
X16391253Y-14231960D02*
X16372206Y-14241484D01*
X16372206Y-14241484D02*
X16343634Y-14241484D01*
X16524587Y-14241484D02*
X16505539Y-14231960D01*
X16505539Y-14231960D02*
X16496015Y-14212912D01*
X16496015Y-14212912D02*
X16496015Y-14041484D01*
X16676968Y-14231960D02*
X16657920Y-14241484D01*
X16657920Y-14241484D02*
X16619825Y-14241484D01*
X16619825Y-14241484D02*
X16600777Y-14231960D01*
X16600777Y-14231960D02*
X16591253Y-14212912D01*
X16591253Y-14212912D02*
X16591253Y-14136722D01*
X16591253Y-14136722D02*
X16600777Y-14117674D01*
X16600777Y-14117674D02*
X16619825Y-14108150D01*
X16619825Y-14108150D02*
X16657920Y-14108150D01*
X16657920Y-14108150D02*
X16676968Y-14117674D01*
X16676968Y-14117674D02*
X16686491Y-14136722D01*
X16686491Y-14136722D02*
X16686491Y-14155769D01*
X16686491Y-14155769D02*
X16591253Y-14174817D01*
X16762682Y-14231960D02*
X16781730Y-14241484D01*
X16781730Y-14241484D02*
X16819825Y-14241484D01*
X16819825Y-14241484D02*
X16838873Y-14231960D01*
X16838873Y-14231960D02*
X16848396Y-14212912D01*
X16848396Y-14212912D02*
X16848396Y-14203388D01*
X16848396Y-14203388D02*
X16838873Y-14184341D01*
X16838873Y-14184341D02*
X16819825Y-14174817D01*
X16819825Y-14174817D02*
X16791253Y-14174817D01*
X16791253Y-14174817D02*
X16772206Y-14165293D01*
X16772206Y-14165293D02*
X16762682Y-14146246D01*
X16762682Y-14146246D02*
X16762682Y-14136722D01*
X16762682Y-14136722D02*
X16772206Y-14117674D01*
X16772206Y-14117674D02*
X16791253Y-14108150D01*
X16791253Y-14108150D02*
X16819825Y-14108150D01*
X16819825Y-14108150D02*
X16838873Y-14117674D01*
X16915063Y-14317674D02*
X16924587Y-14308150D01*
X16924587Y-14308150D02*
X16943634Y-14279579D01*
X16943634Y-14279579D02*
X16953158Y-14260531D01*
X16953158Y-14260531D02*
X16962682Y-14231960D01*
X16962682Y-14231960D02*
X16972206Y-14184341D01*
X16972206Y-14184341D02*
X16972206Y-14146246D01*
X16972206Y-14146246D02*
X16962682Y-14098627D01*
X16962682Y-14098627D02*
X16953158Y-14070055D01*
X16953158Y-14070055D02*
X16943634Y-14051008D01*
X16943634Y-14051008D02*
X16924587Y-14022436D01*
X16924587Y-14022436D02*
X16915063Y-14012912D01*
X17276968Y-14317674D02*
X17267444Y-14308150D01*
X17267444Y-14308150D02*
X17248396Y-14279579D01*
X17248396Y-14279579D02*
X17238873Y-14260531D01*
X17238873Y-14260531D02*
X17229349Y-14231960D01*
X17229349Y-14231960D02*
X17219825Y-14184341D01*
X17219825Y-14184341D02*
X17219825Y-14146246D01*
X17219825Y-14146246D02*
X17229349Y-14098627D01*
X17229349Y-14098627D02*
X17238873Y-14070055D01*
X17238873Y-14070055D02*
X17248396Y-14051008D01*
X17248396Y-14051008D02*
X17267444Y-14022436D01*
X17267444Y-14022436D02*
X17276968Y-14012912D01*
X17353158Y-14108150D02*
X17353158Y-14241484D01*
X17353158Y-14127198D02*
X17362682Y-14117674D01*
X17362682Y-14117674D02*
X17381730Y-14108150D01*
X17381730Y-14108150D02*
X17410301Y-14108150D01*
X17410301Y-14108150D02*
X17429349Y-14117674D01*
X17429349Y-14117674D02*
X17438873Y-14136722D01*
X17438873Y-14136722D02*
X17438873Y-14241484D01*
X17562682Y-14241484D02*
X17543634Y-14231960D01*
X17543634Y-14231960D02*
X17534111Y-14222436D01*
X17534111Y-14222436D02*
X17524587Y-14203388D01*
X17524587Y-14203388D02*
X17524587Y-14146246D01*
X17524587Y-14146246D02*
X17534111Y-14127198D01*
X17534111Y-14127198D02*
X17543634Y-14117674D01*
X17543634Y-14117674D02*
X17562682Y-14108150D01*
X17562682Y-14108150D02*
X17591254Y-14108150D01*
X17591254Y-14108150D02*
X17610301Y-14117674D01*
X17610301Y-14117674D02*
X17619825Y-14127198D01*
X17619825Y-14127198D02*
X17629349Y-14146246D01*
X17629349Y-14146246D02*
X17629349Y-14203388D01*
X17629349Y-14203388D02*
X17619825Y-14222436D01*
X17619825Y-14222436D02*
X17610301Y-14231960D01*
X17610301Y-14231960D02*
X17591254Y-14241484D01*
X17591254Y-14241484D02*
X17562682Y-14241484D01*
X17686492Y-14108150D02*
X17762682Y-14108150D01*
X17715063Y-14041484D02*
X17715063Y-14212912D01*
X17715063Y-14212912D02*
X17724587Y-14231960D01*
X17724587Y-14231960D02*
X17743634Y-14241484D01*
X17743634Y-14241484D02*
X17762682Y-14241484D01*
X17981730Y-14108150D02*
X17981730Y-14308150D01*
X17981730Y-14117674D02*
X18000777Y-14108150D01*
X18000777Y-14108150D02*
X18038873Y-14108150D01*
X18038873Y-14108150D02*
X18057920Y-14117674D01*
X18057920Y-14117674D02*
X18067444Y-14127198D01*
X18067444Y-14127198D02*
X18076968Y-14146246D01*
X18076968Y-14146246D02*
X18076968Y-14203388D01*
X18076968Y-14203388D02*
X18067444Y-14222436D01*
X18067444Y-14222436D02*
X18057920Y-14231960D01*
X18057920Y-14231960D02*
X18038873Y-14241484D01*
X18038873Y-14241484D02*
X18000777Y-14241484D01*
X18000777Y-14241484D02*
X17981730Y-14231960D01*
X18191254Y-14241484D02*
X18172206Y-14231960D01*
X18172206Y-14231960D02*
X18162682Y-14212912D01*
X18162682Y-14212912D02*
X18162682Y-14041484D01*
X18353158Y-14241484D02*
X18353158Y-14136722D01*
X18353158Y-14136722D02*
X18343635Y-14117674D01*
X18343635Y-14117674D02*
X18324587Y-14108150D01*
X18324587Y-14108150D02*
X18286492Y-14108150D01*
X18286492Y-14108150D02*
X18267444Y-14117674D01*
X18353158Y-14231960D02*
X18334111Y-14241484D01*
X18334111Y-14241484D02*
X18286492Y-14241484D01*
X18286492Y-14241484D02*
X18267444Y-14231960D01*
X18267444Y-14231960D02*
X18257920Y-14212912D01*
X18257920Y-14212912D02*
X18257920Y-14193865D01*
X18257920Y-14193865D02*
X18267444Y-14174817D01*
X18267444Y-14174817D02*
X18286492Y-14165293D01*
X18286492Y-14165293D02*
X18334111Y-14165293D01*
X18334111Y-14165293D02*
X18353158Y-14155769D01*
X18419825Y-14108150D02*
X18496015Y-14108150D01*
X18448396Y-14041484D02*
X18448396Y-14212912D01*
X18448396Y-14212912D02*
X18457920Y-14231960D01*
X18457920Y-14231960D02*
X18476968Y-14241484D01*
X18476968Y-14241484D02*
X18496015Y-14241484D01*
X18638873Y-14231960D02*
X18619825Y-14241484D01*
X18619825Y-14241484D02*
X18581730Y-14241484D01*
X18581730Y-14241484D02*
X18562682Y-14231960D01*
X18562682Y-14231960D02*
X18553158Y-14212912D01*
X18553158Y-14212912D02*
X18553158Y-14136722D01*
X18553158Y-14136722D02*
X18562682Y-14117674D01*
X18562682Y-14117674D02*
X18581730Y-14108150D01*
X18581730Y-14108150D02*
X18619825Y-14108150D01*
X18619825Y-14108150D02*
X18638873Y-14117674D01*
X18638873Y-14117674D02*
X18648396Y-14136722D01*
X18648396Y-14136722D02*
X18648396Y-14155769D01*
X18648396Y-14155769D02*
X18553158Y-14174817D01*
X18819825Y-14241484D02*
X18819825Y-14041484D01*
X18819825Y-14231960D02*
X18800777Y-14241484D01*
X18800777Y-14241484D02*
X18762682Y-14241484D01*
X18762682Y-14241484D02*
X18743635Y-14231960D01*
X18743635Y-14231960D02*
X18734111Y-14222436D01*
X18734111Y-14222436D02*
X18724587Y-14203388D01*
X18724587Y-14203388D02*
X18724587Y-14146246D01*
X18724587Y-14146246D02*
X18734111Y-14127198D01*
X18734111Y-14127198D02*
X18743635Y-14117674D01*
X18743635Y-14117674D02*
X18762682Y-14108150D01*
X18762682Y-14108150D02*
X18800777Y-14108150D01*
X18800777Y-14108150D02*
X18819825Y-14117674D01*
X18896016Y-14317674D02*
X18905539Y-14308150D01*
X18905539Y-14308150D02*
X18924587Y-14279579D01*
X18924587Y-14279579D02*
X18934111Y-14260531D01*
X18934111Y-14260531D02*
X18943635Y-14231960D01*
X18943635Y-14231960D02*
X18953158Y-14184341D01*
X18953158Y-14184341D02*
X18953158Y-14146246D01*
X18953158Y-14146246D02*
X18943635Y-14098627D01*
X18943635Y-14098627D02*
X18934111Y-14070055D01*
X18934111Y-14070055D02*
X18924587Y-14051008D01*
X18924587Y-14051008D02*
X18905539Y-14022436D01*
X18905539Y-14022436D02*
X18896016Y-14012912D01*
M02*
