%TF.GenerationSoftware,KiCad,Pcbnew,7.0.7*%
%TF.CreationDate,2023-10-17T21:46:05+02:00*%
%TF.ProjectId,Motherboard_pico,4d6f7468-6572-4626-9f61-72645f706963,rev?*%
%TF.SameCoordinates,Original*%
%TF.FileFunction,Paste,Top*%
%TF.FilePolarity,Positive*%
%FSLAX46Y46*%
G04 Gerber Fmt 4.6, Leading zero omitted, Abs format (unit mm)*
G04 Created by KiCad (PCBNEW 7.0.7) date 2023-10-17 21:46:05*
%MOMM*%
%LPD*%
G01*
G04 APERTURE LIST*
G04 Aperture macros list*
%AMRoundRect*
0 Rectangle with rounded corners*
0 $1 Rounding radius*
0 $2 $3 $4 $5 $6 $7 $8 $9 X,Y pos of 4 corners*
0 Add a 4 corners polygon primitive as box body*
4,1,4,$2,$3,$4,$5,$6,$7,$8,$9,$2,$3,0*
0 Add four circle primitives for the rounded corners*
1,1,$1+$1,$2,$3*
1,1,$1+$1,$4,$5*
1,1,$1+$1,$6,$7*
1,1,$1+$1,$8,$9*
0 Add four rect primitives between the rounded corners*
20,1,$1+$1,$2,$3,$4,$5,0*
20,1,$1+$1,$4,$5,$6,$7,0*
20,1,$1+$1,$6,$7,$8,$9,0*
20,1,$1+$1,$8,$9,$2,$3,0*%
G04 Aperture macros list end*
%ADD10RoundRect,0.237500X0.250000X0.237500X-0.250000X0.237500X-0.250000X-0.237500X0.250000X-0.237500X0*%
%ADD11RoundRect,0.237500X0.287500X0.237500X-0.287500X0.237500X-0.287500X-0.237500X0.287500X-0.237500X0*%
%ADD12RoundRect,0.237500X-0.237500X0.300000X-0.237500X-0.300000X0.237500X-0.300000X0.237500X0.300000X0*%
%ADD13RoundRect,0.237500X-0.237500X0.250000X-0.237500X-0.250000X0.237500X-0.250000X0.237500X0.250000X0*%
%ADD14RoundRect,0.237500X-0.300000X-0.237500X0.300000X-0.237500X0.300000X0.237500X-0.300000X0.237500X0*%
%ADD15RoundRect,0.237500X0.237500X-0.300000X0.237500X0.300000X-0.237500X0.300000X-0.237500X-0.300000X0*%
%ADD16RoundRect,0.237500X-0.250000X-0.237500X0.250000X-0.237500X0.250000X0.237500X-0.250000X0.237500X0*%
%ADD17RoundRect,0.237500X0.237500X-0.287500X0.237500X0.287500X-0.237500X0.287500X-0.237500X-0.287500X0*%
%ADD18RoundRect,0.237500X0.237500X-0.250000X0.237500X0.250000X-0.237500X0.250000X-0.237500X-0.250000X0*%
%ADD19R,2.499360X0.497840*%
%ADD20R,2.499360X1.998980*%
%ADD21R,0.550000X1.600000*%
%ADD22R,1.600000X0.550000*%
%ADD23RoundRect,0.237500X-0.287500X-0.237500X0.287500X-0.237500X0.287500X0.237500X-0.287500X0.237500X0*%
%ADD24RoundRect,0.150000X-0.650000X-0.150000X0.650000X-0.150000X0.650000X0.150000X-0.650000X0.150000X0*%
%ADD25RoundRect,0.237500X0.300000X0.237500X-0.300000X0.237500X-0.300000X-0.237500X0.300000X-0.237500X0*%
%ADD26R,2.000000X1.500000*%
%ADD27R,2.000000X3.800000*%
%ADD28R,0.450000X1.750000*%
%ADD29R,1.900000X0.800000*%
%ADD30RoundRect,0.150000X-0.150000X0.400000X-0.150000X-0.400000X0.150000X-0.400000X0.150000X0.400000X0*%
%ADD31R,2.100000X1.800000*%
%ADD32R,1.524000X0.762000*%
%ADD33RoundRect,0.150000X-0.825000X-0.150000X0.825000X-0.150000X0.825000X0.150000X-0.825000X0.150000X0*%
%ADD34R,0.850000X0.650000*%
%ADD35R,0.500000X0.300000*%
%ADD36R,1.500000X2.000000*%
%ADD37R,3.800000X2.000000*%
G04 APERTURE END LIST*
D10*
%TO.C,R7*%
X152940000Y-87480000D03*
X151115000Y-87480000D03*
%TD*%
%TO.C,R11*%
X173300000Y-86800000D03*
X171475000Y-86800000D03*
%TD*%
D11*
%TO.C,RX1*%
X140420000Y-106630000D03*
X138670000Y-106630000D03*
%TD*%
D12*
%TO.C,C4*%
X165620000Y-124067500D03*
X165620000Y-125792500D03*
%TD*%
D13*
%TO.C,R2*%
X138450000Y-124087500D03*
X138450000Y-125912500D03*
%TD*%
D12*
%TO.C,C10*%
X169150000Y-102737500D03*
X169150000Y-104462500D03*
%TD*%
D11*
%TO.C,TX1*%
X141420000Y-104930000D03*
X139670000Y-104930000D03*
%TD*%
D14*
%TO.C,C2*%
X146957500Y-107330000D03*
X148682500Y-107330000D03*
%TD*%
D15*
%TO.C,C8*%
X143920000Y-107330000D03*
X143920000Y-105605000D03*
%TD*%
D16*
%TO.C,R14*%
X182275000Y-132500000D03*
X184100000Y-132500000D03*
%TD*%
D11*
%TO.C,D6*%
X149520000Y-96730000D03*
X147770000Y-96730000D03*
%TD*%
D16*
%TO.C,R5*%
X133095000Y-112080000D03*
X134920000Y-112080000D03*
%TD*%
D17*
%TO.C,D12*%
X203400000Y-110950000D03*
X203400000Y-109200000D03*
%TD*%
D18*
%TO.C,R15*%
X203400000Y-104700000D03*
X203400000Y-102875000D03*
%TD*%
D13*
%TO.C,R3*%
X145620000Y-119430000D03*
X145620000Y-121255000D03*
%TD*%
D19*
%TO.C,J9*%
X129499580Y-113377560D03*
X129499580Y-112580000D03*
X129499580Y-114975220D03*
X129499580Y-114175120D03*
D20*
X124000480Y-108879220D03*
X129499580Y-108879220D03*
X124000480Y-117875900D03*
X129499580Y-117875900D03*
D19*
X129499580Y-111779900D03*
%TD*%
D21*
%TO.C,U1*%
X154900000Y-117750000D03*
X155700000Y-117750000D03*
X156500000Y-117750000D03*
X157300000Y-117750000D03*
X158100000Y-117750000D03*
X158900000Y-117750000D03*
X159700000Y-117750000D03*
X160500000Y-117750000D03*
D22*
X161950000Y-116300000D03*
X161950000Y-115500000D03*
X161950000Y-114700000D03*
X161950000Y-113900000D03*
X161950000Y-113100000D03*
X161950000Y-112300000D03*
X161950000Y-111500000D03*
X161950000Y-110700000D03*
D21*
X160500000Y-109250000D03*
X159700000Y-109250000D03*
X158900000Y-109250000D03*
X158100000Y-109250000D03*
X157300000Y-109250000D03*
X156500000Y-109250000D03*
X155700000Y-109250000D03*
X154900000Y-109250000D03*
D22*
X153450000Y-110700000D03*
X153450000Y-111500000D03*
X153450000Y-112300000D03*
X153450000Y-113100000D03*
X153450000Y-113900000D03*
X153450000Y-114700000D03*
X153450000Y-115500000D03*
X153450000Y-116300000D03*
%TD*%
D16*
%TO.C,R10*%
X145735000Y-95180000D03*
X147560000Y-95180000D03*
%TD*%
D23*
%TO.C,D1*%
X143845000Y-123530000D03*
X145595000Y-123530000D03*
%TD*%
D16*
%TO.C,R8*%
X133045000Y-106930000D03*
X134870000Y-106930000D03*
%TD*%
D10*
%TO.C,R12*%
X191912500Y-86800000D03*
X190087500Y-86800000D03*
%TD*%
D18*
%TO.C,R17*%
X188150000Y-110312500D03*
X188150000Y-108487500D03*
%TD*%
D24*
%TO.C,IC1*%
X180850000Y-112295000D03*
X180850000Y-113565000D03*
X180850000Y-114835000D03*
X180850000Y-116105000D03*
X188050000Y-116105000D03*
X188050000Y-114835000D03*
X188050000Y-113565000D03*
X188050000Y-112295000D03*
%TD*%
D10*
%TO.C,R16*%
X182462500Y-118000000D03*
X180637500Y-118000000D03*
%TD*%
%TO.C,R19*%
X181032500Y-109930000D03*
X179207500Y-109930000D03*
%TD*%
D25*
%TO.C,C12*%
X157245000Y-120430000D03*
X155520000Y-120430000D03*
%TD*%
D16*
%TO.C,R13*%
X200300000Y-132300000D03*
X202125000Y-132300000D03*
%TD*%
D11*
%TO.C,D8*%
X178735000Y-86800000D03*
X176985000Y-86800000D03*
%TD*%
D26*
%TO.C,U3*%
X143650000Y-102300000D03*
X143650000Y-100000000D03*
D27*
X137350000Y-100000000D03*
D26*
X143650000Y-97700000D03*
%TD*%
D16*
%TO.C,R9*%
X133045000Y-105180000D03*
X134870000Y-105180000D03*
%TD*%
D28*
%TO.C,U6*%
X138725000Y-116900000D03*
X139375000Y-116900000D03*
X140025000Y-116900000D03*
X140675000Y-116900000D03*
X141325000Y-116900000D03*
X141975000Y-116900000D03*
X142625000Y-116900000D03*
X143275000Y-116900000D03*
X143925000Y-116900000D03*
X144575000Y-116900000D03*
X145225000Y-116900000D03*
X145875000Y-116900000D03*
X146525000Y-116900000D03*
X147175000Y-116900000D03*
X147175000Y-109700000D03*
X146525000Y-109700000D03*
X145875000Y-109700000D03*
X145225000Y-109700000D03*
X144575000Y-109700000D03*
X143925000Y-109700000D03*
X143275000Y-109700000D03*
X142625000Y-109700000D03*
X141975000Y-109700000D03*
X141325000Y-109700000D03*
X140675000Y-109700000D03*
X140025000Y-109700000D03*
X139375000Y-109700000D03*
X138725000Y-109700000D03*
%TD*%
D18*
%TO.C,R20*%
X177000000Y-117112500D03*
X177000000Y-115287500D03*
%TD*%
D11*
%TO.C,D13*%
X186125000Y-118000000D03*
X184375000Y-118000000D03*
%TD*%
D29*
%TO.C,Q1*%
X156920000Y-94480000D03*
X156920000Y-92580000D03*
X153920000Y-93530000D03*
%TD*%
D12*
%TO.C,C9*%
X140620000Y-119367500D03*
X140620000Y-121092500D03*
%TD*%
D16*
%TO.C,R4*%
X133095000Y-113730000D03*
X134920000Y-113730000D03*
%TD*%
D25*
%TO.C,C1*%
X158602500Y-106550000D03*
X156877500Y-106550000D03*
%TD*%
D30*
%TO.C,D7*%
X134500000Y-93400000D03*
X134500000Y-95600000D03*
%TD*%
D23*
%TO.C,D10*%
X194337500Y-132300000D03*
X196087500Y-132300000D03*
%TD*%
D10*
%TO.C,R1*%
X161532500Y-120430000D03*
X159707500Y-120430000D03*
%TD*%
D31*
%TO.C,Y1*%
X163070000Y-124067500D03*
X160170000Y-124067500D03*
X160170000Y-126267500D03*
X163070000Y-126267500D03*
%TD*%
D25*
%TO.C,C3*%
X157682500Y-126230000D03*
X155957500Y-126230000D03*
%TD*%
D32*
%TO.C,S1*%
X130156000Y-123395000D03*
X135744000Y-123395000D03*
X130156000Y-127205000D03*
X135744000Y-127205000D03*
%TD*%
D10*
%TO.C,R6*%
X152942500Y-85970000D03*
X151117500Y-85970000D03*
%TD*%
D13*
%TO.C,R18*%
X166350000Y-112687500D03*
X166350000Y-114512500D03*
%TD*%
D33*
%TO.C,U5*%
X168900000Y-109350000D03*
X168900000Y-110620000D03*
X168900000Y-111890000D03*
X168900000Y-113160000D03*
X168900000Y-114430000D03*
X168900000Y-115700000D03*
X168900000Y-116970000D03*
X173850000Y-116970000D03*
X173850000Y-115700000D03*
X173850000Y-114430000D03*
X173850000Y-113160000D03*
X173850000Y-111890000D03*
X173850000Y-110620000D03*
X173850000Y-109350000D03*
%TD*%
D34*
%TO.C,U2*%
X157872500Y-86923750D03*
X157872500Y-87798750D03*
D35*
X156972500Y-86611250D03*
X156972500Y-87111250D03*
X156972500Y-87611250D03*
X156972500Y-88111250D03*
X158772500Y-88111250D03*
X158772500Y-87611250D03*
X158772500Y-87111250D03*
X158772500Y-86611250D03*
%TD*%
D23*
%TO.C,D11*%
X176812500Y-132500000D03*
X178562500Y-132500000D03*
%TD*%
D11*
%TO.C,D9*%
X198000000Y-86800000D03*
X196250000Y-86800000D03*
%TD*%
D36*
%TO.C,U4*%
X171450000Y-106350000D03*
X173750000Y-106350000D03*
D37*
X173750000Y-100050000D03*
D36*
X176050000Y-106350000D03*
%TD*%
D15*
%TO.C,C7*%
X178450000Y-104362500D03*
X178450000Y-102637500D03*
%TD*%
M02*
