%TF.GenerationSoftware,KiCad,Pcbnew,7.0.7*%
%TF.CreationDate,2023-10-17T21:46:05+02:00*%
%TF.ProjectId,Motherboard_pico,4d6f7468-6572-4626-9f61-72645f706963,rev?*%
%TF.SameCoordinates,Original*%
%TF.FileFunction,Copper,L2,Bot*%
%TF.FilePolarity,Positive*%
%FSLAX46Y46*%
G04 Gerber Fmt 4.6, Leading zero omitted, Abs format (unit mm)*
G04 Created by KiCad (PCBNEW 7.0.7) date 2023-10-17 21:46:05*
%MOMM*%
%LPD*%
G01*
G04 APERTURE LIST*
G04 Aperture macros list*
%AMRoundRect*
0 Rectangle with rounded corners*
0 $1 Rounding radius*
0 $2 $3 $4 $5 $6 $7 $8 $9 X,Y pos of 4 corners*
0 Add a 4 corners polygon primitive as box body*
4,1,4,$2,$3,$4,$5,$6,$7,$8,$9,$2,$3,0*
0 Add four circle primitives for the rounded corners*
1,1,$1+$1,$2,$3*
1,1,$1+$1,$4,$5*
1,1,$1+$1,$6,$7*
1,1,$1+$1,$8,$9*
0 Add four rect primitives between the rounded corners*
20,1,$1+$1,$2,$3,$4,$5,0*
20,1,$1+$1,$4,$5,$6,$7,0*
20,1,$1+$1,$6,$7,$8,$9,0*
20,1,$1+$1,$8,$9,$2,$3,0*%
G04 Aperture macros list end*
%TA.AperFunction,ComponentPad*%
%ADD10R,1.600000X1.600000*%
%TD*%
%TA.AperFunction,ComponentPad*%
%ADD11C,1.600000*%
%TD*%
%TA.AperFunction,ComponentPad*%
%ADD12RoundRect,0.250000X0.600000X-0.600000X0.600000X0.600000X-0.600000X0.600000X-0.600000X-0.600000X0*%
%TD*%
%TA.AperFunction,ComponentPad*%
%ADD13C,1.700000*%
%TD*%
%TA.AperFunction,ComponentPad*%
%ADD14R,1.700000X1.700000*%
%TD*%
%TA.AperFunction,ComponentPad*%
%ADD15O,1.700000X1.700000*%
%TD*%
%TA.AperFunction,ComponentPad*%
%ADD16RoundRect,0.250000X-0.600000X0.600000X-0.600000X-0.600000X0.600000X-0.600000X0.600000X0.600000X0*%
%TD*%
%TA.AperFunction,ComponentPad*%
%ADD17RoundRect,0.250000X0.600000X0.600000X-0.600000X0.600000X-0.600000X-0.600000X0.600000X-0.600000X0*%
%TD*%
%TA.AperFunction,ComponentPad*%
%ADD18R,3.500000X3.500000*%
%TD*%
%TA.AperFunction,ComponentPad*%
%ADD19RoundRect,0.750000X-0.750000X-1.000000X0.750000X-1.000000X0.750000X1.000000X-0.750000X1.000000X0*%
%TD*%
%TA.AperFunction,ComponentPad*%
%ADD20RoundRect,0.875000X-0.875000X-0.875000X0.875000X-0.875000X0.875000X0.875000X-0.875000X0.875000X0*%
%TD*%
%TA.AperFunction,ViaPad*%
%ADD21C,0.800000*%
%TD*%
%TA.AperFunction,Conductor*%
%ADD22C,0.250000*%
%TD*%
%TA.AperFunction,Conductor*%
%ADD23C,0.600000*%
%TD*%
%TA.AperFunction,Conductor*%
%ADD24C,0.400000*%
%TD*%
G04 APERTURE END LIST*
D10*
%TO.P,C11,1*%
%TO.N,12V*%
X146750000Y-92210000D03*
D11*
%TO.P,C11,2*%
%TO.N,GND*%
X146750000Y-89710000D03*
%TD*%
D10*
%TO.P,C6,1*%
%TO.N,VCC*%
X138620000Y-92240000D03*
D11*
%TO.P,C6,2*%
%TO.N,GND*%
X138620000Y-89740000D03*
%TD*%
D12*
%TO.P,J7,1,Pin_1*%
%TO.N,GND*%
X173320000Y-127500000D03*
D13*
%TO.P,J7,2,Pin_2*%
%TO.N,VCC*%
X173320000Y-124960000D03*
%TO.P,J7,3,Pin_3*%
%TO.N,MISO*%
X175860000Y-127500000D03*
%TO.P,J7,4,Pin_4*%
%TO.N,INT4*%
X175860000Y-124960000D03*
%TO.P,J7,5,Pin_5*%
%TO.N,MOSI*%
X178400000Y-127500000D03*
%TO.P,J7,6,Pin_6*%
%TO.N,RST4*%
X178400000Y-124960000D03*
%TO.P,J7,7,Pin_7*%
%TO.N,SCK*%
X180940000Y-127500000D03*
%TO.P,J7,8,Pin_8*%
%TO.N,CS5*%
X180940000Y-124960000D03*
%TD*%
D12*
%TO.P,J6,1,Pin_1*%
%TO.N,GND*%
X192500000Y-127500000D03*
D13*
%TO.P,J6,2,Pin_2*%
%TO.N,VCC*%
X192500000Y-124960000D03*
%TO.P,J6,3,Pin_3*%
%TO.N,MISO*%
X195040000Y-127500000D03*
%TO.P,J6,4,Pin_4*%
%TO.N,INT3*%
X195040000Y-124960000D03*
%TO.P,J6,5,Pin_5*%
%TO.N,MOSI*%
X197580000Y-127500000D03*
%TO.P,J6,6,Pin_6*%
%TO.N,RST3*%
X197580000Y-124960000D03*
%TO.P,J6,7,Pin_7*%
%TO.N,SCK*%
X200120000Y-127500000D03*
%TO.P,J6,8,Pin_8*%
%TO.N,CS4*%
X200120000Y-124960000D03*
%TD*%
D14*
%TO.P,J2,1,MISO*%
%TO.N,MISO*%
X160125000Y-100815000D03*
D15*
%TO.P,J2,2,VCC*%
%TO.N,VCC*%
X160125000Y-103355000D03*
%TO.P,J2,3,SCK*%
%TO.N,SCK*%
X157585000Y-100815000D03*
%TO.P,J2,4,MOSI*%
%TO.N,MOSI*%
X157585000Y-103355000D03*
%TO.P,J2,5,~{RST}*%
%TO.N,RESET*%
X155045000Y-100815000D03*
%TO.P,J2,6,GND*%
%TO.N,GND*%
X155045000Y-103355000D03*
%TD*%
D14*
%TO.P,J3,1,Pin_1*%
%TO.N,VCC*%
X128500000Y-86960000D03*
D15*
%TO.P,J3,2,Pin_2*%
%TO.N,GND*%
X128500000Y-89500000D03*
%TD*%
D16*
%TO.P,J4,1,Pin_1*%
%TO.N,GND*%
X180900000Y-91600000D03*
D13*
%TO.P,J4,2,Pin_2*%
%TO.N,VCC*%
X180900000Y-94140000D03*
%TO.P,J4,3,Pin_3*%
%TO.N,MISO*%
X178360000Y-91600000D03*
%TO.P,J4,4,Pin_4*%
%TO.N,INT1*%
X178360000Y-94140000D03*
%TO.P,J4,5,Pin_5*%
%TO.N,MOSI*%
X175820000Y-91600000D03*
%TO.P,J4,6,Pin_6*%
%TO.N,RST1*%
X175820000Y-94140000D03*
%TO.P,J4,7,Pin_7*%
%TO.N,SCK*%
X173280000Y-91600000D03*
%TO.P,J4,8,Pin_8*%
%TO.N,CS2*%
X173280000Y-94140000D03*
%TD*%
D16*
%TO.P,J5,1,Pin_1*%
%TO.N,GND*%
X200000000Y-91600000D03*
D13*
%TO.P,J5,2,Pin_2*%
%TO.N,VCC*%
X200000000Y-94140000D03*
%TO.P,J5,3,Pin_3*%
%TO.N,MISO*%
X197460000Y-91600000D03*
%TO.P,J5,4,Pin_4*%
%TO.N,INT2*%
X197460000Y-94140000D03*
%TO.P,J5,5,Pin_5*%
%TO.N,MOSI*%
X194920000Y-91600000D03*
%TO.P,J5,6,Pin_6*%
%TO.N,RST2*%
X194920000Y-94140000D03*
%TO.P,J5,7,Pin_7*%
%TO.N,SCK*%
X192380000Y-91600000D03*
%TO.P,J5,8,Pin_8*%
%TO.N,CS3*%
X192380000Y-94140000D03*
%TD*%
D17*
%TO.P,J8,1,Pin_1*%
%TO.N,GND*%
X198400000Y-113080000D03*
D13*
%TO.P,J8,2,Pin_2*%
%TO.N,VCC*%
X195860000Y-113080000D03*
%TO.P,J8,3,Pin_3*%
%TO.N,MISO*%
X198400000Y-110540000D03*
%TO.P,J8,4,Pin_4*%
%TO.N,INT5*%
X195860000Y-110540000D03*
%TO.P,J8,5,Pin_5*%
%TO.N,MOSI*%
X198400000Y-108000000D03*
%TO.P,J8,6,Pin_6*%
%TO.N,RST5*%
X195860000Y-108000000D03*
%TO.P,J8,7,Pin_7*%
%TO.N,SCK*%
X198400000Y-105460000D03*
%TO.P,J8,8,Pin_8*%
%TO.N,CS6*%
X195860000Y-105460000D03*
%TD*%
D18*
%TO.P,J1,1*%
%TO.N,Net-(D7-A)*%
X131500000Y-98500000D03*
D19*
%TO.P,J1,2*%
%TO.N,GND*%
X125500000Y-98500000D03*
D20*
%TO.P,J1,3*%
X128500000Y-103200000D03*
%TD*%
D10*
%TO.P,C5,1*%
%TO.N,VCC*%
X148900000Y-102600000D03*
D11*
%TO.P,C5,2*%
%TO.N,GND*%
X148900000Y-100100000D03*
%TD*%
D21*
%TO.N,GND*%
X157320000Y-107630000D03*
X189120000Y-99630000D03*
X154520000Y-126430000D03*
X181020000Y-86130000D03*
X204500000Y-132700000D03*
X167620000Y-133130000D03*
X167040000Y-107770000D03*
X186620000Y-87130000D03*
X153020000Y-96430000D03*
X189400000Y-124800000D03*
X198320000Y-115230000D03*
X200220000Y-110430000D03*
X178110000Y-101000000D03*
X204600000Y-88900000D03*
X158020000Y-128030000D03*
X166320000Y-122130000D03*
X144400000Y-86500000D03*
X203520000Y-113230000D03*
X148120000Y-130230000D03*
X137200000Y-85800000D03*
X160220000Y-122230000D03*
X169350000Y-106050000D03*
X132870000Y-120650000D03*
X141320000Y-95230000D03*
X157520000Y-121830000D03*
X159820000Y-89630000D03*
X186320000Y-110430000D03*
X194820000Y-101030000D03*
X163220000Y-128130000D03*
X152720000Y-90530000D03*
X163220000Y-119530000D03*
X151520000Y-111930000D03*
X195700000Y-131100000D03*
X155320000Y-114130000D03*
X166720000Y-127730000D03*
X165620000Y-94430000D03*
X125500000Y-124400000D03*
X124900000Y-86200000D03*
X198460000Y-99200000D03*
X203110000Y-98860000D03*
X128200000Y-95200000D03*
X168300000Y-86600000D03*
X191020000Y-114030000D03*
X156120000Y-123630000D03*
%TO.N,RESET*%
X144420000Y-125930000D03*
X150230000Y-113830000D03*
%TO.N,VCC*%
X193320000Y-103930000D03*
X159720000Y-112030000D03*
X141920000Y-119430000D03*
X164974500Y-104700000D03*
X181220000Y-103930000D03*
%TO.N,3.3V*%
X180707701Y-100042299D03*
X184020000Y-101230000D03*
X169220000Y-100930000D03*
%TO.N,SCK_1*%
X167120000Y-115730000D03*
X178920000Y-113630000D03*
%TO.N,MISO*%
X163030497Y-107030497D03*
X165424500Y-109280000D03*
X192120000Y-130630000D03*
X162000000Y-108200000D03*
%TO.N,SCK*%
X161600000Y-109250000D03*
X165424500Y-110665082D03*
%TO.N,MOSI*%
X156300000Y-99324500D03*
X174002701Y-89852701D03*
%TO.N,INT1*%
X155900000Y-107700000D03*
%TO.N,RST1*%
X154700000Y-107700000D03*
%TO.N,CS2*%
X152000000Y-109700000D03*
%TO.N,INT2*%
X156739866Y-113067839D03*
X194800000Y-96800000D03*
%TO.N,RST2*%
X156100000Y-112300000D03*
%TO.N,CS3*%
X155300000Y-111500000D03*
%TO.N,INT3*%
X190220000Y-120730000D03*
%TO.N,RST3*%
X192020000Y-119930000D03*
%TO.N,CS4*%
X196020000Y-119130000D03*
X197759500Y-119130000D03*
X189820000Y-119130000D03*
%TO.N,INT4*%
X165220000Y-129230000D03*
%TO.N,RST4*%
X171220000Y-122430000D03*
%TO.N,INT5*%
X164183172Y-113900000D03*
%TO.N,RST5*%
X163500000Y-113100000D03*
%TO.N,CS6*%
X164820000Y-112330000D03*
%TO.N,Net-(R17-Pad2)*%
X186620000Y-108430000D03*
X167014622Y-110235378D03*
%TO.N,CS1*%
X178102500Y-117112500D03*
X156700000Y-115800000D03*
%TO.N,VUSB*%
X134920000Y-109230000D03*
X151320000Y-93530000D03*
%TO.N,Net-(Q1-G)*%
X156575000Y-86025000D03*
X156575000Y-96130000D03*
%TD*%
D22*
%TO.N,RESET*%
X150230000Y-122320000D02*
X150230000Y-113830000D01*
X146620000Y-125930000D02*
X150230000Y-122320000D01*
X144420000Y-125930000D02*
X146620000Y-125930000D01*
D23*
%TO.N,VCC*%
X128500000Y-86960000D02*
X129950000Y-86960000D01*
X129950000Y-86960000D02*
X131520000Y-88530000D01*
X135380000Y-88530000D02*
X136570000Y-89720000D01*
D22*
X159700000Y-109336396D02*
X164336396Y-104700000D01*
D24*
X193320000Y-103930000D02*
X181220000Y-103930000D01*
D23*
X131520000Y-88530000D02*
X135380000Y-88530000D01*
D22*
X164336396Y-104700000D02*
X164974500Y-104700000D01*
X148900000Y-117650000D02*
X147120000Y-119430000D01*
D23*
X136570000Y-89720000D02*
X136570000Y-91930000D01*
D22*
X159720000Y-112030000D02*
X159720000Y-109316396D01*
D23*
X136570000Y-91930000D02*
X136880000Y-92240000D01*
D22*
X148900000Y-102600000D02*
X148900000Y-117650000D01*
D23*
X136880000Y-92240000D02*
X138620000Y-92240000D01*
D22*
X147120000Y-119430000D02*
X141920000Y-119430000D01*
%TO.N,3.3V*%
X184020000Y-101130000D02*
X184020000Y-101230000D01*
D24*
X170107701Y-100042299D02*
X169220000Y-100930000D01*
X180707701Y-100042299D02*
X170107701Y-100042299D01*
D22*
X180707701Y-100042299D02*
X182932299Y-100042299D01*
X182932299Y-100042299D02*
X184020000Y-101130000D01*
%TO.N,SCK_1*%
X178920000Y-113630000D02*
X176820000Y-115730000D01*
X176820000Y-115730000D02*
X167120000Y-115730000D01*
%TO.N,MISO*%
X175333299Y-92965000D02*
X174460000Y-93838299D01*
X177420000Y-130630000D02*
X192120000Y-130630000D01*
X162000000Y-108060994D02*
X163030497Y-107030497D01*
X175860000Y-127500000D02*
X175860000Y-129070000D01*
X174460000Y-94810000D02*
X173540000Y-95730000D01*
X173540000Y-95730000D02*
X169448604Y-95730000D01*
X162000000Y-108200000D02*
X162000000Y-108060994D01*
X165318604Y-99860000D02*
X161080000Y-99860000D01*
X174460000Y-93838299D02*
X174460000Y-94810000D01*
X175860000Y-129070000D02*
X177420000Y-130630000D01*
X169448604Y-95730000D02*
X165318604Y-99860000D01*
X176995000Y-92965000D02*
X175333299Y-92965000D01*
X178360000Y-91600000D02*
X176995000Y-92965000D01*
X161080000Y-99860000D02*
X160125000Y-100815000D01*
X163040497Y-107030497D02*
X165290000Y-109280000D01*
X165290000Y-109280000D02*
X165424500Y-109280000D01*
X163030497Y-107030497D02*
X163040497Y-107030497D01*
%TO.N,SCK*%
X192380000Y-91600000D02*
X193880000Y-90100000D01*
X190480000Y-89700000D02*
X175180000Y-89700000D01*
X175180000Y-89700000D02*
X173280000Y-91600000D01*
X169075812Y-94830000D02*
X170820000Y-94830000D01*
X201800000Y-102060000D02*
X198400000Y-105460000D01*
X198400000Y-105460000D02*
X201295000Y-108355000D01*
X158925000Y-98960000D02*
X164945812Y-98960000D01*
X201295000Y-126325000D02*
X200120000Y-127500000D01*
X201800000Y-91000000D02*
X201800000Y-102060000D01*
X200900000Y-90100000D02*
X201800000Y-91000000D01*
X180940000Y-127500000D02*
X182940000Y-129500000D01*
X157585000Y-100815000D02*
X157585000Y-100300000D01*
X192380000Y-91600000D02*
X190480000Y-89700000D01*
X164009418Y-109250000D02*
X165424500Y-110665082D01*
X193880000Y-90100000D02*
X200900000Y-90100000D01*
X164945812Y-98960000D02*
X169075812Y-94830000D01*
X173280000Y-92370000D02*
X173280000Y-91600000D01*
X198120000Y-129500000D02*
X200120000Y-127500000D01*
X161600000Y-109250000D02*
X164009418Y-109250000D01*
X182940000Y-129500000D02*
X198120000Y-129500000D01*
X201295000Y-108355000D02*
X201295000Y-126325000D01*
X170820000Y-94830000D02*
X173280000Y-92370000D01*
X157585000Y-100300000D02*
X158925000Y-98960000D01*
%TO.N,MOSI*%
X197035000Y-121445000D02*
X198920000Y-123330000D01*
X197580000Y-127500000D02*
X196310000Y-126230000D01*
X197035000Y-109365000D02*
X197035000Y-121445000D01*
X196095000Y-92775000D02*
X196095000Y-104033299D01*
X196310000Y-126230000D02*
X179670000Y-126230000D01*
X198920000Y-123330000D02*
X198920000Y-126160000D01*
X198400000Y-108000000D02*
X197035000Y-109365000D01*
X156300000Y-99324500D02*
X165771799Y-89852701D01*
X196095000Y-104033299D02*
X197225000Y-105163299D01*
X165771799Y-89852701D02*
X174002701Y-89852701D01*
X197225000Y-105163299D02*
X197225000Y-106825000D01*
X194920000Y-91600000D02*
X196095000Y-92775000D01*
X179670000Y-126230000D02*
X178400000Y-127500000D01*
X197225000Y-106825000D02*
X198400000Y-108000000D01*
X198920000Y-126160000D02*
X197580000Y-127500000D01*
%TO.N,INT1*%
X169651396Y-96800000D02*
X175700000Y-96800000D01*
X157636396Y-105400000D02*
X161051396Y-105400000D01*
X161051396Y-105400000D02*
X169651396Y-96800000D01*
X155900000Y-107700000D02*
X155900000Y-107136396D01*
X175700000Y-96800000D02*
X178360000Y-94140000D01*
X155900000Y-107136396D02*
X157636396Y-105400000D01*
%TO.N,RST1*%
X160865000Y-104950000D02*
X169465000Y-96350000D01*
X169465000Y-96350000D02*
X174812081Y-96350000D01*
X154700000Y-107700000D02*
X157450000Y-104950000D01*
X174812081Y-96350000D02*
X175820000Y-95342081D01*
X175820000Y-95342081D02*
X175820000Y-94140000D01*
X157450000Y-104950000D02*
X160865000Y-104950000D01*
%TO.N,CS2*%
X156410000Y-102868299D02*
X157098299Y-102180000D01*
X156410000Y-104660000D02*
X156410000Y-102868299D01*
X165132208Y-99410000D02*
X169262208Y-95280000D01*
X157098299Y-102180000D02*
X157910000Y-102180000D01*
X152000000Y-109070000D02*
X156410000Y-104660000D01*
X158760000Y-101330000D02*
X158760000Y-99830000D01*
X152000000Y-109700000D02*
X152000000Y-109070000D01*
X159180000Y-99410000D02*
X165132208Y-99410000D01*
X172140000Y-95280000D02*
X173280000Y-94140000D01*
X169262208Y-95280000D02*
X172140000Y-95280000D01*
X158760000Y-99830000D02*
X159180000Y-99410000D01*
X157910000Y-102180000D02*
X158760000Y-101330000D01*
%TO.N,INT2*%
X170200000Y-98200000D02*
X156820000Y-111580000D01*
X193400000Y-98200000D02*
X170200000Y-98200000D01*
X156825000Y-111999695D02*
X156825000Y-112982705D01*
X156820000Y-111994695D02*
X156825000Y-111999695D01*
X156825000Y-112982705D02*
X156739866Y-113067839D01*
X194800000Y-96800000D02*
X193400000Y-98200000D01*
X156820000Y-111580000D02*
X156820000Y-111994695D01*
%TO.N,RST2*%
X169980292Y-97743896D02*
X191316104Y-97743896D01*
X156100000Y-111624188D02*
X169980292Y-97743896D01*
X191316104Y-97743896D02*
X194920000Y-94140000D01*
X156100000Y-112300000D02*
X156100000Y-111624188D01*
%TO.N,CS3*%
X169793896Y-97293896D02*
X189226104Y-97293896D01*
X155300000Y-111500000D02*
X155587792Y-111500000D01*
X155587792Y-111500000D02*
X169793896Y-97293896D01*
X189226104Y-97293896D02*
X192380000Y-94140000D01*
%TO.N,INT3*%
X195040000Y-124960000D02*
X195040000Y-123250000D01*
X191520000Y-122030000D02*
X193820000Y-122030000D01*
X190220000Y-120730000D02*
X191520000Y-122030000D01*
X195040000Y-123250000D02*
X193820000Y-122030000D01*
%TO.N,RST3*%
X197580000Y-123690000D02*
X197580000Y-124960000D01*
X193820000Y-119930000D02*
X197580000Y-123690000D01*
X192020000Y-119930000D02*
X193820000Y-119930000D01*
%TO.N,CS4*%
X198520000Y-119130000D02*
X200120000Y-120730000D01*
X196020000Y-119130000D02*
X189820000Y-119130000D01*
X197759500Y-119130000D02*
X198520000Y-119130000D01*
X200120000Y-120730000D02*
X200120000Y-124960000D01*
%TO.N,INT4*%
X167520000Y-129230000D02*
X170520000Y-126230000D01*
X174590000Y-126230000D02*
X175860000Y-124960000D01*
X170520000Y-126230000D02*
X174590000Y-126230000D01*
X165220000Y-129230000D02*
X167520000Y-129230000D01*
%TO.N,RST4*%
X171220000Y-122430000D02*
X177920000Y-122430000D01*
X177920000Y-122430000D02*
X178400000Y-122910000D01*
X178400000Y-122910000D02*
X178400000Y-124960000D01*
%TO.N,INT5*%
X177650000Y-112600000D02*
X193800000Y-112600000D01*
X193800000Y-112600000D02*
X195860000Y-110540000D01*
X176350000Y-113900000D02*
X177650000Y-112600000D01*
X164183172Y-113900000D02*
X176350000Y-113900000D01*
%TO.N,RST5*%
X194685000Y-111026701D02*
X194685000Y-109015000D01*
X193613604Y-112150000D02*
X194710952Y-111052652D01*
X175200000Y-112150000D02*
X193613604Y-112150000D01*
X174250000Y-113100000D02*
X175200000Y-112150000D01*
X195600000Y-108260000D02*
X195860000Y-108000000D01*
X163500000Y-113100000D02*
X174250000Y-113100000D01*
X194685000Y-109015000D02*
X195440000Y-108260000D01*
X195440000Y-108260000D02*
X195600000Y-108260000D01*
X194710952Y-111052652D02*
X194685000Y-111026701D01*
%TO.N,CS6*%
X194235000Y-110892208D02*
X194235000Y-107085000D01*
X164820000Y-112330000D02*
X165450000Y-111700000D01*
X165450000Y-111700000D02*
X193427208Y-111700000D01*
X194235000Y-107085000D02*
X195860000Y-105460000D01*
X193427208Y-111700000D02*
X194235000Y-110892208D01*
%TO.N,Net-(R17-Pad2)*%
X167014622Y-110235378D02*
X184314622Y-110235378D01*
X186120000Y-108430000D02*
X186620000Y-108430000D01*
X184314622Y-110235378D02*
X186120000Y-108430000D01*
%TO.N,CS1*%
X165020000Y-118930000D02*
X177312868Y-118930000D01*
X161890000Y-115800000D02*
X165020000Y-118930000D01*
X177312868Y-118930000D02*
X178112868Y-118130000D01*
X156700000Y-115800000D02*
X161890000Y-115800000D01*
X178112868Y-118130000D02*
X178102500Y-117112500D01*
D24*
%TO.N,VUSB*%
X150620000Y-93530000D02*
X134920000Y-109230000D01*
X151320000Y-93530000D02*
X150620000Y-93530000D01*
D22*
%TO.N,Net-(Q1-G)*%
X156575000Y-96130000D02*
X156575000Y-86025000D01*
%TD*%
%TA.AperFunction,Conductor*%
%TO.N,GND*%
G36*
X191093039Y-126875185D02*
G01*
X191138794Y-126927989D01*
X191150000Y-126979500D01*
X191150000Y-127250000D01*
X191886653Y-127250000D01*
X191953692Y-127269685D01*
X191999447Y-127322489D01*
X192009391Y-127391647D01*
X192005631Y-127408933D01*
X192000000Y-127428111D01*
X192000000Y-127571888D01*
X192005631Y-127591067D01*
X192005630Y-127660936D01*
X191967855Y-127719714D01*
X191904299Y-127748738D01*
X191886653Y-127750000D01*
X191150001Y-127750000D01*
X191150001Y-128149986D01*
X191160494Y-128252697D01*
X191215641Y-128419119D01*
X191215643Y-128419124D01*
X191307684Y-128568345D01*
X191402158Y-128662819D01*
X191435643Y-128724142D01*
X191430659Y-128793834D01*
X191388787Y-128849767D01*
X191323323Y-128874184D01*
X191314477Y-128874500D01*
X183250453Y-128874500D01*
X183183414Y-128854815D01*
X183162772Y-128838181D01*
X182280237Y-127955646D01*
X182246752Y-127894323D01*
X182248142Y-127835876D01*
X182275063Y-127735408D01*
X182295659Y-127500000D01*
X182275063Y-127264592D01*
X182213903Y-127036337D01*
X182211837Y-127031906D01*
X182201344Y-126962829D01*
X182229863Y-126899045D01*
X182288339Y-126860804D01*
X182324218Y-126855500D01*
X191026000Y-126855500D01*
X191093039Y-126875185D01*
G37*
%TD.AperFunction*%
%TA.AperFunction,Conductor*%
G36*
X199960862Y-107905898D02*
G01*
X199967329Y-107911920D01*
X200204769Y-108149359D01*
X200633181Y-108577771D01*
X200666666Y-108639094D01*
X200669500Y-108665452D01*
X200669500Y-120095547D01*
X200649815Y-120162586D01*
X200597011Y-120208341D01*
X200527853Y-120218285D01*
X200464297Y-120189260D01*
X200457819Y-120183228D01*
X199020803Y-118746212D01*
X199010980Y-118733950D01*
X199010759Y-118734134D01*
X199005786Y-118728123D01*
X198955364Y-118680773D01*
X198944919Y-118670328D01*
X198934475Y-118659883D01*
X198928986Y-118655625D01*
X198924561Y-118651847D01*
X198890582Y-118619938D01*
X198890580Y-118619936D01*
X198890577Y-118619935D01*
X198873029Y-118610288D01*
X198856763Y-118599604D01*
X198840933Y-118587325D01*
X198798168Y-118568818D01*
X198792922Y-118566248D01*
X198752093Y-118543803D01*
X198752092Y-118543802D01*
X198732693Y-118538822D01*
X198714281Y-118532518D01*
X198695898Y-118524562D01*
X198695892Y-118524560D01*
X198649874Y-118517272D01*
X198644152Y-118516087D01*
X198599021Y-118504500D01*
X198599019Y-118504500D01*
X198578984Y-118504500D01*
X198559586Y-118502973D01*
X198552162Y-118501797D01*
X198539805Y-118499840D01*
X198539804Y-118499840D01*
X198493416Y-118504225D01*
X198487578Y-118504500D01*
X198463248Y-118504500D01*
X198396209Y-118484815D01*
X198371100Y-118463474D01*
X198365373Y-118457114D01*
X198365369Y-118457110D01*
X198212234Y-118345851D01*
X198212229Y-118345848D01*
X198039307Y-118268857D01*
X198039302Y-118268855D01*
X197893500Y-118237865D01*
X197854146Y-118229500D01*
X197784500Y-118229500D01*
X197717461Y-118209815D01*
X197671706Y-118157011D01*
X197660500Y-118105500D01*
X197660500Y-114553999D01*
X197680185Y-114486960D01*
X197732989Y-114441205D01*
X197784500Y-114429999D01*
X198149999Y-114429999D01*
X198150000Y-114429998D01*
X198150000Y-113692301D01*
X198169685Y-113625262D01*
X198222489Y-113579507D01*
X198291647Y-113569563D01*
X198364237Y-113580000D01*
X198364238Y-113580000D01*
X198435762Y-113580000D01*
X198435763Y-113580000D01*
X198508353Y-113569563D01*
X198577512Y-113579507D01*
X198630315Y-113625262D01*
X198650000Y-113692301D01*
X198649999Y-114429998D01*
X198650000Y-114429999D01*
X199049972Y-114429999D01*
X199049986Y-114429998D01*
X199152697Y-114419505D01*
X199319119Y-114364358D01*
X199319124Y-114364356D01*
X199468345Y-114272315D01*
X199592315Y-114148345D01*
X199684356Y-113999124D01*
X199684358Y-113999119D01*
X199739505Y-113832697D01*
X199739506Y-113832690D01*
X199749999Y-113729986D01*
X199750000Y-113729973D01*
X199750000Y-113330000D01*
X199013347Y-113330000D01*
X198946308Y-113310315D01*
X198900553Y-113257511D01*
X198890609Y-113188353D01*
X198894369Y-113171067D01*
X198896143Y-113165022D01*
X198900000Y-113151889D01*
X198900000Y-113008111D01*
X198894368Y-112988933D01*
X198894370Y-112919064D01*
X198932145Y-112860286D01*
X198995701Y-112831262D01*
X199013347Y-112830000D01*
X199749999Y-112830000D01*
X199749999Y-112430028D01*
X199749998Y-112430013D01*
X199739505Y-112327302D01*
X199684358Y-112160880D01*
X199684356Y-112160875D01*
X199592315Y-112011654D01*
X199468345Y-111887684D01*
X199319124Y-111795643D01*
X199319117Y-111795640D01*
X199310283Y-111792713D01*
X199252839Y-111752939D01*
X199226018Y-111688422D01*
X199238335Y-111619647D01*
X199267682Y-111582432D01*
X199267573Y-111582323D01*
X199268495Y-111581400D01*
X199269588Y-111580015D01*
X199271385Y-111578505D01*
X199271401Y-111578495D01*
X199438495Y-111411401D01*
X199574035Y-111217830D01*
X199673903Y-111003663D01*
X199735063Y-110775408D01*
X199755659Y-110540000D01*
X199735063Y-110304592D01*
X199679164Y-110095972D01*
X199673905Y-110076344D01*
X199673904Y-110076343D01*
X199673903Y-110076337D01*
X199574035Y-109862171D01*
X199539057Y-109812216D01*
X199438494Y-109668597D01*
X199271402Y-109501506D01*
X199271401Y-109501505D01*
X199089641Y-109374235D01*
X199085841Y-109371574D01*
X199042216Y-109316997D01*
X199035024Y-109247498D01*
X199066546Y-109185144D01*
X199085836Y-109168428D01*
X199271401Y-109038495D01*
X199438495Y-108871401D01*
X199574035Y-108677830D01*
X199673903Y-108463663D01*
X199735063Y-108235408D01*
X199755659Y-108000000D01*
X199755659Y-107999611D01*
X199755707Y-107999445D01*
X199756131Y-107994606D01*
X199757103Y-107994691D01*
X199775344Y-107932572D01*
X199828148Y-107886817D01*
X199897306Y-107876873D01*
X199960862Y-107905898D01*
G37*
%TD.AperFunction*%
%TA.AperFunction,Conductor*%
G36*
X195406474Y-97562049D02*
G01*
X195455169Y-97612154D01*
X195469500Y-97670022D01*
X195469499Y-103950554D01*
X195467776Y-103966171D01*
X195468061Y-103966198D01*
X195467326Y-103973964D01*
X195469500Y-104043113D01*
X195469500Y-104072984D01*
X195449815Y-104140023D01*
X195397905Y-104185366D01*
X195182171Y-104285964D01*
X195182169Y-104285965D01*
X194988597Y-104421505D01*
X194821505Y-104588597D01*
X194685965Y-104782169D01*
X194685964Y-104782171D01*
X194586098Y-104996335D01*
X194586094Y-104996344D01*
X194524938Y-105224586D01*
X194524936Y-105224596D01*
X194504341Y-105459999D01*
X194504341Y-105460000D01*
X194524936Y-105695403D01*
X194524938Y-105695413D01*
X194551856Y-105795872D01*
X194550193Y-105865722D01*
X194519762Y-105915646D01*
X193851208Y-106584199D01*
X193838951Y-106594020D01*
X193839134Y-106594241D01*
X193833123Y-106599213D01*
X193785772Y-106649636D01*
X193764889Y-106670518D01*
X193764877Y-106670532D01*
X193760621Y-106676017D01*
X193756837Y-106680447D01*
X193724937Y-106714418D01*
X193724936Y-106714420D01*
X193715284Y-106731976D01*
X193704610Y-106748226D01*
X193692329Y-106764061D01*
X193692324Y-106764068D01*
X193673815Y-106806838D01*
X193671245Y-106812084D01*
X193648803Y-106852906D01*
X193643822Y-106872307D01*
X193637521Y-106890710D01*
X193629562Y-106909102D01*
X193629561Y-106909105D01*
X193622271Y-106955127D01*
X193621087Y-106960846D01*
X193609501Y-107005972D01*
X193609500Y-107005982D01*
X193609500Y-107026016D01*
X193607973Y-107045415D01*
X193604840Y-107065194D01*
X193604840Y-107065195D01*
X193609225Y-107111583D01*
X193609500Y-107117421D01*
X193609500Y-110581755D01*
X193589815Y-110648794D01*
X193573181Y-110669436D01*
X193204436Y-111038181D01*
X193143113Y-111071666D01*
X193116755Y-111074500D01*
X184544425Y-111074500D01*
X184477386Y-111054815D01*
X184431631Y-111002011D01*
X184421687Y-110932853D01*
X184450712Y-110869297D01*
X184498775Y-110835209D01*
X184514737Y-110828889D01*
X184520268Y-110826995D01*
X184524018Y-110825905D01*
X184565012Y-110813996D01*
X184582251Y-110803800D01*
X184599725Y-110795240D01*
X184618349Y-110787866D01*
X184618349Y-110787865D01*
X184618354Y-110787864D01*
X184656071Y-110760460D01*
X184660927Y-110757270D01*
X184701042Y-110733548D01*
X184715211Y-110719377D01*
X184730001Y-110706746D01*
X184746209Y-110694972D01*
X184775921Y-110659054D01*
X184779834Y-110654754D01*
X186143799Y-109290790D01*
X186205120Y-109257307D01*
X186274812Y-109262291D01*
X186281888Y-109265182D01*
X186340197Y-109291144D01*
X186525354Y-109330500D01*
X186525355Y-109330500D01*
X186714644Y-109330500D01*
X186714646Y-109330500D01*
X186899803Y-109291144D01*
X187072730Y-109214151D01*
X187225871Y-109102888D01*
X187352533Y-108962216D01*
X187447179Y-108798284D01*
X187505674Y-108618256D01*
X187525460Y-108430000D01*
X187505674Y-108241744D01*
X187447179Y-108061716D01*
X187352533Y-107897784D01*
X187225871Y-107757112D01*
X187225867Y-107757109D01*
X187072734Y-107645851D01*
X187072729Y-107645848D01*
X186899807Y-107568857D01*
X186899802Y-107568855D01*
X186754001Y-107537865D01*
X186714646Y-107529500D01*
X186525354Y-107529500D01*
X186492897Y-107536398D01*
X186340197Y-107568855D01*
X186340192Y-107568857D01*
X186167270Y-107645848D01*
X186167265Y-107645851D01*
X186014131Y-107757109D01*
X185974733Y-107800864D01*
X185928246Y-107833176D01*
X185919888Y-107836486D01*
X185914353Y-107838382D01*
X185869610Y-107851381D01*
X185852366Y-107861579D01*
X185834905Y-107870133D01*
X185816274Y-107877510D01*
X185816262Y-107877517D01*
X185778570Y-107904902D01*
X185773687Y-107908109D01*
X185733580Y-107931829D01*
X185719414Y-107945995D01*
X185704624Y-107958627D01*
X185688414Y-107970404D01*
X185688411Y-107970407D01*
X185658710Y-108006309D01*
X185654777Y-108010631D01*
X184091850Y-109573559D01*
X184030527Y-109607044D01*
X184004169Y-109609878D01*
X167718370Y-109609878D01*
X167651331Y-109590193D01*
X167626222Y-109568852D01*
X167620495Y-109562492D01*
X167620491Y-109562488D01*
X167467356Y-109451229D01*
X167467351Y-109451226D01*
X167294429Y-109374235D01*
X167294424Y-109374233D01*
X167148622Y-109343243D01*
X167109268Y-109334878D01*
X166919976Y-109334878D01*
X166887519Y-109341776D01*
X166734819Y-109374233D01*
X166734814Y-109374235D01*
X166561892Y-109451226D01*
X166561889Y-109451228D01*
X166516615Y-109484121D01*
X166450808Y-109507599D01*
X166382755Y-109491772D01*
X166334061Y-109441665D01*
X166320187Y-109373187D01*
X166320393Y-109371021D01*
X166329960Y-109280000D01*
X166310174Y-109091744D01*
X166251679Y-108911716D01*
X166157033Y-108747784D01*
X166030371Y-108607112D01*
X166030370Y-108607111D01*
X165877234Y-108495851D01*
X165877229Y-108495848D01*
X165704307Y-108418857D01*
X165704302Y-108418855D01*
X165558500Y-108387865D01*
X165519146Y-108379500D01*
X165329854Y-108379500D01*
X165325452Y-108379500D01*
X165258413Y-108359815D01*
X165237771Y-108343181D01*
X163968283Y-107073692D01*
X163934798Y-107012369D01*
X163932644Y-106998984D01*
X163916171Y-106842241D01*
X163857676Y-106662213D01*
X163763030Y-106498281D01*
X163680521Y-106406646D01*
X163650292Y-106343656D01*
X163658917Y-106274321D01*
X163684988Y-106235997D01*
X164402741Y-105518244D01*
X164464062Y-105484761D01*
X164533754Y-105489745D01*
X164540824Y-105492634D01*
X164694697Y-105561144D01*
X164879854Y-105600500D01*
X164879855Y-105600500D01*
X165069144Y-105600500D01*
X165069146Y-105600500D01*
X165254303Y-105561144D01*
X165427230Y-105484151D01*
X165580371Y-105372888D01*
X165707033Y-105232216D01*
X165801679Y-105068284D01*
X165860174Y-104888256D01*
X165879960Y-104700000D01*
X165860174Y-104511744D01*
X165801679Y-104331716D01*
X165707033Y-104167784D01*
X165580371Y-104027112D01*
X165510810Y-103976573D01*
X165474898Y-103930000D01*
X180314540Y-103930000D01*
X180334326Y-104118256D01*
X180334327Y-104118259D01*
X180392818Y-104298277D01*
X180392821Y-104298284D01*
X180487467Y-104462216D01*
X180547240Y-104528600D01*
X180614129Y-104602888D01*
X180767265Y-104714148D01*
X180767270Y-104714151D01*
X180940192Y-104791142D01*
X180940197Y-104791144D01*
X181125354Y-104830500D01*
X181125355Y-104830500D01*
X181314644Y-104830500D01*
X181314646Y-104830500D01*
X181499803Y-104791144D01*
X181672730Y-104714151D01*
X181708085Y-104688464D01*
X181755271Y-104654182D01*
X181821077Y-104630702D01*
X181828156Y-104630500D01*
X192711844Y-104630500D01*
X192778883Y-104650185D01*
X192784729Y-104654182D01*
X192867265Y-104714148D01*
X192867270Y-104714151D01*
X193040192Y-104791142D01*
X193040197Y-104791144D01*
X193225354Y-104830500D01*
X193225355Y-104830500D01*
X193414644Y-104830500D01*
X193414646Y-104830500D01*
X193599803Y-104791144D01*
X193772730Y-104714151D01*
X193925871Y-104602888D01*
X194052533Y-104462216D01*
X194147179Y-104298284D01*
X194205674Y-104118256D01*
X194225460Y-103930000D01*
X194205674Y-103741744D01*
X194147179Y-103561716D01*
X194052533Y-103397784D01*
X193925871Y-103257112D01*
X193921717Y-103254094D01*
X193772734Y-103145851D01*
X193772729Y-103145848D01*
X193599807Y-103068857D01*
X193599802Y-103068855D01*
X193454001Y-103037865D01*
X193414646Y-103029500D01*
X193225354Y-103029500D01*
X193192897Y-103036398D01*
X193040197Y-103068855D01*
X193040192Y-103068857D01*
X192867270Y-103145848D01*
X192867265Y-103145851D01*
X192784729Y-103205818D01*
X192718923Y-103229298D01*
X192711844Y-103229500D01*
X181828156Y-103229500D01*
X181761117Y-103209815D01*
X181755271Y-103205818D01*
X181672734Y-103145851D01*
X181672729Y-103145848D01*
X181499807Y-103068857D01*
X181499802Y-103068855D01*
X181354000Y-103037865D01*
X181314646Y-103029500D01*
X181125354Y-103029500D01*
X181092897Y-103036398D01*
X180940197Y-103068855D01*
X180940192Y-103068857D01*
X180767270Y-103145848D01*
X180767265Y-103145851D01*
X180614129Y-103257111D01*
X180487466Y-103397785D01*
X180392821Y-103561715D01*
X180392818Y-103561722D01*
X180334327Y-103741740D01*
X180334326Y-103741744D01*
X180314540Y-103930000D01*
X165474898Y-103930000D01*
X165468145Y-103921243D01*
X165462166Y-103851629D01*
X165494772Y-103789834D01*
X165495941Y-103788648D01*
X168150047Y-101134542D01*
X168211368Y-101101059D01*
X168281060Y-101106043D01*
X168336993Y-101147915D01*
X168355657Y-101183907D01*
X168392818Y-101298277D01*
X168392821Y-101298284D01*
X168487467Y-101462216D01*
X168609977Y-101598277D01*
X168614129Y-101602888D01*
X168767265Y-101714148D01*
X168767270Y-101714151D01*
X168940192Y-101791142D01*
X168940197Y-101791144D01*
X169125354Y-101830500D01*
X169125355Y-101830500D01*
X169314644Y-101830500D01*
X169314646Y-101830500D01*
X169499803Y-101791144D01*
X169672730Y-101714151D01*
X169825871Y-101602888D01*
X169952533Y-101462216D01*
X170047179Y-101298284D01*
X170105674Y-101118256D01*
X170110864Y-101068869D01*
X170137447Y-101004258D01*
X170146484Y-100994171D01*
X170361540Y-100779115D01*
X170422862Y-100745633D01*
X170449220Y-100742799D01*
X180099545Y-100742799D01*
X180166584Y-100762484D01*
X180172430Y-100766481D01*
X180254966Y-100826447D01*
X180254971Y-100826450D01*
X180427893Y-100903441D01*
X180427898Y-100903443D01*
X180613055Y-100942799D01*
X180613056Y-100942799D01*
X180802345Y-100942799D01*
X180802347Y-100942799D01*
X180987504Y-100903443D01*
X181160431Y-100826450D01*
X181313572Y-100715187D01*
X181316489Y-100711946D01*
X181319301Y-100708825D01*
X181378788Y-100672178D01*
X181411449Y-100667799D01*
X182621847Y-100667799D01*
X182688886Y-100687484D01*
X182709528Y-100704118D01*
X183084213Y-101078803D01*
X183117698Y-101140126D01*
X183119853Y-101179444D01*
X183119384Y-101183907D01*
X183114540Y-101230000D01*
X183134326Y-101418256D01*
X183134327Y-101418259D01*
X183192818Y-101598277D01*
X183192821Y-101598284D01*
X183287467Y-101762216D01*
X183369655Y-101853495D01*
X183414129Y-101902888D01*
X183567265Y-102014148D01*
X183567270Y-102014151D01*
X183740192Y-102091142D01*
X183740197Y-102091144D01*
X183925354Y-102130500D01*
X183925355Y-102130500D01*
X184114644Y-102130500D01*
X184114646Y-102130500D01*
X184299803Y-102091144D01*
X184472730Y-102014151D01*
X184625871Y-101902888D01*
X184752533Y-101762216D01*
X184847179Y-101598284D01*
X184905674Y-101418256D01*
X184925460Y-101230000D01*
X184905674Y-101041744D01*
X184847179Y-100861716D01*
X184752533Y-100697784D01*
X184625871Y-100557112D01*
X184623032Y-100555049D01*
X184472734Y-100445851D01*
X184472729Y-100445848D01*
X184299807Y-100368857D01*
X184299802Y-100368855D01*
X184137169Y-100334287D01*
X184075687Y-100301095D01*
X184075269Y-100300678D01*
X183433102Y-99658511D01*
X183423279Y-99646249D01*
X183423058Y-99646433D01*
X183418085Y-99640422D01*
X183400494Y-99623903D01*
X183367663Y-99593072D01*
X183353408Y-99578817D01*
X183346774Y-99572182D01*
X183341285Y-99567924D01*
X183336860Y-99564146D01*
X183302881Y-99532237D01*
X183302879Y-99532235D01*
X183302876Y-99532234D01*
X183285328Y-99522587D01*
X183269062Y-99511903D01*
X183253232Y-99499624D01*
X183210467Y-99481117D01*
X183205221Y-99478547D01*
X183164392Y-99456102D01*
X183164391Y-99456101D01*
X183144992Y-99451121D01*
X183126580Y-99444817D01*
X183108197Y-99436861D01*
X183108191Y-99436859D01*
X183062173Y-99429571D01*
X183056451Y-99428386D01*
X183011320Y-99416799D01*
X183011318Y-99416799D01*
X182991283Y-99416799D01*
X182971885Y-99415272D01*
X182964461Y-99414096D01*
X182952104Y-99412139D01*
X182952103Y-99412139D01*
X182905715Y-99416524D01*
X182899877Y-99416799D01*
X181411449Y-99416799D01*
X181344410Y-99397114D01*
X181319301Y-99375773D01*
X181313574Y-99369413D01*
X181313570Y-99369409D01*
X181160435Y-99258150D01*
X181160430Y-99258147D01*
X180987508Y-99181156D01*
X180987503Y-99181154D01*
X180841702Y-99150164D01*
X180802347Y-99141799D01*
X180613055Y-99141799D01*
X180580598Y-99148697D01*
X180427898Y-99181154D01*
X180427893Y-99181156D01*
X180254971Y-99258147D01*
X180254966Y-99258150D01*
X180172430Y-99318117D01*
X180106624Y-99341597D01*
X180099545Y-99341799D01*
X170242153Y-99341799D01*
X170175114Y-99322114D01*
X170129359Y-99269310D01*
X170119415Y-99200152D01*
X170148440Y-99136596D01*
X170154472Y-99130118D01*
X170263618Y-99020973D01*
X170422771Y-98861819D01*
X170484095Y-98828334D01*
X170510453Y-98825500D01*
X193317257Y-98825500D01*
X193332877Y-98827224D01*
X193332904Y-98826939D01*
X193340660Y-98827671D01*
X193340667Y-98827673D01*
X193409814Y-98825500D01*
X193439350Y-98825500D01*
X193446228Y-98824630D01*
X193452041Y-98824172D01*
X193498627Y-98822709D01*
X193517869Y-98817117D01*
X193536912Y-98813174D01*
X193556792Y-98810664D01*
X193600122Y-98793507D01*
X193605646Y-98791617D01*
X193609396Y-98790527D01*
X193650390Y-98778618D01*
X193667629Y-98768422D01*
X193685103Y-98759862D01*
X193703727Y-98752488D01*
X193703727Y-98752487D01*
X193703732Y-98752486D01*
X193741449Y-98725082D01*
X193746305Y-98721892D01*
X193786420Y-98698170D01*
X193800589Y-98683999D01*
X193815379Y-98671368D01*
X193831587Y-98659594D01*
X193861299Y-98623676D01*
X193865212Y-98619376D01*
X194747771Y-97736819D01*
X194809095Y-97703334D01*
X194835453Y-97700500D01*
X194894644Y-97700500D01*
X194894646Y-97700500D01*
X195079803Y-97661144D01*
X195252730Y-97584151D01*
X195272615Y-97569703D01*
X195338420Y-97546224D01*
X195406474Y-97562049D01*
G37*
%TD.AperFunction*%
%TA.AperFunction,Conductor*%
G36*
X198814855Y-94806546D02*
G01*
X198831575Y-94825842D01*
X198961500Y-95011395D01*
X198961505Y-95011401D01*
X199128599Y-95178495D01*
X199217056Y-95240433D01*
X199322165Y-95314032D01*
X199322167Y-95314033D01*
X199322170Y-95314035D01*
X199536337Y-95413903D01*
X199764592Y-95475063D01*
X199952918Y-95491539D01*
X199999999Y-95495659D01*
X200000000Y-95495659D01*
X200000001Y-95495659D01*
X200039234Y-95492226D01*
X200235408Y-95475063D01*
X200463663Y-95413903D01*
X200677830Y-95314035D01*
X200871401Y-95178495D01*
X200962822Y-95087073D01*
X201024141Y-95053591D01*
X201093833Y-95058575D01*
X201149767Y-95100446D01*
X201174184Y-95165910D01*
X201174500Y-95174757D01*
X201174500Y-101749545D01*
X201154815Y-101816584D01*
X201138181Y-101837226D01*
X198855646Y-104119761D01*
X198794323Y-104153246D01*
X198735873Y-104151855D01*
X198635408Y-104124937D01*
X198400001Y-104104341D01*
X198399999Y-104104341D01*
X198164596Y-104124936D01*
X198164586Y-104124938D01*
X197936344Y-104186094D01*
X197936335Y-104186098D01*
X197722171Y-104285964D01*
X197722169Y-104285965D01*
X197528594Y-104421508D01*
X197528190Y-104421847D01*
X197527976Y-104421940D01*
X197524164Y-104424610D01*
X197523627Y-104423843D01*
X197464178Y-104449850D01*
X197395187Y-104438800D01*
X197360818Y-104414526D01*
X196756819Y-103810526D01*
X196723334Y-103749203D01*
X196720500Y-103722845D01*
X196720500Y-95479918D01*
X196740185Y-95412879D01*
X196792989Y-95367124D01*
X196862147Y-95357180D01*
X196896899Y-95367534D01*
X196996337Y-95413903D01*
X197224592Y-95475063D01*
X197412918Y-95491539D01*
X197459999Y-95495659D01*
X197460000Y-95495659D01*
X197460001Y-95495659D01*
X197499234Y-95492226D01*
X197695408Y-95475063D01*
X197923663Y-95413903D01*
X198137830Y-95314035D01*
X198331401Y-95178495D01*
X198498495Y-95011401D01*
X198628424Y-94825842D01*
X198683002Y-94782217D01*
X198752500Y-94775023D01*
X198814855Y-94806546D01*
G37*
%TD.AperFunction*%
%TA.AperFunction,Conductor*%
G36*
X172259579Y-90497886D02*
G01*
X172305334Y-90550690D01*
X172315278Y-90619848D01*
X172286253Y-90683404D01*
X172280221Y-90689882D01*
X172241505Y-90728597D01*
X172105965Y-90922169D01*
X172105964Y-90922171D01*
X172006098Y-91136335D01*
X172006094Y-91136344D01*
X171944938Y-91364586D01*
X171944936Y-91364596D01*
X171924341Y-91599999D01*
X171924341Y-91600000D01*
X171944936Y-91835403D01*
X171944938Y-91835413D01*
X172006094Y-92063655D01*
X172006096Y-92063659D01*
X172006097Y-92063663D01*
X172085381Y-92233688D01*
X172105965Y-92277830D01*
X172105967Y-92277834D01*
X172203447Y-92417050D01*
X172225774Y-92483256D01*
X172208764Y-92551023D01*
X172189553Y-92575854D01*
X170597228Y-94168181D01*
X170535905Y-94201666D01*
X170509547Y-94204500D01*
X169158555Y-94204500D01*
X169142934Y-94202775D01*
X169142908Y-94203061D01*
X169135146Y-94202327D01*
X169135145Y-94202327D01*
X169065998Y-94204500D01*
X169036461Y-94204500D01*
X169029578Y-94205369D01*
X169023761Y-94205826D01*
X168977185Y-94207290D01*
X168957941Y-94212881D01*
X168938891Y-94216825D01*
X168919023Y-94219334D01*
X168875696Y-94236488D01*
X168870170Y-94238379D01*
X168825426Y-94251379D01*
X168825422Y-94251381D01*
X168808178Y-94261579D01*
X168790717Y-94270133D01*
X168772086Y-94277510D01*
X168772074Y-94277517D01*
X168734382Y-94304902D01*
X168729499Y-94308109D01*
X168689392Y-94331829D01*
X168675226Y-94345995D01*
X168660436Y-94358627D01*
X168644226Y-94370404D01*
X168644223Y-94370407D01*
X168614522Y-94406309D01*
X168610589Y-94410631D01*
X164723040Y-98298181D01*
X164661717Y-98331666D01*
X164635359Y-98334500D01*
X159007738Y-98334500D01*
X158992121Y-98332776D01*
X158992094Y-98333062D01*
X158984332Y-98332327D01*
X158915204Y-98334500D01*
X158885650Y-98334500D01*
X158884929Y-98334590D01*
X158878757Y-98335369D01*
X158872945Y-98335826D01*
X158826373Y-98337290D01*
X158826372Y-98337290D01*
X158807129Y-98342881D01*
X158788079Y-98346825D01*
X158768211Y-98349334D01*
X158768209Y-98349335D01*
X158724884Y-98366488D01*
X158719357Y-98368380D01*
X158674610Y-98381381D01*
X158674609Y-98381382D01*
X158657367Y-98391579D01*
X158639899Y-98400137D01*
X158621269Y-98407513D01*
X158621267Y-98407514D01*
X158583576Y-98434898D01*
X158578694Y-98438105D01*
X158538579Y-98461830D01*
X158524408Y-98476000D01*
X158509623Y-98488628D01*
X158493412Y-98500407D01*
X158463709Y-98536310D01*
X158459777Y-98540631D01*
X157568768Y-99431639D01*
X157507445Y-99465124D01*
X157491895Y-99467486D01*
X157349582Y-99479937D01*
X157348129Y-99480194D01*
X157347481Y-99480121D01*
X157344199Y-99480409D01*
X157344141Y-99479748D01*
X157278691Y-99472440D01*
X157224468Y-99428376D01*
X157202676Y-99361992D01*
X157203290Y-99345142D01*
X157203318Y-99344873D01*
X157229887Y-99280254D01*
X157238952Y-99270136D01*
X165994569Y-90514520D01*
X166055893Y-90481035D01*
X166082251Y-90478201D01*
X172192540Y-90478201D01*
X172259579Y-90497886D01*
G37*
%TD.AperFunction*%
%TA.AperFunction,Conductor*%
G36*
X190236587Y-90345185D02*
G01*
X190257229Y-90361819D01*
X191039762Y-91144352D01*
X191073247Y-91205675D01*
X191071856Y-91264126D01*
X191044938Y-91364586D01*
X191044936Y-91364596D01*
X191024341Y-91599999D01*
X191024341Y-91600000D01*
X191044936Y-91835403D01*
X191044938Y-91835413D01*
X191106094Y-92063655D01*
X191106096Y-92063659D01*
X191106097Y-92063663D01*
X191185381Y-92233688D01*
X191205965Y-92277830D01*
X191205967Y-92277834D01*
X191303448Y-92417050D01*
X191341501Y-92471396D01*
X191341506Y-92471402D01*
X191508597Y-92638493D01*
X191508603Y-92638498D01*
X191694158Y-92768425D01*
X191737783Y-92823002D01*
X191744977Y-92892500D01*
X191713454Y-92954855D01*
X191694158Y-92971575D01*
X191508597Y-93101505D01*
X191341505Y-93268597D01*
X191205965Y-93462169D01*
X191205964Y-93462171D01*
X191106098Y-93676335D01*
X191106094Y-93676344D01*
X191044938Y-93904586D01*
X191044936Y-93904596D01*
X191024341Y-94139999D01*
X191024341Y-94140000D01*
X191044937Y-94375408D01*
X191071855Y-94475873D01*
X191070192Y-94545723D01*
X191039761Y-94595646D01*
X189003332Y-96632077D01*
X188942009Y-96665562D01*
X188915651Y-96668396D01*
X177015556Y-96668396D01*
X176948517Y-96648711D01*
X176902762Y-96595907D01*
X176892818Y-96526749D01*
X176921843Y-96463193D01*
X176927875Y-96456715D01*
X177135090Y-96249500D01*
X177904353Y-95480235D01*
X177965674Y-95446752D01*
X178024125Y-95448143D01*
X178058780Y-95457428D01*
X178124592Y-95475063D01*
X178312918Y-95491539D01*
X178359999Y-95495659D01*
X178360000Y-95495659D01*
X178360001Y-95495659D01*
X178399234Y-95492226D01*
X178595408Y-95475063D01*
X178823663Y-95413903D01*
X179037830Y-95314035D01*
X179231401Y-95178495D01*
X179398495Y-95011401D01*
X179528424Y-94825842D01*
X179583002Y-94782217D01*
X179652500Y-94775023D01*
X179714855Y-94806546D01*
X179731575Y-94825842D01*
X179861500Y-95011395D01*
X179861505Y-95011401D01*
X180028599Y-95178495D01*
X180117056Y-95240433D01*
X180222165Y-95314032D01*
X180222167Y-95314033D01*
X180222170Y-95314035D01*
X180436337Y-95413903D01*
X180664592Y-95475063D01*
X180852918Y-95491539D01*
X180899999Y-95495659D01*
X180900000Y-95495659D01*
X180900001Y-95495659D01*
X180939234Y-95492226D01*
X181135408Y-95475063D01*
X181363663Y-95413903D01*
X181577830Y-95314035D01*
X181771401Y-95178495D01*
X181938495Y-95011401D01*
X182074035Y-94817830D01*
X182173903Y-94603663D01*
X182235063Y-94375408D01*
X182255659Y-94140000D01*
X182235063Y-93904592D01*
X182173903Y-93676337D01*
X182074035Y-93462171D01*
X182068425Y-93454158D01*
X181938494Y-93268597D01*
X181771401Y-93101505D01*
X181769579Y-93099976D01*
X181768996Y-93099100D01*
X181767573Y-93097677D01*
X181767859Y-93097390D01*
X181730880Y-93041802D01*
X181729776Y-92971941D01*
X181766616Y-92912573D01*
X181810289Y-92887284D01*
X181819120Y-92884357D01*
X181819124Y-92884356D01*
X181968345Y-92792315D01*
X182092315Y-92668345D01*
X182184356Y-92519124D01*
X182184358Y-92519119D01*
X182239506Y-92352694D01*
X182239506Y-92352690D01*
X182249999Y-92249986D01*
X182250000Y-92249973D01*
X182250000Y-91850000D01*
X181513347Y-91850000D01*
X181446308Y-91830315D01*
X181400553Y-91777511D01*
X181390609Y-91708353D01*
X181394369Y-91691067D01*
X181400000Y-91671888D01*
X181400000Y-91528111D01*
X181394369Y-91508933D01*
X181394370Y-91439064D01*
X181432145Y-91380286D01*
X181495701Y-91351262D01*
X181513347Y-91350000D01*
X182249999Y-91350000D01*
X182249999Y-90950028D01*
X182249998Y-90950013D01*
X182239505Y-90847302D01*
X182184358Y-90680880D01*
X182184356Y-90680875D01*
X182092315Y-90531654D01*
X182088168Y-90526409D01*
X182062029Y-90461613D01*
X182075071Y-90392971D01*
X182123153Y-90342277D01*
X182185436Y-90325500D01*
X190169548Y-90325500D01*
X190236587Y-90345185D01*
G37*
%TD.AperFunction*%
%TA.AperFunction,Conductor*%
G36*
X138213594Y-89895364D02*
G01*
X138269528Y-89937235D01*
X138280742Y-89955246D01*
X138284941Y-89963486D01*
X138292358Y-89978044D01*
X138292363Y-89978050D01*
X138381949Y-90067636D01*
X138381951Y-90067637D01*
X138381955Y-90067641D01*
X138404747Y-90079254D01*
X138455542Y-90127228D01*
X138472337Y-90195049D01*
X138449799Y-90261184D01*
X138436132Y-90277419D01*
X137889351Y-90824200D01*
X137879505Y-90873194D01*
X137830889Y-90923376D01*
X137775367Y-90938048D01*
X137775423Y-90939099D01*
X137775429Y-90939146D01*
X137775426Y-90939146D01*
X137775436Y-90939324D01*
X137772123Y-90939501D01*
X137712516Y-90945908D01*
X137577671Y-90996202D01*
X137577665Y-90996206D01*
X137568810Y-91002835D01*
X137503346Y-91027252D01*
X137435073Y-91012400D01*
X137385668Y-90962995D01*
X137370500Y-90903568D01*
X137370500Y-90585879D01*
X137390185Y-90518840D01*
X137442989Y-90473085D01*
X137505309Y-90462351D01*
X137540974Y-90465471D01*
X138082580Y-89923865D01*
X138143903Y-89890380D01*
X138213594Y-89895364D01*
G37*
%TD.AperFunction*%
%TA.AperFunction,Conductor*%
G36*
X206543039Y-84419685D02*
G01*
X206588794Y-84472489D01*
X206600000Y-84524000D01*
X206600000Y-134476000D01*
X206580315Y-134543039D01*
X206527511Y-134588794D01*
X206476000Y-134600000D01*
X122024000Y-134600000D01*
X121956961Y-134580315D01*
X121911206Y-134527511D01*
X121900000Y-134476000D01*
X121900000Y-119430000D01*
X141014540Y-119430000D01*
X141034326Y-119618256D01*
X141034327Y-119618259D01*
X141092818Y-119798277D01*
X141092821Y-119798284D01*
X141187467Y-119962216D01*
X141290098Y-120076199D01*
X141314129Y-120102888D01*
X141467265Y-120214148D01*
X141467270Y-120214151D01*
X141640192Y-120291142D01*
X141640197Y-120291144D01*
X141825354Y-120330500D01*
X141825355Y-120330500D01*
X142014644Y-120330500D01*
X142014646Y-120330500D01*
X142199803Y-120291144D01*
X142372730Y-120214151D01*
X142525871Y-120102888D01*
X142528788Y-120099647D01*
X142531600Y-120096526D01*
X142591087Y-120059879D01*
X142623748Y-120055500D01*
X147037257Y-120055500D01*
X147052877Y-120057224D01*
X147052904Y-120056939D01*
X147060660Y-120057671D01*
X147060667Y-120057673D01*
X147129814Y-120055500D01*
X147159350Y-120055500D01*
X147166228Y-120054630D01*
X147172041Y-120054172D01*
X147218627Y-120052709D01*
X147237869Y-120047117D01*
X147256912Y-120043174D01*
X147276792Y-120040664D01*
X147320122Y-120023507D01*
X147325646Y-120021617D01*
X147337297Y-120018232D01*
X147370390Y-120008618D01*
X147387629Y-119998422D01*
X147405103Y-119989862D01*
X147423727Y-119982488D01*
X147423727Y-119982487D01*
X147423732Y-119982486D01*
X147461449Y-119955082D01*
X147466305Y-119951892D01*
X147506420Y-119928170D01*
X147520589Y-119913999D01*
X147535379Y-119901368D01*
X147551587Y-119889594D01*
X147581299Y-119853676D01*
X147585212Y-119849376D01*
X149283787Y-118150801D01*
X149296042Y-118140986D01*
X149295859Y-118140764D01*
X149301866Y-118135792D01*
X149301877Y-118135786D01*
X149332775Y-118102882D01*
X149349227Y-118085364D01*
X149370113Y-118064478D01*
X149370113Y-118064477D01*
X149370120Y-118064471D01*
X149374388Y-118058967D01*
X149378154Y-118054559D01*
X149390113Y-118041824D01*
X149450356Y-118006434D01*
X149520170Y-118009231D01*
X149577388Y-118049328D01*
X149603846Y-118113994D01*
X149604500Y-118126714D01*
X149604500Y-122009547D01*
X149584815Y-122076586D01*
X149568181Y-122097228D01*
X146397228Y-125268181D01*
X146335905Y-125301666D01*
X146309547Y-125304500D01*
X145123748Y-125304500D01*
X145056709Y-125284815D01*
X145031600Y-125263474D01*
X145025873Y-125257114D01*
X145025869Y-125257110D01*
X144872734Y-125145851D01*
X144872729Y-125145848D01*
X144699807Y-125068857D01*
X144699802Y-125068855D01*
X144554001Y-125037865D01*
X144514646Y-125029500D01*
X144325354Y-125029500D01*
X144292897Y-125036398D01*
X144140197Y-125068855D01*
X144140192Y-125068857D01*
X143967270Y-125145848D01*
X143967265Y-125145851D01*
X143814129Y-125257111D01*
X143687466Y-125397785D01*
X143592821Y-125561715D01*
X143592818Y-125561722D01*
X143537547Y-125731830D01*
X143534326Y-125741744D01*
X143514540Y-125930000D01*
X143534326Y-126118256D01*
X143534327Y-126118259D01*
X143592818Y-126298277D01*
X143592821Y-126298284D01*
X143687467Y-126462216D01*
X143808401Y-126596526D01*
X143814129Y-126602888D01*
X143967265Y-126714148D01*
X143967270Y-126714151D01*
X144140192Y-126791142D01*
X144140197Y-126791144D01*
X144325354Y-126830500D01*
X144325355Y-126830500D01*
X144514644Y-126830500D01*
X144514646Y-126830500D01*
X144699803Y-126791144D01*
X144872730Y-126714151D01*
X145025871Y-126602888D01*
X145030341Y-126597924D01*
X145031600Y-126596526D01*
X145091087Y-126559879D01*
X145123748Y-126555500D01*
X146537257Y-126555500D01*
X146552877Y-126557224D01*
X146552904Y-126556939D01*
X146560660Y-126557671D01*
X146560667Y-126557673D01*
X146629814Y-126555500D01*
X146659350Y-126555500D01*
X146666228Y-126554630D01*
X146672041Y-126554172D01*
X146718627Y-126552709D01*
X146737869Y-126547117D01*
X146756912Y-126543174D01*
X146776792Y-126540664D01*
X146820122Y-126523507D01*
X146825646Y-126521617D01*
X146833690Y-126519280D01*
X146870390Y-126508618D01*
X146887629Y-126498422D01*
X146905103Y-126489862D01*
X146923727Y-126482488D01*
X146923727Y-126482487D01*
X146923732Y-126482486D01*
X146961449Y-126455082D01*
X146966305Y-126451892D01*
X147006420Y-126428170D01*
X147020589Y-126413999D01*
X147035379Y-126401368D01*
X147051587Y-126389594D01*
X147081299Y-126353676D01*
X147085212Y-126349376D01*
X150613788Y-122820801D01*
X150626042Y-122810986D01*
X150625859Y-122810764D01*
X150631866Y-122805792D01*
X150631877Y-122805786D01*
X150670351Y-122764815D01*
X150679227Y-122755364D01*
X150689671Y-122744918D01*
X150700120Y-122734471D01*
X150704379Y-122728978D01*
X150708152Y-122724561D01*
X150740062Y-122690582D01*
X150749715Y-122673020D01*
X150760389Y-122656770D01*
X150772673Y-122640936D01*
X150791180Y-122598167D01*
X150793749Y-122592924D01*
X150807134Y-122568577D01*
X150816197Y-122552092D01*
X150821177Y-122532691D01*
X150827478Y-122514288D01*
X150835438Y-122495896D01*
X150842730Y-122449849D01*
X150843911Y-122444152D01*
X150847064Y-122431873D01*
X150855500Y-122399019D01*
X150855500Y-122378982D01*
X150857027Y-122359582D01*
X150860160Y-122339804D01*
X150855775Y-122293415D01*
X150855500Y-122287577D01*
X150855500Y-115800000D01*
X155794540Y-115800000D01*
X155814326Y-115988256D01*
X155814327Y-115988259D01*
X155872818Y-116168277D01*
X155872821Y-116168284D01*
X155967467Y-116332216D01*
X156064166Y-116439611D01*
X156094129Y-116472888D01*
X156247265Y-116584148D01*
X156247270Y-116584151D01*
X156420192Y-116661142D01*
X156420197Y-116661144D01*
X156605354Y-116700500D01*
X156605355Y-116700500D01*
X156794644Y-116700500D01*
X156794646Y-116700500D01*
X156979803Y-116661144D01*
X157152730Y-116584151D01*
X157305871Y-116472888D01*
X157308788Y-116469647D01*
X157311600Y-116466526D01*
X157371087Y-116429879D01*
X157403748Y-116425500D01*
X161579548Y-116425500D01*
X161646587Y-116445185D01*
X161667228Y-116461818D01*
X163094083Y-117888674D01*
X164519197Y-119313788D01*
X164529022Y-119326051D01*
X164529243Y-119325869D01*
X164534214Y-119331878D01*
X164555043Y-119351437D01*
X164584635Y-119379226D01*
X164605529Y-119400120D01*
X164611011Y-119404373D01*
X164615443Y-119408157D01*
X164649418Y-119440062D01*
X164666976Y-119449714D01*
X164683235Y-119460395D01*
X164699064Y-119472673D01*
X164741838Y-119491182D01*
X164747056Y-119493738D01*
X164787908Y-119516197D01*
X164807316Y-119521180D01*
X164825717Y-119527480D01*
X164844104Y-119535437D01*
X164887488Y-119542308D01*
X164890119Y-119542725D01*
X164895839Y-119543909D01*
X164940981Y-119555500D01*
X164961016Y-119555500D01*
X164980414Y-119557026D01*
X165000194Y-119560159D01*
X165000195Y-119560160D01*
X165000195Y-119560159D01*
X165000196Y-119560160D01*
X165046583Y-119555775D01*
X165052422Y-119555500D01*
X177230125Y-119555500D01*
X177245745Y-119557224D01*
X177245772Y-119556939D01*
X177253528Y-119557671D01*
X177253535Y-119557673D01*
X177322682Y-119555500D01*
X177352218Y-119555500D01*
X177359096Y-119554630D01*
X177364909Y-119554172D01*
X177411495Y-119552709D01*
X177430737Y-119547117D01*
X177449780Y-119543174D01*
X177469660Y-119540664D01*
X177512990Y-119523507D01*
X177518514Y-119521617D01*
X177522264Y-119520527D01*
X177563258Y-119508618D01*
X177580497Y-119498422D01*
X177597971Y-119489862D01*
X177616595Y-119482488D01*
X177616595Y-119482487D01*
X177616600Y-119482486D01*
X177654317Y-119455082D01*
X177659173Y-119451892D01*
X177699288Y-119428170D01*
X177713457Y-119413999D01*
X177728247Y-119401368D01*
X177744455Y-119389594D01*
X177774167Y-119353676D01*
X177778080Y-119349376D01*
X178499393Y-118628064D01*
X178519574Y-118611730D01*
X178519674Y-118611666D01*
X178564352Y-118563106D01*
X178582988Y-118544471D01*
X178589393Y-118536212D01*
X178592745Y-118532246D01*
X178626679Y-118495366D01*
X178634333Y-118481099D01*
X178645621Y-118463723D01*
X178655541Y-118450936D01*
X178675451Y-118404926D01*
X178677715Y-118400247D01*
X178701399Y-118356107D01*
X178705264Y-118340391D01*
X178711874Y-118320756D01*
X178718306Y-118305896D01*
X178726145Y-118256395D01*
X178727176Y-118251292D01*
X178732308Y-118230425D01*
X178739141Y-118202642D01*
X178738975Y-118186438D01*
X178740496Y-118165787D01*
X178743028Y-118149804D01*
X178738309Y-118099902D01*
X178738040Y-118094746D01*
X178735084Y-117804586D01*
X178754085Y-117737352D01*
X178766929Y-117720352D01*
X178812443Y-117669804D01*
X178835033Y-117644716D01*
X178929679Y-117480784D01*
X178988174Y-117300756D01*
X179007960Y-117112500D01*
X178988174Y-116924244D01*
X178929679Y-116744216D01*
X178835033Y-116580284D01*
X178708371Y-116439612D01*
X178694975Y-116429879D01*
X178555234Y-116328351D01*
X178555229Y-116328348D01*
X178382307Y-116251357D01*
X178382302Y-116251355D01*
X178236501Y-116220365D01*
X178197146Y-116212000D01*
X178007854Y-116212000D01*
X177975397Y-116218898D01*
X177822697Y-116251355D01*
X177822692Y-116251357D01*
X177649770Y-116328348D01*
X177649765Y-116328351D01*
X177496629Y-116439611D01*
X177369966Y-116580285D01*
X177275321Y-116744215D01*
X177275318Y-116744222D01*
X177216827Y-116924240D01*
X177216826Y-116924244D01*
X177197040Y-117112500D01*
X177216826Y-117300756D01*
X177216827Y-117300759D01*
X177275318Y-117480777D01*
X177275321Y-117480784D01*
X177369967Y-117644716D01*
X177427836Y-117708986D01*
X177452310Y-117736167D01*
X177482540Y-117799158D01*
X177484153Y-117817857D01*
X177484190Y-117821435D01*
X177465200Y-117888674D01*
X177447878Y-117910398D01*
X177090096Y-118268181D01*
X177028773Y-118301666D01*
X177002415Y-118304500D01*
X165330453Y-118304500D01*
X165263414Y-118284815D01*
X165242772Y-118268181D01*
X162390803Y-115416212D01*
X162380980Y-115403950D01*
X162380759Y-115404134D01*
X162375786Y-115398123D01*
X162368480Y-115391262D01*
X162325364Y-115350773D01*
X162314919Y-115340328D01*
X162304475Y-115329883D01*
X162298986Y-115325625D01*
X162294561Y-115321847D01*
X162260582Y-115289938D01*
X162260580Y-115289936D01*
X162260577Y-115289935D01*
X162243029Y-115280288D01*
X162226763Y-115269604D01*
X162210933Y-115257325D01*
X162168168Y-115238818D01*
X162162922Y-115236248D01*
X162122093Y-115213803D01*
X162122092Y-115213802D01*
X162102693Y-115208822D01*
X162084281Y-115202518D01*
X162065898Y-115194562D01*
X162065892Y-115194560D01*
X162019874Y-115187272D01*
X162014152Y-115186087D01*
X161969021Y-115174500D01*
X161969019Y-115174500D01*
X161948984Y-115174500D01*
X161929586Y-115172973D01*
X161922162Y-115171797D01*
X161909805Y-115169840D01*
X161909804Y-115169840D01*
X161863416Y-115174225D01*
X161857578Y-115174500D01*
X157403748Y-115174500D01*
X157336709Y-115154815D01*
X157311600Y-115133474D01*
X157305873Y-115127114D01*
X157305869Y-115127110D01*
X157152734Y-115015851D01*
X157152729Y-115015848D01*
X156979807Y-114938857D01*
X156979802Y-114938855D01*
X156834000Y-114907865D01*
X156794646Y-114899500D01*
X156605354Y-114899500D01*
X156572897Y-114906398D01*
X156420197Y-114938855D01*
X156420192Y-114938857D01*
X156247270Y-115015848D01*
X156247265Y-115015851D01*
X156094129Y-115127111D01*
X155967466Y-115267785D01*
X155872821Y-115431715D01*
X155872818Y-115431722D01*
X155814327Y-115611740D01*
X155814326Y-115611744D01*
X155794540Y-115800000D01*
X150855500Y-115800000D01*
X150855500Y-114528687D01*
X150875185Y-114461648D01*
X150887350Y-114445715D01*
X150907463Y-114423377D01*
X150962533Y-114362216D01*
X151057179Y-114198284D01*
X151115674Y-114018256D01*
X151135460Y-113830000D01*
X151115674Y-113641744D01*
X151057179Y-113461716D01*
X150962533Y-113297784D01*
X150835871Y-113157112D01*
X150829504Y-113152486D01*
X150682734Y-113045851D01*
X150682729Y-113045848D01*
X150509807Y-112968857D01*
X150509802Y-112968855D01*
X150364000Y-112937865D01*
X150324646Y-112929500D01*
X150135354Y-112929500D01*
X150102897Y-112936398D01*
X149950197Y-112968855D01*
X149950192Y-112968857D01*
X149777271Y-113045848D01*
X149722385Y-113085725D01*
X149656578Y-113109204D01*
X149588524Y-113093378D01*
X149539830Y-113043272D01*
X149525500Y-112985406D01*
X149525500Y-109700000D01*
X151094540Y-109700000D01*
X151114326Y-109888256D01*
X151114327Y-109888259D01*
X151172818Y-110068277D01*
X151172821Y-110068284D01*
X151267467Y-110232216D01*
X151389985Y-110368286D01*
X151394129Y-110372888D01*
X151547265Y-110484148D01*
X151547270Y-110484151D01*
X151720192Y-110561142D01*
X151720197Y-110561144D01*
X151905354Y-110600500D01*
X151905355Y-110600500D01*
X152094644Y-110600500D01*
X152094646Y-110600500D01*
X152279803Y-110561144D01*
X152452730Y-110484151D01*
X152605871Y-110372888D01*
X152732533Y-110232216D01*
X152827179Y-110068284D01*
X152885674Y-109888256D01*
X152905460Y-109700000D01*
X152885674Y-109511744D01*
X152827179Y-109331716D01*
X152799969Y-109284588D01*
X152783498Y-109216693D01*
X152806350Y-109150666D01*
X152819671Y-109134917D01*
X153763489Y-108191099D01*
X153824810Y-108157616D01*
X153894502Y-108162600D01*
X153950435Y-108204472D01*
X153958553Y-108216779D01*
X153967463Y-108232211D01*
X153967465Y-108232214D01*
X154094129Y-108372888D01*
X154247265Y-108484148D01*
X154247270Y-108484151D01*
X154420192Y-108561142D01*
X154420197Y-108561144D01*
X154605354Y-108600500D01*
X154605355Y-108600500D01*
X154794644Y-108600500D01*
X154794646Y-108600500D01*
X154979803Y-108561144D01*
X155152730Y-108484151D01*
X155227116Y-108430106D01*
X155292920Y-108406627D01*
X155360974Y-108422452D01*
X155372876Y-108430100D01*
X155433494Y-108474142D01*
X155447270Y-108484151D01*
X155620192Y-108561142D01*
X155620197Y-108561144D01*
X155805354Y-108600500D01*
X155805355Y-108600500D01*
X155994644Y-108600500D01*
X155994646Y-108600500D01*
X156179803Y-108561144D01*
X156352730Y-108484151D01*
X156505871Y-108372888D01*
X156632533Y-108232216D01*
X156727179Y-108068284D01*
X156785674Y-107888256D01*
X156805460Y-107700000D01*
X156785674Y-107511744D01*
X156727179Y-107331716D01*
X156724275Y-107326686D01*
X156707801Y-107258790D01*
X156730651Y-107192762D01*
X156743974Y-107177010D01*
X157859166Y-106061819D01*
X157920490Y-106028334D01*
X157946848Y-106025500D01*
X159878339Y-106025500D01*
X159945378Y-106045185D01*
X159991133Y-106097989D01*
X160001077Y-106167147D01*
X159972052Y-106230703D01*
X159966020Y-106237181D01*
X155614660Y-110588539D01*
X155553337Y-110622024D01*
X155501199Y-110622148D01*
X155394646Y-110599500D01*
X155205354Y-110599500D01*
X155172897Y-110606398D01*
X155020197Y-110638855D01*
X155020192Y-110638857D01*
X154847270Y-110715848D01*
X154847265Y-110715851D01*
X154694129Y-110827111D01*
X154567466Y-110967785D01*
X154472821Y-111131715D01*
X154472818Y-111131722D01*
X154444839Y-111217834D01*
X154414326Y-111311744D01*
X154394540Y-111500000D01*
X154414326Y-111688256D01*
X154414327Y-111688259D01*
X154472818Y-111868277D01*
X154472821Y-111868284D01*
X154567467Y-112032216D01*
X154666087Y-112141744D01*
X154694129Y-112172888D01*
X154847265Y-112284148D01*
X154847270Y-112284151D01*
X155020192Y-112361142D01*
X155020193Y-112361142D01*
X155020197Y-112361144D01*
X155116973Y-112381714D01*
X155178455Y-112414906D01*
X155212232Y-112476069D01*
X155213879Y-112486151D01*
X155214327Y-112488260D01*
X155272818Y-112668277D01*
X155272821Y-112668284D01*
X155367467Y-112832216D01*
X155445666Y-112919064D01*
X155494129Y-112972888D01*
X155641556Y-113080000D01*
X155647270Y-113084151D01*
X155779993Y-113143244D01*
X155833227Y-113188492D01*
X155852874Y-113243556D01*
X155853991Y-113254190D01*
X155854192Y-113256096D01*
X155854193Y-113256099D01*
X155912684Y-113436116D01*
X155912687Y-113436123D01*
X156007333Y-113600055D01*
X156083249Y-113684368D01*
X156133995Y-113740727D01*
X156287131Y-113851987D01*
X156287136Y-113851990D01*
X156460058Y-113928981D01*
X156460063Y-113928983D01*
X156645220Y-113968339D01*
X156645221Y-113968339D01*
X156834510Y-113968339D01*
X156834512Y-113968339D01*
X157019669Y-113928983D01*
X157192596Y-113851990D01*
X157345737Y-113740727D01*
X157472399Y-113600055D01*
X157567045Y-113436123D01*
X157625540Y-113256095D01*
X157645326Y-113067839D01*
X157625540Y-112879583D01*
X157567045Y-112699555D01*
X157472399Y-112535623D01*
X157472398Y-112535622D01*
X157469150Y-112529996D01*
X157470930Y-112528968D01*
X157450702Y-112472265D01*
X157450500Y-112465192D01*
X157450500Y-112082433D01*
X157452224Y-112066819D01*
X157451938Y-112066792D01*
X157452672Y-112059029D01*
X157450500Y-111989898D01*
X157450500Y-111960346D01*
X157450500Y-111960345D01*
X157449629Y-111953454D01*
X157449172Y-111947640D01*
X157447464Y-111893270D01*
X157450761Y-111893166D01*
X157457719Y-111838883D01*
X157483605Y-111800984D01*
X158882819Y-110401770D01*
X158944142Y-110368286D01*
X159013834Y-110373270D01*
X159069767Y-110415142D01*
X159094184Y-110480606D01*
X159094500Y-110489452D01*
X159094500Y-111331312D01*
X159074815Y-111398351D01*
X159062650Y-111414284D01*
X158987466Y-111497784D01*
X158892821Y-111661715D01*
X158892818Y-111661722D01*
X158835188Y-111839090D01*
X158834326Y-111841744D01*
X158814540Y-112030000D01*
X158834326Y-112218256D01*
X158834327Y-112218259D01*
X158892818Y-112398277D01*
X158892821Y-112398284D01*
X158987467Y-112562216D01*
X159111127Y-112699554D01*
X159114129Y-112702888D01*
X159267265Y-112814148D01*
X159267270Y-112814151D01*
X159440192Y-112891142D01*
X159440197Y-112891144D01*
X159625354Y-112930500D01*
X159625355Y-112930500D01*
X159814644Y-112930500D01*
X159814646Y-112930500D01*
X159999803Y-112891144D01*
X160172730Y-112814151D01*
X160325871Y-112702888D01*
X160452533Y-112562216D01*
X160547179Y-112398284D01*
X160605674Y-112218256D01*
X160625460Y-112030000D01*
X160605674Y-111841744D01*
X160547179Y-111661716D01*
X160452533Y-111497784D01*
X160426485Y-111468855D01*
X160377350Y-111414284D01*
X160347120Y-111351292D01*
X160345500Y-111331312D01*
X160345500Y-109626847D01*
X160365185Y-109559808D01*
X160381815Y-109539170D01*
X160514448Y-109406537D01*
X160575770Y-109373053D01*
X160645462Y-109378037D01*
X160701395Y-109419909D01*
X160720059Y-109455901D01*
X160772818Y-109618277D01*
X160772821Y-109618284D01*
X160867467Y-109782216D01*
X160962946Y-109888256D01*
X160994129Y-109922888D01*
X161147265Y-110034148D01*
X161147270Y-110034151D01*
X161320192Y-110111142D01*
X161320197Y-110111144D01*
X161505354Y-110150500D01*
X161505355Y-110150500D01*
X161694644Y-110150500D01*
X161694646Y-110150500D01*
X161879803Y-110111144D01*
X162052730Y-110034151D01*
X162205871Y-109922888D01*
X162208788Y-109919647D01*
X162211600Y-109916526D01*
X162271087Y-109879879D01*
X162303748Y-109875500D01*
X163698966Y-109875500D01*
X163766005Y-109895185D01*
X163786647Y-109911819D01*
X164485538Y-110610711D01*
X164519023Y-110672034D01*
X164521178Y-110685430D01*
X164524376Y-110715851D01*
X164538826Y-110853338D01*
X164538827Y-110853341D01*
X164597318Y-111033359D01*
X164597321Y-111033366D01*
X164691967Y-111197298D01*
X164710458Y-111217834D01*
X164729108Y-111238547D01*
X164759338Y-111301538D01*
X164750713Y-111370873D01*
X164705972Y-111424539D01*
X164662739Y-111442809D01*
X164540197Y-111468855D01*
X164540192Y-111468857D01*
X164367270Y-111545848D01*
X164367265Y-111545851D01*
X164214129Y-111657111D01*
X164087466Y-111797785D01*
X163992821Y-111961715D01*
X163992818Y-111961722D01*
X163934327Y-112141738D01*
X163933669Y-112144838D01*
X163932794Y-112146458D01*
X163932318Y-112147924D01*
X163932049Y-112147836D01*
X163900476Y-112206320D01*
X163839314Y-112240097D01*
X163786704Y-112237645D01*
X163786160Y-112240207D01*
X163682887Y-112218256D01*
X163594646Y-112199500D01*
X163405354Y-112199500D01*
X163373268Y-112206320D01*
X163220197Y-112238855D01*
X163220192Y-112238857D01*
X163047270Y-112315848D01*
X163047265Y-112315851D01*
X162894129Y-112427111D01*
X162767466Y-112567785D01*
X162672821Y-112731715D01*
X162672818Y-112731722D01*
X162621020Y-112891142D01*
X162614326Y-112911744D01*
X162594540Y-113100000D01*
X162614326Y-113288256D01*
X162614327Y-113288259D01*
X162672818Y-113468277D01*
X162672821Y-113468284D01*
X162767467Y-113632216D01*
X162821568Y-113692301D01*
X162894129Y-113772888D01*
X163047265Y-113884148D01*
X163047270Y-113884151D01*
X163221875Y-113961892D01*
X163275112Y-114007142D01*
X163294759Y-114062205D01*
X163297497Y-114088250D01*
X163297499Y-114088260D01*
X163355990Y-114268277D01*
X163355993Y-114268284D01*
X163450639Y-114432216D01*
X163560293Y-114553999D01*
X163577301Y-114572888D01*
X163730437Y-114684148D01*
X163730442Y-114684151D01*
X163903364Y-114761142D01*
X163903369Y-114761144D01*
X164088526Y-114800500D01*
X164088527Y-114800500D01*
X164277816Y-114800500D01*
X164277818Y-114800500D01*
X164462975Y-114761144D01*
X164635902Y-114684151D01*
X164789043Y-114572888D01*
X164794508Y-114566819D01*
X164794772Y-114566526D01*
X164854259Y-114529879D01*
X164886920Y-114525500D01*
X176267257Y-114525500D01*
X176282877Y-114527224D01*
X176282904Y-114526939D01*
X176290660Y-114527671D01*
X176290667Y-114527673D01*
X176359814Y-114525500D01*
X176389350Y-114525500D01*
X176396228Y-114524630D01*
X176402041Y-114524172D01*
X176448627Y-114522709D01*
X176467869Y-114517117D01*
X176486912Y-114513174D01*
X176506792Y-114510664D01*
X176550122Y-114493507D01*
X176555646Y-114491617D01*
X176559396Y-114490527D01*
X176600390Y-114478618D01*
X176617629Y-114468422D01*
X176635103Y-114459862D01*
X176653727Y-114452488D01*
X176653727Y-114452487D01*
X176653732Y-114452486D01*
X176691449Y-114425082D01*
X176696305Y-114421892D01*
X176736420Y-114398170D01*
X176750589Y-114383999D01*
X176765379Y-114371368D01*
X176781587Y-114359594D01*
X176811299Y-114323676D01*
X176815212Y-114319376D01*
X177833466Y-113301123D01*
X177894787Y-113267640D01*
X177964479Y-113272624D01*
X178020412Y-113314496D01*
X178044829Y-113379960D01*
X178039076Y-113427122D01*
X178034326Y-113441744D01*
X178017687Y-113600055D01*
X178016679Y-113609649D01*
X177990094Y-113674263D01*
X177981039Y-113684368D01*
X176597228Y-115068181D01*
X176535905Y-115101666D01*
X176509547Y-115104500D01*
X167823748Y-115104500D01*
X167756709Y-115084815D01*
X167731600Y-115063474D01*
X167725873Y-115057114D01*
X167725869Y-115057110D01*
X167572734Y-114945851D01*
X167572729Y-114945848D01*
X167399807Y-114868857D01*
X167399802Y-114868855D01*
X167254001Y-114837865D01*
X167214646Y-114829500D01*
X167025354Y-114829500D01*
X166992897Y-114836398D01*
X166840197Y-114868855D01*
X166840192Y-114868857D01*
X166667270Y-114945848D01*
X166667265Y-114945851D01*
X166514129Y-115057111D01*
X166387466Y-115197785D01*
X166292821Y-115361715D01*
X166292818Y-115361722D01*
X166234327Y-115541740D01*
X166234326Y-115541744D01*
X166214540Y-115730000D01*
X166234326Y-115918256D01*
X166234327Y-115918259D01*
X166292818Y-116098277D01*
X166292821Y-116098284D01*
X166387467Y-116262216D01*
X166508401Y-116396526D01*
X166514129Y-116402888D01*
X166667265Y-116514148D01*
X166667270Y-116514151D01*
X166840192Y-116591142D01*
X166840197Y-116591144D01*
X167025354Y-116630500D01*
X167025355Y-116630500D01*
X167214644Y-116630500D01*
X167214646Y-116630500D01*
X167399803Y-116591144D01*
X167572730Y-116514151D01*
X167725871Y-116402888D01*
X167728788Y-116399647D01*
X167731600Y-116396526D01*
X167791087Y-116359879D01*
X167823748Y-116355500D01*
X176737257Y-116355500D01*
X176752877Y-116357224D01*
X176752904Y-116356939D01*
X176760660Y-116357671D01*
X176760667Y-116357673D01*
X176829814Y-116355500D01*
X176859350Y-116355500D01*
X176866228Y-116354630D01*
X176872041Y-116354172D01*
X176918627Y-116352709D01*
X176937869Y-116347117D01*
X176956912Y-116343174D01*
X176976792Y-116340664D01*
X177020122Y-116323507D01*
X177025646Y-116321617D01*
X177029396Y-116320527D01*
X177070390Y-116308618D01*
X177087629Y-116298422D01*
X177105103Y-116289862D01*
X177123727Y-116282488D01*
X177123727Y-116282487D01*
X177123732Y-116282486D01*
X177161449Y-116255082D01*
X177166305Y-116251892D01*
X177206420Y-116228170D01*
X177220589Y-116213999D01*
X177235379Y-116201368D01*
X177251587Y-116189594D01*
X177281299Y-116153676D01*
X177285212Y-116149376D01*
X178867771Y-114566819D01*
X178929095Y-114533334D01*
X178955453Y-114530500D01*
X179014644Y-114530500D01*
X179014646Y-114530500D01*
X179199803Y-114491144D01*
X179372730Y-114414151D01*
X179525871Y-114302888D01*
X179652533Y-114162216D01*
X179747179Y-113998284D01*
X179805674Y-113818256D01*
X179825460Y-113630000D01*
X179805674Y-113441744D01*
X179788151Y-113387816D01*
X179786157Y-113317978D01*
X179822237Y-113258145D01*
X179884938Y-113227316D01*
X179906083Y-113225500D01*
X193717257Y-113225500D01*
X193732877Y-113227224D01*
X193732904Y-113226939D01*
X193740660Y-113227671D01*
X193740667Y-113227673D01*
X193809814Y-113225500D01*
X193839350Y-113225500D01*
X193846228Y-113224630D01*
X193852041Y-113224172D01*
X193898627Y-113222709D01*
X193917869Y-113217117D01*
X193936912Y-113213174D01*
X193956792Y-113210664D01*
X194000122Y-113193507D01*
X194005646Y-113191617D01*
X194016402Y-113188492D01*
X194050390Y-113178618D01*
X194067629Y-113168422D01*
X194085103Y-113159862D01*
X194103727Y-113152488D01*
X194103727Y-113152487D01*
X194103732Y-113152486D01*
X194141449Y-113125082D01*
X194146305Y-113121892D01*
X194186420Y-113098170D01*
X194200589Y-113083999D01*
X194215379Y-113071368D01*
X194231587Y-113059594D01*
X194261299Y-113023676D01*
X194265212Y-113019376D01*
X194292662Y-112991926D01*
X194353983Y-112958443D01*
X194423675Y-112963427D01*
X194479608Y-113005299D01*
X194504025Y-113070763D01*
X194504341Y-113079609D01*
X194504341Y-113080000D01*
X194524936Y-113315403D01*
X194524938Y-113315413D01*
X194586094Y-113543655D01*
X194586096Y-113543659D01*
X194586097Y-113543663D01*
X194646997Y-113674263D01*
X194685965Y-113757830D01*
X194685967Y-113757834D01*
X194774414Y-113884148D01*
X194821505Y-113951401D01*
X194988599Y-114118495D01*
X195051036Y-114162214D01*
X195182165Y-114254032D01*
X195182167Y-114254033D01*
X195182170Y-114254035D01*
X195396337Y-114353903D01*
X195396343Y-114353904D01*
X195396344Y-114353905D01*
X195435356Y-114364358D01*
X195624592Y-114415063D01*
X195812918Y-114431539D01*
X195859999Y-114435659D01*
X195860000Y-114435659D01*
X195860001Y-114435659D01*
X195899376Y-114432214D01*
X196095408Y-114415063D01*
X196247200Y-114374391D01*
X196253407Y-114372728D01*
X196323257Y-114374391D01*
X196381119Y-114413554D01*
X196408623Y-114477782D01*
X196409500Y-114492503D01*
X196409500Y-118139046D01*
X196389815Y-118206085D01*
X196337011Y-118251840D01*
X196267853Y-118261784D01*
X196259719Y-118260336D01*
X196114646Y-118229500D01*
X195925354Y-118229500D01*
X195892897Y-118236398D01*
X195740197Y-118268855D01*
X195740192Y-118268857D01*
X195567270Y-118345848D01*
X195567265Y-118345851D01*
X195414130Y-118457110D01*
X195414126Y-118457114D01*
X195408400Y-118463474D01*
X195348913Y-118500121D01*
X195316252Y-118504500D01*
X190523748Y-118504500D01*
X190456709Y-118484815D01*
X190431600Y-118463474D01*
X190425873Y-118457114D01*
X190425869Y-118457110D01*
X190272734Y-118345851D01*
X190272729Y-118345848D01*
X190099807Y-118268857D01*
X190099802Y-118268855D01*
X189954001Y-118237865D01*
X189914646Y-118229500D01*
X189725354Y-118229500D01*
X189692897Y-118236398D01*
X189540197Y-118268855D01*
X189540192Y-118268857D01*
X189367270Y-118345848D01*
X189367265Y-118345851D01*
X189214129Y-118457111D01*
X189087466Y-118597785D01*
X188992821Y-118761715D01*
X188992818Y-118761722D01*
X188948609Y-118897785D01*
X188934326Y-118941744D01*
X188914540Y-119130000D01*
X188934326Y-119318256D01*
X188934327Y-119318259D01*
X188992818Y-119498277D01*
X188992821Y-119498284D01*
X189087467Y-119662216D01*
X189171461Y-119755500D01*
X189214129Y-119802888D01*
X189355855Y-119905858D01*
X189367270Y-119914151D01*
X189479460Y-119964102D01*
X189532694Y-120009350D01*
X189553015Y-120076199D01*
X189533970Y-120143423D01*
X189521172Y-120160350D01*
X189487466Y-120197785D01*
X189392821Y-120361715D01*
X189392818Y-120361722D01*
X189353443Y-120482908D01*
X189334326Y-120541744D01*
X189314540Y-120730000D01*
X189334326Y-120918256D01*
X189334327Y-120918259D01*
X189392818Y-121098277D01*
X189392821Y-121098284D01*
X189487467Y-121262216D01*
X189553494Y-121335546D01*
X189614129Y-121402888D01*
X189767265Y-121514148D01*
X189767270Y-121514151D01*
X189940192Y-121591142D01*
X189940197Y-121591144D01*
X190125354Y-121630500D01*
X190184548Y-121630500D01*
X190251587Y-121650185D01*
X190272229Y-121666819D01*
X191019194Y-122413784D01*
X191029019Y-122426048D01*
X191029240Y-122425866D01*
X191034210Y-122431873D01*
X191034213Y-122431876D01*
X191034214Y-122431877D01*
X191084651Y-122479241D01*
X191105530Y-122500120D01*
X191111004Y-122504366D01*
X191115442Y-122508156D01*
X191149418Y-122540062D01*
X191149422Y-122540064D01*
X191166973Y-122549713D01*
X191183231Y-122560392D01*
X191199064Y-122572674D01*
X191221015Y-122582172D01*
X191241837Y-122591183D01*
X191247081Y-122593752D01*
X191287908Y-122616197D01*
X191307312Y-122621179D01*
X191325710Y-122627478D01*
X191344105Y-122635438D01*
X191390129Y-122642726D01*
X191395832Y-122643907D01*
X191440981Y-122655500D01*
X191461016Y-122655500D01*
X191480413Y-122657026D01*
X191500196Y-122660160D01*
X191546583Y-122655775D01*
X191552422Y-122655500D01*
X193509548Y-122655500D01*
X193576587Y-122675185D01*
X193597229Y-122691819D01*
X194378181Y-123472771D01*
X194411666Y-123534094D01*
X194414500Y-123560452D01*
X194414500Y-123684773D01*
X194394815Y-123751812D01*
X194361623Y-123786348D01*
X194168597Y-123921505D01*
X194001505Y-124088597D01*
X193871575Y-124274158D01*
X193816998Y-124317783D01*
X193747500Y-124324977D01*
X193685145Y-124293454D01*
X193668425Y-124274158D01*
X193538494Y-124088597D01*
X193371402Y-123921506D01*
X193371399Y-123921504D01*
X193280871Y-123858115D01*
X193177834Y-123785967D01*
X193177830Y-123785965D01*
X193120119Y-123759054D01*
X192963663Y-123686097D01*
X192963659Y-123686096D01*
X192963655Y-123686094D01*
X192735413Y-123624938D01*
X192735403Y-123624936D01*
X192500001Y-123604341D01*
X192499999Y-123604341D01*
X192264596Y-123624936D01*
X192264586Y-123624938D01*
X192036344Y-123686094D01*
X192036335Y-123686098D01*
X191822171Y-123785964D01*
X191822169Y-123785965D01*
X191628597Y-123921505D01*
X191461505Y-124088597D01*
X191325965Y-124282169D01*
X191325964Y-124282171D01*
X191226098Y-124496335D01*
X191226094Y-124496344D01*
X191164938Y-124724586D01*
X191164936Y-124724596D01*
X191144341Y-124959999D01*
X191144341Y-124960000D01*
X191164936Y-125195403D01*
X191164938Y-125195413D01*
X191226094Y-125423655D01*
X191226099Y-125423669D01*
X191228163Y-125428094D01*
X191238656Y-125497171D01*
X191210137Y-125560955D01*
X191151661Y-125599196D01*
X191115782Y-125604500D01*
X182324218Y-125604500D01*
X182257179Y-125584815D01*
X182211424Y-125532011D01*
X182201480Y-125462853D01*
X182211837Y-125428094D01*
X182213900Y-125423669D01*
X182213903Y-125423663D01*
X182275063Y-125195408D01*
X182295659Y-124960000D01*
X182275063Y-124724592D01*
X182213903Y-124496337D01*
X182114035Y-124282171D01*
X182108425Y-124274158D01*
X181978494Y-124088597D01*
X181811402Y-123921506D01*
X181811399Y-123921504D01*
X181720871Y-123858115D01*
X181617834Y-123785967D01*
X181617830Y-123785965D01*
X181560119Y-123759054D01*
X181403663Y-123686097D01*
X181403659Y-123686096D01*
X181403655Y-123686094D01*
X181175413Y-123624938D01*
X181175403Y-123624936D01*
X180940001Y-123604341D01*
X180939999Y-123604341D01*
X180704596Y-123624936D01*
X180704586Y-123624938D01*
X180476344Y-123686094D01*
X180476335Y-123686098D01*
X180262171Y-123785964D01*
X180262169Y-123785965D01*
X180068597Y-123921505D01*
X179901505Y-124088597D01*
X179771575Y-124274158D01*
X179716998Y-124317783D01*
X179647500Y-124324977D01*
X179585145Y-124293454D01*
X179568425Y-124274158D01*
X179438494Y-124088597D01*
X179271402Y-123921506D01*
X179271401Y-123921505D01*
X179114499Y-123811641D01*
X179078376Y-123786347D01*
X179034751Y-123731770D01*
X179025500Y-123684772D01*
X179025500Y-122992742D01*
X179027224Y-122977122D01*
X179026939Y-122977095D01*
X179027673Y-122969333D01*
X179025764Y-122908571D01*
X179025500Y-122900171D01*
X179025500Y-122870650D01*
X179024631Y-122863779D01*
X179024173Y-122857952D01*
X179023400Y-122833342D01*
X179022710Y-122811373D01*
X179017119Y-122792130D01*
X179013173Y-122773078D01*
X179010664Y-122753208D01*
X178993504Y-122709867D01*
X178991624Y-122704379D01*
X178978618Y-122659610D01*
X178978617Y-122659608D01*
X178968419Y-122642364D01*
X178959858Y-122624888D01*
X178952487Y-122606270D01*
X178946605Y-122598174D01*
X178925090Y-122568560D01*
X178921892Y-122563691D01*
X178919943Y-122560396D01*
X178898171Y-122523580D01*
X178898169Y-122523578D01*
X178898166Y-122523574D01*
X178884005Y-122509413D01*
X178871370Y-122494620D01*
X178861982Y-122481700D01*
X178859594Y-122478413D01*
X178823693Y-122448713D01*
X178819381Y-122444790D01*
X178420802Y-122046211D01*
X178410980Y-122033950D01*
X178410759Y-122034134D01*
X178405786Y-122028123D01*
X178405785Y-122028122D01*
X178355364Y-121980773D01*
X178344919Y-121970328D01*
X178334475Y-121959883D01*
X178328986Y-121955625D01*
X178324561Y-121951847D01*
X178290582Y-121919938D01*
X178290580Y-121919936D01*
X178290577Y-121919935D01*
X178273029Y-121910288D01*
X178256763Y-121899604D01*
X178240933Y-121887325D01*
X178198168Y-121868818D01*
X178192922Y-121866248D01*
X178152093Y-121843803D01*
X178152092Y-121843802D01*
X178132693Y-121838822D01*
X178114281Y-121832518D01*
X178095898Y-121824562D01*
X178095892Y-121824560D01*
X178049874Y-121817272D01*
X178044152Y-121816087D01*
X177999021Y-121804500D01*
X177999019Y-121804500D01*
X177978984Y-121804500D01*
X177959586Y-121802973D01*
X177952162Y-121801797D01*
X177939805Y-121799840D01*
X177939804Y-121799840D01*
X177893416Y-121804225D01*
X177887578Y-121804500D01*
X171923748Y-121804500D01*
X171856709Y-121784815D01*
X171831600Y-121763474D01*
X171825873Y-121757114D01*
X171825869Y-121757110D01*
X171672734Y-121645851D01*
X171672729Y-121645848D01*
X171499807Y-121568857D01*
X171499802Y-121568855D01*
X171354000Y-121537865D01*
X171314646Y-121529500D01*
X171125354Y-121529500D01*
X171092897Y-121536398D01*
X170940197Y-121568855D01*
X170940192Y-121568857D01*
X170767270Y-121645848D01*
X170767265Y-121645851D01*
X170614129Y-121757111D01*
X170487466Y-121897785D01*
X170392821Y-122061715D01*
X170392818Y-122061722D01*
X170334327Y-122241740D01*
X170334326Y-122241744D01*
X170314540Y-122430000D01*
X170334326Y-122618256D01*
X170334327Y-122618259D01*
X170392818Y-122798277D01*
X170392821Y-122798284D01*
X170487467Y-122962216D01*
X170586899Y-123072646D01*
X170614129Y-123102888D01*
X170767265Y-123214148D01*
X170767270Y-123214151D01*
X170940192Y-123291142D01*
X170940197Y-123291144D01*
X171125354Y-123330500D01*
X171125355Y-123330500D01*
X171314644Y-123330500D01*
X171314646Y-123330500D01*
X171499803Y-123291144D01*
X171672730Y-123214151D01*
X171825871Y-123102888D01*
X171828788Y-123099647D01*
X171831600Y-123096526D01*
X171891087Y-123059879D01*
X171923748Y-123055500D01*
X177609548Y-123055500D01*
X177676587Y-123075185D01*
X177697229Y-123091819D01*
X177738181Y-123132771D01*
X177771666Y-123194094D01*
X177774500Y-123220452D01*
X177774500Y-123684773D01*
X177754815Y-123751812D01*
X177721623Y-123786348D01*
X177528597Y-123921505D01*
X177361505Y-124088597D01*
X177231575Y-124274158D01*
X177176998Y-124317783D01*
X177107500Y-124324977D01*
X177045145Y-124293454D01*
X177028425Y-124274158D01*
X176898494Y-124088597D01*
X176731402Y-123921506D01*
X176731399Y-123921504D01*
X176640871Y-123858115D01*
X176537834Y-123785967D01*
X176537830Y-123785965D01*
X176480119Y-123759054D01*
X176323663Y-123686097D01*
X176323659Y-123686096D01*
X176323655Y-123686094D01*
X176095413Y-123624938D01*
X176095403Y-123624936D01*
X175860001Y-123604341D01*
X175859999Y-123604341D01*
X175624596Y-123624936D01*
X175624586Y-123624938D01*
X175396344Y-123686094D01*
X175396335Y-123686098D01*
X175182171Y-123785964D01*
X175182169Y-123785965D01*
X174988597Y-123921505D01*
X174821505Y-124088597D01*
X174691575Y-124274158D01*
X174636998Y-124317783D01*
X174567500Y-124324977D01*
X174505145Y-124293454D01*
X174488425Y-124274158D01*
X174358494Y-124088597D01*
X174191402Y-123921506D01*
X174191399Y-123921504D01*
X174100871Y-123858115D01*
X173997834Y-123785967D01*
X173997830Y-123785965D01*
X173940119Y-123759054D01*
X173783663Y-123686097D01*
X173783659Y-123686096D01*
X173783655Y-123686094D01*
X173555413Y-123624938D01*
X173555403Y-123624936D01*
X173320001Y-123604341D01*
X173319999Y-123604341D01*
X173084596Y-123624936D01*
X173084586Y-123624938D01*
X172856344Y-123686094D01*
X172856335Y-123686098D01*
X172642171Y-123785964D01*
X172642169Y-123785965D01*
X172448597Y-123921505D01*
X172281505Y-124088597D01*
X172145965Y-124282169D01*
X172145964Y-124282171D01*
X172046098Y-124496335D01*
X172046094Y-124496344D01*
X171984938Y-124724586D01*
X171984936Y-124724596D01*
X171964341Y-124959999D01*
X171964341Y-124960000D01*
X171984936Y-125195403D01*
X171984938Y-125195413D01*
X172046094Y-125423655D01*
X172046099Y-125423669D01*
X172048163Y-125428094D01*
X172058656Y-125497171D01*
X172030137Y-125560955D01*
X171971661Y-125599196D01*
X171935782Y-125604500D01*
X170602743Y-125604500D01*
X170587122Y-125602775D01*
X170587095Y-125603061D01*
X170579333Y-125602326D01*
X170510172Y-125604500D01*
X170480649Y-125604500D01*
X170473778Y-125605367D01*
X170467959Y-125605825D01*
X170421374Y-125607289D01*
X170421368Y-125607290D01*
X170402126Y-125612880D01*
X170383087Y-125616823D01*
X170363217Y-125619334D01*
X170363203Y-125619337D01*
X170319883Y-125636488D01*
X170314358Y-125638380D01*
X170269613Y-125651380D01*
X170269610Y-125651381D01*
X170252366Y-125661579D01*
X170234905Y-125670133D01*
X170216274Y-125677510D01*
X170216262Y-125677517D01*
X170178570Y-125704902D01*
X170173687Y-125708109D01*
X170133580Y-125731829D01*
X170119414Y-125745995D01*
X170104624Y-125758627D01*
X170088414Y-125770404D01*
X170088411Y-125770407D01*
X170058710Y-125806309D01*
X170054777Y-125810631D01*
X167297228Y-128568181D01*
X167235905Y-128601666D01*
X167209547Y-128604500D01*
X165923748Y-128604500D01*
X165856709Y-128584815D01*
X165831600Y-128563474D01*
X165825873Y-128557114D01*
X165825869Y-128557110D01*
X165672734Y-128445851D01*
X165672729Y-128445848D01*
X165499807Y-128368857D01*
X165499802Y-128368855D01*
X165354001Y-128337865D01*
X165314646Y-128329500D01*
X165125354Y-128329500D01*
X165092897Y-128336398D01*
X164940197Y-128368855D01*
X164940192Y-128368857D01*
X164767270Y-128445848D01*
X164767265Y-128445851D01*
X164614129Y-128557111D01*
X164487466Y-128697785D01*
X164392821Y-128861715D01*
X164392818Y-128861722D01*
X164334327Y-129041740D01*
X164334326Y-129041744D01*
X164314540Y-129230000D01*
X164334326Y-129418256D01*
X164334327Y-129418259D01*
X164392818Y-129598277D01*
X164392821Y-129598284D01*
X164487467Y-129762216D01*
X164605648Y-129893469D01*
X164614129Y-129902888D01*
X164767265Y-130014148D01*
X164767270Y-130014151D01*
X164940192Y-130091142D01*
X164940197Y-130091144D01*
X165125354Y-130130500D01*
X165125355Y-130130500D01*
X165314644Y-130130500D01*
X165314646Y-130130500D01*
X165499803Y-130091144D01*
X165672730Y-130014151D01*
X165825871Y-129902888D01*
X165828788Y-129899647D01*
X165831600Y-129896526D01*
X165891087Y-129859879D01*
X165923748Y-129855500D01*
X167437257Y-129855500D01*
X167452877Y-129857224D01*
X167452904Y-129856939D01*
X167460660Y-129857671D01*
X167460667Y-129857673D01*
X167529814Y-129855500D01*
X167559350Y-129855500D01*
X167566228Y-129854630D01*
X167572041Y-129854172D01*
X167618627Y-129852709D01*
X167637869Y-129847117D01*
X167656912Y-129843174D01*
X167676792Y-129840664D01*
X167720122Y-129823507D01*
X167725646Y-129821617D01*
X167729396Y-129820527D01*
X167770390Y-129808618D01*
X167787629Y-129798422D01*
X167805103Y-129789862D01*
X167823727Y-129782488D01*
X167823727Y-129782487D01*
X167823732Y-129782486D01*
X167861449Y-129755082D01*
X167866305Y-129751892D01*
X167906420Y-129728170D01*
X167920589Y-129713999D01*
X167935379Y-129701368D01*
X167951587Y-129689594D01*
X167981299Y-129653676D01*
X167985212Y-129649376D01*
X170742770Y-126891819D01*
X170804094Y-126858334D01*
X170830452Y-126855500D01*
X171846000Y-126855500D01*
X171913039Y-126875185D01*
X171958794Y-126927989D01*
X171970000Y-126979500D01*
X171970000Y-127250000D01*
X172706653Y-127250000D01*
X172773692Y-127269685D01*
X172819447Y-127322489D01*
X172829391Y-127391647D01*
X172825631Y-127408933D01*
X172820000Y-127428111D01*
X172820000Y-127571888D01*
X172825631Y-127591067D01*
X172825630Y-127660936D01*
X172787855Y-127719714D01*
X172724299Y-127748738D01*
X172706653Y-127750000D01*
X171970001Y-127750000D01*
X171970001Y-128149986D01*
X171980494Y-128252697D01*
X172035641Y-128419119D01*
X172035643Y-128419124D01*
X172127684Y-128568345D01*
X172251654Y-128692315D01*
X172400875Y-128784356D01*
X172400880Y-128784358D01*
X172567302Y-128839505D01*
X172567309Y-128839506D01*
X172670019Y-128849999D01*
X173069999Y-128849999D01*
X173069999Y-128849998D01*
X173070000Y-128112301D01*
X173089685Y-128045262D01*
X173142489Y-127999507D01*
X173211647Y-127989563D01*
X173284237Y-128000000D01*
X173284238Y-128000000D01*
X173355762Y-128000000D01*
X173355763Y-128000000D01*
X173428352Y-127989563D01*
X173497510Y-127999507D01*
X173550314Y-128045261D01*
X173569999Y-128112301D01*
X173569999Y-128849998D01*
X173570000Y-128849999D01*
X173969972Y-128849999D01*
X173969986Y-128849998D01*
X174072697Y-128839505D01*
X174239119Y-128784358D01*
X174239124Y-128784356D01*
X174388345Y-128692315D01*
X174512315Y-128568345D01*
X174604356Y-128419124D01*
X174604357Y-128419120D01*
X174607284Y-128410289D01*
X174647055Y-128352843D01*
X174711570Y-128326018D01*
X174780346Y-128338331D01*
X174817568Y-128367681D01*
X174817677Y-128367573D01*
X174818590Y-128368486D01*
X174819976Y-128369579D01*
X174821501Y-128371396D01*
X174821505Y-128371401D01*
X174988599Y-128538495D01*
X175181624Y-128673653D01*
X175225248Y-128728228D01*
X175234500Y-128775226D01*
X175234500Y-128987255D01*
X175232775Y-129002872D01*
X175233061Y-129002899D01*
X175232326Y-129010665D01*
X175234500Y-129079814D01*
X175234500Y-129109343D01*
X175234501Y-129109360D01*
X175235368Y-129116231D01*
X175235826Y-129122050D01*
X175237290Y-129168624D01*
X175237291Y-129168627D01*
X175242880Y-129187867D01*
X175246824Y-129206911D01*
X175249336Y-129226791D01*
X175266490Y-129270119D01*
X175268382Y-129275647D01*
X175281381Y-129320388D01*
X175291580Y-129337634D01*
X175300138Y-129355103D01*
X175307514Y-129373732D01*
X175334898Y-129411423D01*
X175338106Y-129416307D01*
X175361827Y-129456416D01*
X175361833Y-129456424D01*
X175375990Y-129470580D01*
X175388628Y-129485376D01*
X175400405Y-129501586D01*
X175400406Y-129501587D01*
X175436309Y-129531288D01*
X175440620Y-129535210D01*
X176723665Y-130818256D01*
X176919197Y-131013788D01*
X176929022Y-131026051D01*
X176929243Y-131025869D01*
X176934214Y-131031878D01*
X176960217Y-131056295D01*
X176984635Y-131079226D01*
X177005529Y-131100120D01*
X177011011Y-131104373D01*
X177015443Y-131108157D01*
X177049418Y-131140062D01*
X177066976Y-131149714D01*
X177083235Y-131160395D01*
X177099064Y-131172673D01*
X177141838Y-131191182D01*
X177147056Y-131193738D01*
X177187908Y-131216197D01*
X177207316Y-131221180D01*
X177225717Y-131227480D01*
X177244104Y-131235437D01*
X177287488Y-131242308D01*
X177290119Y-131242725D01*
X177295839Y-131243909D01*
X177340981Y-131255500D01*
X177361016Y-131255500D01*
X177380414Y-131257026D01*
X177400194Y-131260159D01*
X177400195Y-131260160D01*
X177400195Y-131260159D01*
X177400196Y-131260160D01*
X177446583Y-131255775D01*
X177452422Y-131255500D01*
X191416252Y-131255500D01*
X191483291Y-131275185D01*
X191508400Y-131296526D01*
X191514126Y-131302885D01*
X191514130Y-131302889D01*
X191667265Y-131414148D01*
X191667270Y-131414151D01*
X191840192Y-131491142D01*
X191840197Y-131491144D01*
X192025354Y-131530500D01*
X192025355Y-131530500D01*
X192214644Y-131530500D01*
X192214646Y-131530500D01*
X192399803Y-131491144D01*
X192572730Y-131414151D01*
X192725871Y-131302888D01*
X192852533Y-131162216D01*
X192947179Y-130998284D01*
X193005674Y-130818256D01*
X193025460Y-130630000D01*
X193005674Y-130441744D01*
X192955659Y-130287817D01*
X192953665Y-130217977D01*
X192989745Y-130158144D01*
X193052446Y-130127316D01*
X193073591Y-130125500D01*
X198037257Y-130125500D01*
X198052877Y-130127224D01*
X198052904Y-130126939D01*
X198060660Y-130127671D01*
X198060667Y-130127673D01*
X198129814Y-130125500D01*
X198159350Y-130125500D01*
X198166228Y-130124630D01*
X198172041Y-130124172D01*
X198218627Y-130122709D01*
X198237869Y-130117117D01*
X198256912Y-130113174D01*
X198276792Y-130110664D01*
X198320122Y-130093507D01*
X198325646Y-130091617D01*
X198329396Y-130090527D01*
X198370390Y-130078618D01*
X198387629Y-130068422D01*
X198405103Y-130059862D01*
X198423727Y-130052488D01*
X198423727Y-130052487D01*
X198423732Y-130052486D01*
X198461449Y-130025082D01*
X198466305Y-130021892D01*
X198506420Y-129998170D01*
X198520589Y-129983999D01*
X198535379Y-129971368D01*
X198551587Y-129959594D01*
X198581299Y-129923676D01*
X198585212Y-129919376D01*
X199664353Y-128840235D01*
X199725674Y-128806752D01*
X199784125Y-128808143D01*
X199818780Y-128817428D01*
X199884592Y-128835063D01*
X200072918Y-128851539D01*
X200119999Y-128855659D01*
X200120000Y-128855659D01*
X200120001Y-128855659D01*
X200159234Y-128852226D01*
X200355408Y-128835063D01*
X200583663Y-128773903D01*
X200797830Y-128674035D01*
X200991401Y-128538495D01*
X201158495Y-128371401D01*
X201294035Y-128177830D01*
X201393903Y-127963663D01*
X201455063Y-127735408D01*
X201475659Y-127500000D01*
X201455063Y-127264592D01*
X201428143Y-127164123D01*
X201429806Y-127094277D01*
X201460235Y-127044354D01*
X201678788Y-126825801D01*
X201691042Y-126815986D01*
X201690859Y-126815764D01*
X201696866Y-126810792D01*
X201696877Y-126810786D01*
X201727775Y-126777882D01*
X201744227Y-126760364D01*
X201754671Y-126749918D01*
X201765120Y-126739471D01*
X201769379Y-126733978D01*
X201773152Y-126729561D01*
X201805062Y-126695582D01*
X201814715Y-126678020D01*
X201825389Y-126661770D01*
X201837673Y-126645936D01*
X201856180Y-126603167D01*
X201858749Y-126597924D01*
X201860953Y-126593913D01*
X201881197Y-126557092D01*
X201886177Y-126537691D01*
X201892478Y-126519288D01*
X201900438Y-126500896D01*
X201907730Y-126454849D01*
X201908911Y-126449152D01*
X201920500Y-126404019D01*
X201920500Y-126383983D01*
X201922027Y-126364582D01*
X201925160Y-126344804D01*
X201920775Y-126298415D01*
X201920500Y-126292577D01*
X201920500Y-108437737D01*
X201922224Y-108422123D01*
X201921938Y-108422096D01*
X201922672Y-108414333D01*
X201920500Y-108345203D01*
X201920500Y-108315651D01*
X201920500Y-108315650D01*
X201919629Y-108308759D01*
X201919172Y-108302945D01*
X201917709Y-108256372D01*
X201912122Y-108237144D01*
X201908174Y-108218084D01*
X201905890Y-108200000D01*
X201905664Y-108198208D01*
X201888507Y-108154875D01*
X201886619Y-108149359D01*
X201873619Y-108104612D01*
X201863418Y-108087363D01*
X201854860Y-108069894D01*
X201847486Y-108051268D01*
X201847483Y-108051264D01*
X201847483Y-108051263D01*
X201820098Y-108013571D01*
X201816890Y-108008687D01*
X201793172Y-107968582D01*
X201793163Y-107968571D01*
X201779005Y-107954413D01*
X201766370Y-107939620D01*
X201754593Y-107923412D01*
X201718693Y-107893713D01*
X201714381Y-107889790D01*
X199740237Y-105915646D01*
X199706752Y-105854323D01*
X199708142Y-105795876D01*
X199735063Y-105695408D01*
X199755659Y-105460000D01*
X199735063Y-105224592D01*
X199708142Y-105124125D01*
X199709806Y-105054276D01*
X199740235Y-105004353D01*
X202183788Y-102560801D01*
X202196042Y-102550986D01*
X202195859Y-102550764D01*
X202201866Y-102545792D01*
X202201877Y-102545786D01*
X202232775Y-102512882D01*
X202249227Y-102495364D01*
X202259671Y-102484918D01*
X202270120Y-102474471D01*
X202274379Y-102468978D01*
X202278152Y-102464561D01*
X202310062Y-102430582D01*
X202319713Y-102413024D01*
X202330396Y-102396761D01*
X202342673Y-102380936D01*
X202361185Y-102338153D01*
X202363738Y-102332941D01*
X202386197Y-102292092D01*
X202391180Y-102272680D01*
X202397481Y-102254280D01*
X202405437Y-102235896D01*
X202412729Y-102189852D01*
X202413906Y-102184171D01*
X202425500Y-102139019D01*
X202425500Y-102118982D01*
X202427027Y-102099582D01*
X202430154Y-102079845D01*
X202430160Y-102079804D01*
X202425772Y-102033394D01*
X202425500Y-102027599D01*
X202425500Y-91082736D01*
X202427224Y-91067123D01*
X202426938Y-91067096D01*
X202427672Y-91059333D01*
X202425500Y-90990203D01*
X202425500Y-90960651D01*
X202425500Y-90960650D01*
X202424629Y-90953759D01*
X202424172Y-90947945D01*
X202422709Y-90901372D01*
X202417122Y-90882144D01*
X202413174Y-90863084D01*
X202410664Y-90843208D01*
X202393507Y-90799875D01*
X202391619Y-90794359D01*
X202378619Y-90749612D01*
X202368418Y-90732363D01*
X202359860Y-90714894D01*
X202352486Y-90696268D01*
X202352483Y-90696264D01*
X202352483Y-90696263D01*
X202325098Y-90658571D01*
X202321890Y-90653687D01*
X202298172Y-90613582D01*
X202298163Y-90613571D01*
X202284005Y-90599413D01*
X202271370Y-90584620D01*
X202259593Y-90568412D01*
X202223693Y-90538713D01*
X202219381Y-90534790D01*
X201400803Y-89716212D01*
X201390980Y-89703950D01*
X201390759Y-89704134D01*
X201385786Y-89698123D01*
X201367159Y-89680631D01*
X201335364Y-89650773D01*
X201324919Y-89640328D01*
X201314475Y-89629883D01*
X201308986Y-89625625D01*
X201304561Y-89621847D01*
X201270582Y-89589938D01*
X201270580Y-89589936D01*
X201270577Y-89589935D01*
X201253029Y-89580288D01*
X201236763Y-89569604D01*
X201220933Y-89557325D01*
X201178168Y-89538818D01*
X201172922Y-89536248D01*
X201132093Y-89513803D01*
X201132092Y-89513802D01*
X201112693Y-89508822D01*
X201094281Y-89502518D01*
X201075898Y-89494562D01*
X201075892Y-89494560D01*
X201029874Y-89487272D01*
X201024152Y-89486087D01*
X200979021Y-89474500D01*
X200979019Y-89474500D01*
X200958984Y-89474500D01*
X200939586Y-89472973D01*
X200932162Y-89471797D01*
X200919805Y-89469840D01*
X200919804Y-89469840D01*
X200873416Y-89474225D01*
X200867578Y-89474500D01*
X193962737Y-89474500D01*
X193947120Y-89472776D01*
X193947093Y-89473062D01*
X193939331Y-89472327D01*
X193870203Y-89474500D01*
X193840650Y-89474500D01*
X193839929Y-89474590D01*
X193833757Y-89475369D01*
X193827945Y-89475826D01*
X193781378Y-89477290D01*
X193781367Y-89477292D01*
X193762134Y-89482879D01*
X193743094Y-89486822D01*
X193723217Y-89489334D01*
X193723210Y-89489335D01*
X193723208Y-89489336D01*
X193723206Y-89489336D01*
X193723205Y-89489337D01*
X193679868Y-89506494D01*
X193674342Y-89508386D01*
X193629611Y-89521382D01*
X193629608Y-89521383D01*
X193612363Y-89531581D01*
X193594901Y-89540135D01*
X193576272Y-89547511D01*
X193576267Y-89547513D01*
X193538564Y-89574906D01*
X193533682Y-89578112D01*
X193493580Y-89601828D01*
X193479408Y-89616000D01*
X193464623Y-89628628D01*
X193448412Y-89640407D01*
X193418709Y-89676310D01*
X193414777Y-89680631D01*
X192835646Y-90259761D01*
X192774323Y-90293246D01*
X192715873Y-90291855D01*
X192615408Y-90264937D01*
X192380001Y-90244341D01*
X192379999Y-90244341D01*
X192144596Y-90264936D01*
X192144586Y-90264938D01*
X192044126Y-90291856D01*
X191974276Y-90290193D01*
X191924352Y-90259762D01*
X190980803Y-89316212D01*
X190970980Y-89303950D01*
X190970759Y-89304134D01*
X190965786Y-89298123D01*
X190960154Y-89292834D01*
X190915364Y-89250773D01*
X190900172Y-89235581D01*
X190894475Y-89229883D01*
X190888986Y-89225625D01*
X190884561Y-89221847D01*
X190850582Y-89189938D01*
X190850580Y-89189936D01*
X190850577Y-89189935D01*
X190833029Y-89180288D01*
X190816763Y-89169604D01*
X190804147Y-89159818D01*
X190800936Y-89157327D01*
X190800935Y-89157326D01*
X190800933Y-89157325D01*
X190758168Y-89138818D01*
X190752922Y-89136248D01*
X190712093Y-89113803D01*
X190712092Y-89113802D01*
X190692693Y-89108822D01*
X190674281Y-89102518D01*
X190655898Y-89094562D01*
X190655892Y-89094560D01*
X190609874Y-89087272D01*
X190604152Y-89086087D01*
X190559021Y-89074500D01*
X190559019Y-89074500D01*
X190538984Y-89074500D01*
X190519586Y-89072973D01*
X190512162Y-89071797D01*
X190499805Y-89069840D01*
X190499804Y-89069840D01*
X190453416Y-89074225D01*
X190447578Y-89074500D01*
X175262743Y-89074500D01*
X175247122Y-89072775D01*
X175247095Y-89073061D01*
X175239333Y-89072326D01*
X175170172Y-89074500D01*
X175140649Y-89074500D01*
X175133778Y-89075367D01*
X175127959Y-89075825D01*
X175081374Y-89077289D01*
X175081368Y-89077290D01*
X175062126Y-89082880D01*
X175043087Y-89086823D01*
X175023217Y-89089334D01*
X175023203Y-89089337D01*
X174979883Y-89106488D01*
X174974358Y-89108380D01*
X174929613Y-89121380D01*
X174929610Y-89121381D01*
X174912366Y-89131579D01*
X174894905Y-89140133D01*
X174876274Y-89147510D01*
X174876262Y-89147517D01*
X174838570Y-89174902D01*
X174833687Y-89178109D01*
X174793578Y-89201830D01*
X174787417Y-89206610D01*
X174785440Y-89204062D01*
X174736271Y-89230147D01*
X174666645Y-89224323D01*
X174619223Y-89191642D01*
X174608575Y-89179815D01*
X174608570Y-89179811D01*
X174455435Y-89068552D01*
X174455430Y-89068549D01*
X174282508Y-88991558D01*
X174282503Y-88991556D01*
X174136702Y-88960566D01*
X174097347Y-88952201D01*
X173908055Y-88952201D01*
X173875598Y-88959099D01*
X173722898Y-88991556D01*
X173722893Y-88991558D01*
X173549971Y-89068549D01*
X173549966Y-89068552D01*
X173396831Y-89179811D01*
X173396827Y-89179815D01*
X173391101Y-89186175D01*
X173331614Y-89222822D01*
X173298953Y-89227201D01*
X165854542Y-89227201D01*
X165838921Y-89225476D01*
X165838894Y-89225762D01*
X165831132Y-89225027D01*
X165761971Y-89227201D01*
X165732448Y-89227201D01*
X165725577Y-89228068D01*
X165719758Y-89228526D01*
X165673173Y-89229990D01*
X165673167Y-89229991D01*
X165653925Y-89235581D01*
X165634886Y-89239524D01*
X165615016Y-89242035D01*
X165615002Y-89242038D01*
X165571682Y-89259189D01*
X165566157Y-89261081D01*
X165521412Y-89274081D01*
X165521409Y-89274082D01*
X165504165Y-89284280D01*
X165486704Y-89292834D01*
X165468073Y-89300211D01*
X165468061Y-89300218D01*
X165430369Y-89327603D01*
X165425486Y-89330810D01*
X165385379Y-89354530D01*
X165371213Y-89368696D01*
X165356423Y-89381328D01*
X165340213Y-89393105D01*
X165340210Y-89393108D01*
X165310509Y-89429010D01*
X165306576Y-89433332D01*
X156352228Y-98387681D01*
X156290905Y-98421166D01*
X156264547Y-98424000D01*
X156205354Y-98424000D01*
X156172897Y-98430898D01*
X156020197Y-98463355D01*
X156020192Y-98463357D01*
X155847270Y-98540348D01*
X155847265Y-98540351D01*
X155694129Y-98651611D01*
X155567466Y-98792285D01*
X155472821Y-98956215D01*
X155472818Y-98956222D01*
X155416316Y-99130118D01*
X155414326Y-99136244D01*
X155396525Y-99305614D01*
X155394540Y-99324502D01*
X155396364Y-99341861D01*
X155383793Y-99410590D01*
X155336059Y-99461613D01*
X155268319Y-99478729D01*
X155262235Y-99478347D01*
X155045001Y-99459341D01*
X155044999Y-99459341D01*
X154809596Y-99479936D01*
X154809586Y-99479938D01*
X154581344Y-99541094D01*
X154581335Y-99541098D01*
X154367171Y-99640964D01*
X154367169Y-99640965D01*
X154173597Y-99776505D01*
X154006505Y-99943597D01*
X153870965Y-100137169D01*
X153870964Y-100137171D01*
X153771098Y-100351335D01*
X153771094Y-100351344D01*
X153709938Y-100579586D01*
X153709936Y-100579596D01*
X153689341Y-100814999D01*
X153689341Y-100815000D01*
X153709936Y-101050403D01*
X153709938Y-101050413D01*
X153771094Y-101278655D01*
X153771096Y-101278659D01*
X153771097Y-101278663D01*
X153856689Y-101462216D01*
X153870965Y-101492830D01*
X153870967Y-101492834D01*
X153979281Y-101647521D01*
X154006501Y-101686396D01*
X154006506Y-101686402D01*
X154173597Y-101853493D01*
X154173603Y-101853498D01*
X154359594Y-101983730D01*
X154403219Y-102038307D01*
X154410413Y-102107805D01*
X154378890Y-102170160D01*
X154359595Y-102186880D01*
X154173922Y-102316890D01*
X154173920Y-102316891D01*
X154006891Y-102483920D01*
X154006886Y-102483926D01*
X153871400Y-102677420D01*
X153871399Y-102677422D01*
X153771570Y-102891507D01*
X153771567Y-102891513D01*
X153714364Y-103104999D01*
X153714364Y-103105000D01*
X154431653Y-103105000D01*
X154498692Y-103124685D01*
X154544447Y-103177489D01*
X154554391Y-103246647D01*
X154550631Y-103263933D01*
X154545000Y-103283111D01*
X154545000Y-103426888D01*
X154550631Y-103446067D01*
X154550630Y-103515936D01*
X154512855Y-103574714D01*
X154449299Y-103603738D01*
X154431653Y-103605000D01*
X153714364Y-103605000D01*
X153771567Y-103818486D01*
X153771570Y-103818492D01*
X153871399Y-104032578D01*
X154006894Y-104226082D01*
X154173917Y-104393105D01*
X154367421Y-104528600D01*
X154581507Y-104628429D01*
X154581516Y-104628433D01*
X154795000Y-104685634D01*
X154795000Y-103967301D01*
X154814685Y-103900262D01*
X154867489Y-103854507D01*
X154936647Y-103844563D01*
X155009237Y-103855000D01*
X155009238Y-103855000D01*
X155080762Y-103855000D01*
X155080763Y-103855000D01*
X155153353Y-103844563D01*
X155222512Y-103854507D01*
X155275315Y-103900262D01*
X155295000Y-103967301D01*
X155295000Y-104685633D01*
X155298689Y-104688464D01*
X155339892Y-104744892D01*
X155344047Y-104814638D01*
X155310884Y-104874522D01*
X151616207Y-108569199D01*
X151603952Y-108579021D01*
X151604134Y-108579241D01*
X151598123Y-108584213D01*
X151550772Y-108634636D01*
X151529889Y-108655519D01*
X151529877Y-108655532D01*
X151525621Y-108661017D01*
X151521837Y-108665447D01*
X151489937Y-108699418D01*
X151489936Y-108699420D01*
X151480284Y-108716976D01*
X151469610Y-108733226D01*
X151457329Y-108749061D01*
X151457324Y-108749068D01*
X151438815Y-108791838D01*
X151436245Y-108797084D01*
X151413803Y-108837906D01*
X151408822Y-108857307D01*
X151402521Y-108875710D01*
X151394562Y-108894102D01*
X151394561Y-108894105D01*
X151387271Y-108940127D01*
X151386087Y-108945846D01*
X151374501Y-108990972D01*
X151374500Y-108990982D01*
X151374500Y-109001310D01*
X151354815Y-109068349D01*
X151342651Y-109084281D01*
X151267468Y-109167782D01*
X151267464Y-109167787D01*
X151172821Y-109331715D01*
X151172818Y-109331722D01*
X151114327Y-109511740D01*
X151114326Y-109511744D01*
X151094540Y-109700000D01*
X149525500Y-109700000D01*
X149525500Y-104024499D01*
X149545185Y-103957460D01*
X149597989Y-103911705D01*
X149649500Y-103900499D01*
X149747871Y-103900499D01*
X149747872Y-103900499D01*
X149807483Y-103894091D01*
X149942331Y-103843796D01*
X150057546Y-103757546D01*
X150143796Y-103642331D01*
X150194091Y-103507483D01*
X150200500Y-103447873D01*
X150200499Y-101752128D01*
X150194091Y-101692517D01*
X150191958Y-101686799D01*
X150143797Y-101557671D01*
X150143793Y-101557664D01*
X150057547Y-101442455D01*
X150057544Y-101442452D01*
X149942335Y-101356206D01*
X149942328Y-101356202D01*
X149807482Y-101305908D01*
X149807483Y-101305908D01*
X149747883Y-101299501D01*
X149747881Y-101299500D01*
X149747873Y-101299500D01*
X149747864Y-101299500D01*
X149744548Y-101299322D01*
X149744627Y-101297847D01*
X149683215Y-101279815D01*
X149637460Y-101227011D01*
X149629969Y-101183522D01*
X149083866Y-100637419D01*
X149050381Y-100576096D01*
X149055365Y-100506404D01*
X149097237Y-100450471D01*
X149115245Y-100439258D01*
X149138045Y-100427641D01*
X149227641Y-100338045D01*
X149239254Y-100315252D01*
X149287225Y-100264458D01*
X149355046Y-100247661D01*
X149421181Y-100270197D01*
X149437419Y-100283866D01*
X149979025Y-100825472D01*
X150030136Y-100752478D01*
X150126264Y-100546331D01*
X150126269Y-100546317D01*
X150185139Y-100326610D01*
X150185141Y-100326599D01*
X150204966Y-100100002D01*
X150204966Y-100099997D01*
X150185141Y-99873400D01*
X150185139Y-99873389D01*
X150126269Y-99653682D01*
X150126265Y-99653673D01*
X150030133Y-99447516D01*
X150030131Y-99447512D01*
X149979026Y-99374526D01*
X149979025Y-99374526D01*
X149437419Y-99916132D01*
X149376096Y-99949617D01*
X149306404Y-99944633D01*
X149250471Y-99902761D01*
X149239256Y-99884751D01*
X149227641Y-99861955D01*
X149227637Y-99861951D01*
X149227636Y-99861949D01*
X149138050Y-99772363D01*
X149138044Y-99772358D01*
X149128109Y-99767296D01*
X149115250Y-99760744D01*
X149064456Y-99712773D01*
X149047660Y-99644952D01*
X149070197Y-99578817D01*
X149083865Y-99562580D01*
X149625472Y-99020973D01*
X149552483Y-98969866D01*
X149552481Y-98969865D01*
X149346326Y-98873734D01*
X149346317Y-98873730D01*
X149126610Y-98814860D01*
X149126599Y-98814858D01*
X148900002Y-98795034D01*
X148899998Y-98795034D01*
X148673400Y-98814858D01*
X148673389Y-98814860D01*
X148453682Y-98873730D01*
X148453673Y-98873734D01*
X148247513Y-98969868D01*
X148174526Y-99020973D01*
X148716133Y-99562580D01*
X148749618Y-99623903D01*
X148744634Y-99693595D01*
X148702762Y-99749528D01*
X148684748Y-99760745D01*
X148661956Y-99772358D01*
X148661949Y-99772363D01*
X148572363Y-99861949D01*
X148572358Y-99861956D01*
X148560745Y-99884748D01*
X148512770Y-99935544D01*
X148444949Y-99952338D01*
X148378814Y-99929800D01*
X148362580Y-99916133D01*
X147820973Y-99374526D01*
X147769868Y-99447513D01*
X147673734Y-99653673D01*
X147673730Y-99653682D01*
X147614860Y-99873389D01*
X147614858Y-99873400D01*
X147595034Y-100099997D01*
X147595034Y-100100002D01*
X147614858Y-100326599D01*
X147614860Y-100326610D01*
X147673730Y-100546317D01*
X147673734Y-100546326D01*
X147769865Y-100752481D01*
X147769866Y-100752483D01*
X147820973Y-100825471D01*
X147820973Y-100825472D01*
X148362580Y-100283865D01*
X148423903Y-100250380D01*
X148493594Y-100255364D01*
X148549528Y-100297235D01*
X148560742Y-100315246D01*
X148566527Y-100326599D01*
X148572358Y-100338044D01*
X148572363Y-100338050D01*
X148661949Y-100427636D01*
X148661951Y-100427637D01*
X148661955Y-100427641D01*
X148684747Y-100439254D01*
X148735542Y-100487228D01*
X148752337Y-100555049D01*
X148729799Y-100621184D01*
X148716132Y-100637419D01*
X148169351Y-101184200D01*
X148159505Y-101233194D01*
X148110889Y-101283376D01*
X148055367Y-101298048D01*
X148055423Y-101299099D01*
X148055429Y-101299146D01*
X148055426Y-101299146D01*
X148055436Y-101299324D01*
X148052123Y-101299501D01*
X147992516Y-101305908D01*
X147857671Y-101356202D01*
X147857664Y-101356206D01*
X147742455Y-101442452D01*
X147742452Y-101442455D01*
X147656206Y-101557664D01*
X147656202Y-101557671D01*
X147605908Y-101692517D01*
X147599642Y-101750808D01*
X147599501Y-101752123D01*
X147599500Y-101752135D01*
X147599500Y-103447870D01*
X147599501Y-103447876D01*
X147605908Y-103507483D01*
X147656202Y-103642328D01*
X147656206Y-103642335D01*
X147742452Y-103757544D01*
X147742455Y-103757547D01*
X147857664Y-103843793D01*
X147857671Y-103843797D01*
X147902618Y-103860560D01*
X147992517Y-103894091D01*
X148052127Y-103900500D01*
X148150500Y-103900499D01*
X148217538Y-103920183D01*
X148263294Y-103972986D01*
X148274500Y-104024499D01*
X148274500Y-117339547D01*
X148254815Y-117406586D01*
X148238181Y-117427228D01*
X146897228Y-118768181D01*
X146835905Y-118801666D01*
X146809547Y-118804500D01*
X142623748Y-118804500D01*
X142556709Y-118784815D01*
X142531600Y-118763474D01*
X142525873Y-118757114D01*
X142525869Y-118757110D01*
X142372734Y-118645851D01*
X142372729Y-118645848D01*
X142199807Y-118568857D01*
X142199802Y-118568855D01*
X142036551Y-118534156D01*
X142014646Y-118529500D01*
X141825354Y-118529500D01*
X141803449Y-118534156D01*
X141640197Y-118568855D01*
X141640192Y-118568857D01*
X141467270Y-118645848D01*
X141467265Y-118645851D01*
X141314129Y-118757111D01*
X141187466Y-118897785D01*
X141092821Y-119061715D01*
X141092818Y-119061722D01*
X141034327Y-119241740D01*
X141034326Y-119241744D01*
X141014540Y-119430000D01*
X121900000Y-119430000D01*
X121900000Y-115615092D01*
X126446262Y-115615092D01*
X126477026Y-115763137D01*
X126477027Y-115763140D01*
X126477028Y-115763143D01*
X126546596Y-115897403D01*
X126649807Y-116007915D01*
X126779007Y-116086483D01*
X126924613Y-116127280D01*
X126924614Y-116127280D01*
X127037851Y-116127280D01*
X127049944Y-116125617D01*
X127150025Y-116111862D01*
X127288720Y-116051618D01*
X127406018Y-115956189D01*
X127493220Y-115832652D01*
X127543858Y-115690169D01*
X127554178Y-115539308D01*
X127523412Y-115391257D01*
X127453844Y-115256997D01*
X127350633Y-115146485D01*
X127350632Y-115146484D01*
X127221435Y-115067918D01*
X127221434Y-115067917D01*
X127221433Y-115067917D01*
X127075827Y-115027120D01*
X126962590Y-115027120D01*
X126962589Y-115027120D01*
X126850415Y-115042538D01*
X126711720Y-115102781D01*
X126594422Y-115198210D01*
X126594419Y-115198214D01*
X126507219Y-115321748D01*
X126456583Y-115464226D01*
X126456582Y-115464230D01*
X126446262Y-115615090D01*
X126446262Y-115615092D01*
X121900000Y-115615092D01*
X121900000Y-111215812D01*
X126446262Y-111215812D01*
X126477026Y-111363857D01*
X126477027Y-111363860D01*
X126477028Y-111363863D01*
X126546596Y-111498123D01*
X126649807Y-111608635D01*
X126779007Y-111687203D01*
X126924613Y-111728000D01*
X126924614Y-111728000D01*
X127037851Y-111728000D01*
X127049944Y-111726337D01*
X127150025Y-111712582D01*
X127288720Y-111652338D01*
X127406018Y-111556909D01*
X127493220Y-111433372D01*
X127543858Y-111290889D01*
X127554178Y-111140028D01*
X127523412Y-110991977D01*
X127453844Y-110857717D01*
X127350633Y-110747205D01*
X127350632Y-110747204D01*
X127221435Y-110668638D01*
X127221434Y-110668637D01*
X127221433Y-110668637D01*
X127075827Y-110627840D01*
X126962590Y-110627840D01*
X126962589Y-110627840D01*
X126850415Y-110643258D01*
X126711720Y-110703501D01*
X126594422Y-110798930D01*
X126594419Y-110798934D01*
X126507219Y-110922468D01*
X126456583Y-111064946D01*
X126456582Y-111064950D01*
X126446262Y-111215810D01*
X126446262Y-111215812D01*
X121900000Y-111215812D01*
X121900000Y-109230000D01*
X134014540Y-109230000D01*
X134034326Y-109418256D01*
X134034327Y-109418259D01*
X134092818Y-109598277D01*
X134092821Y-109598284D01*
X134187467Y-109762216D01*
X134277467Y-109862171D01*
X134314129Y-109902888D01*
X134467265Y-110014148D01*
X134467270Y-110014151D01*
X134640192Y-110091142D01*
X134640197Y-110091144D01*
X134825354Y-110130500D01*
X134825355Y-110130500D01*
X135014644Y-110130500D01*
X135014646Y-110130500D01*
X135199803Y-110091144D01*
X135372730Y-110014151D01*
X135525871Y-109902888D01*
X135652533Y-109762216D01*
X135747179Y-109598284D01*
X135805674Y-109418256D01*
X135810864Y-109368869D01*
X135837447Y-109304258D01*
X135846494Y-109294161D01*
X149010655Y-96130000D01*
X155669540Y-96130000D01*
X155689326Y-96318256D01*
X155689327Y-96318259D01*
X155747818Y-96498277D01*
X155747821Y-96498284D01*
X155842467Y-96662216D01*
X155966529Y-96800000D01*
X155969129Y-96802888D01*
X156122265Y-96914148D01*
X156122270Y-96914151D01*
X156295192Y-96991142D01*
X156295197Y-96991144D01*
X156480354Y-97030500D01*
X156480355Y-97030500D01*
X156669644Y-97030500D01*
X156669646Y-97030500D01*
X156854803Y-96991144D01*
X157027730Y-96914151D01*
X157180871Y-96802888D01*
X157307533Y-96662216D01*
X157402179Y-96498284D01*
X157460674Y-96318256D01*
X157480460Y-96130000D01*
X157460674Y-95941744D01*
X157402179Y-95761716D01*
X157307533Y-95597784D01*
X157233304Y-95515344D01*
X157232350Y-95514284D01*
X157202120Y-95451292D01*
X157200500Y-95431312D01*
X157200500Y-86723687D01*
X157220185Y-86656648D01*
X157232350Y-86640715D01*
X157250891Y-86620122D01*
X157307533Y-86557216D01*
X157402179Y-86393284D01*
X157460674Y-86213256D01*
X157480460Y-86025000D01*
X157460674Y-85836744D01*
X157402179Y-85656716D01*
X157307533Y-85492784D01*
X157180871Y-85352112D01*
X157180870Y-85352111D01*
X157027734Y-85240851D01*
X157027729Y-85240848D01*
X156854807Y-85163857D01*
X156854802Y-85163855D01*
X156709001Y-85132865D01*
X156669646Y-85124500D01*
X156480354Y-85124500D01*
X156447897Y-85131398D01*
X156295197Y-85163855D01*
X156295192Y-85163857D01*
X156122270Y-85240848D01*
X156122265Y-85240851D01*
X155969129Y-85352111D01*
X155842466Y-85492785D01*
X155747821Y-85656715D01*
X155747818Y-85656722D01*
X155716713Y-85752455D01*
X155689326Y-85836744D01*
X155669540Y-86025000D01*
X155689326Y-86213256D01*
X155689327Y-86213259D01*
X155747818Y-86393277D01*
X155747821Y-86393284D01*
X155842467Y-86557216D01*
X155885772Y-86605310D01*
X155917650Y-86640715D01*
X155947880Y-86703706D01*
X155949500Y-86723687D01*
X155949500Y-95431312D01*
X155929815Y-95498351D01*
X155917650Y-95514284D01*
X155842466Y-95597784D01*
X155747821Y-95761715D01*
X155747818Y-95761722D01*
X155690264Y-95938856D01*
X155689326Y-95941744D01*
X155669540Y-96130000D01*
X149010655Y-96130000D01*
X150778803Y-94361852D01*
X150840124Y-94328369D01*
X150909816Y-94333353D01*
X150916918Y-94336256D01*
X151040197Y-94391144D01*
X151225354Y-94430500D01*
X151225355Y-94430500D01*
X151414644Y-94430500D01*
X151414646Y-94430500D01*
X151599803Y-94391144D01*
X151772730Y-94314151D01*
X151925871Y-94202888D01*
X152052533Y-94062216D01*
X152147179Y-93898284D01*
X152205674Y-93718256D01*
X152225460Y-93530000D01*
X152205674Y-93341744D01*
X152147179Y-93161716D01*
X152052533Y-92997784D01*
X151925871Y-92857112D01*
X151924762Y-92856306D01*
X151772734Y-92745851D01*
X151772729Y-92745848D01*
X151599807Y-92668857D01*
X151599802Y-92668855D01*
X151454001Y-92637865D01*
X151414646Y-92629500D01*
X151225354Y-92629500D01*
X151192897Y-92636398D01*
X151040197Y-92668855D01*
X151040192Y-92668857D01*
X150867270Y-92745848D01*
X150867265Y-92745851D01*
X150784729Y-92805818D01*
X150718923Y-92829298D01*
X150711844Y-92829500D01*
X150643048Y-92829500D01*
X150639303Y-92829387D01*
X150577396Y-92825642D01*
X150577389Y-92825642D01*
X150516386Y-92836821D01*
X150512685Y-92837384D01*
X150451128Y-92844859D01*
X150451121Y-92844861D01*
X150441647Y-92848454D01*
X150420049Y-92854475D01*
X150410068Y-92856305D01*
X150410063Y-92856306D01*
X150353505Y-92881761D01*
X150350046Y-92883193D01*
X150292070Y-92905181D01*
X150292066Y-92905184D01*
X150283723Y-92910942D01*
X150264188Y-92921960D01*
X150254948Y-92926119D01*
X150254939Y-92926124D01*
X150206124Y-92964368D01*
X150203109Y-92966586D01*
X150152068Y-93001818D01*
X150110942Y-93048240D01*
X150108375Y-93050966D01*
X134857026Y-108302316D01*
X134795703Y-108335801D01*
X134795126Y-108335925D01*
X134640197Y-108368855D01*
X134640192Y-108368857D01*
X134467270Y-108445848D01*
X134467265Y-108445851D01*
X134314129Y-108557111D01*
X134187466Y-108697785D01*
X134092821Y-108861715D01*
X134092818Y-108861722D01*
X134034327Y-109041740D01*
X134034326Y-109041744D01*
X134014540Y-109230000D01*
X121900000Y-109230000D01*
X121900000Y-102950000D01*
X126250000Y-102950000D01*
X126886653Y-102950000D01*
X126953692Y-102969685D01*
X126999447Y-103022489D01*
X127009391Y-103091647D01*
X127005631Y-103108933D01*
X127000000Y-103128111D01*
X127000000Y-103271888D01*
X127005631Y-103291067D01*
X127005630Y-103360936D01*
X126967855Y-103419714D01*
X126904299Y-103448738D01*
X126886653Y-103450000D01*
X126250001Y-103450000D01*
X126250001Y-104168591D01*
X126252794Y-104221190D01*
X126297237Y-104450987D01*
X126379879Y-104669975D01*
X126498339Y-104871841D01*
X126498344Y-104871848D01*
X126649211Y-105050786D01*
X126649213Y-105050788D01*
X126828151Y-105201655D01*
X126828158Y-105201660D01*
X127030024Y-105320120D01*
X127249012Y-105402762D01*
X127478808Y-105447205D01*
X127531408Y-105449999D01*
X128249999Y-105449999D01*
X128250000Y-105449998D01*
X128250000Y-103824000D01*
X128269685Y-103756961D01*
X128322489Y-103711206D01*
X128374000Y-103700000D01*
X128626000Y-103700000D01*
X128693039Y-103719685D01*
X128738794Y-103772489D01*
X128750000Y-103824000D01*
X128750000Y-105449999D01*
X129468591Y-105449999D01*
X129521190Y-105447205D01*
X129750987Y-105402762D01*
X129969975Y-105320120D01*
X130171841Y-105201660D01*
X130171848Y-105201655D01*
X130350786Y-105050788D01*
X130350788Y-105050786D01*
X130501655Y-104871848D01*
X130501660Y-104871841D01*
X130620120Y-104669975D01*
X130702762Y-104450987D01*
X130747205Y-104221191D01*
X130747205Y-104221190D01*
X130750000Y-104168591D01*
X130750000Y-103450000D01*
X130113347Y-103450000D01*
X130046308Y-103430315D01*
X130000553Y-103377511D01*
X129990609Y-103308353D01*
X129994369Y-103291067D01*
X130000000Y-103271888D01*
X130000000Y-103128111D01*
X129994369Y-103108933D01*
X129994370Y-103039064D01*
X130032145Y-102980286D01*
X130095701Y-102951262D01*
X130113347Y-102950000D01*
X130749999Y-102950000D01*
X130749999Y-102231409D01*
X130747205Y-102178809D01*
X130702762Y-101949012D01*
X130620120Y-101730024D01*
X130501660Y-101528158D01*
X130501655Y-101528151D01*
X130350788Y-101349213D01*
X130350786Y-101349211D01*
X130171848Y-101198344D01*
X130171841Y-101198339D01*
X129969975Y-101079879D01*
X129750984Y-100997236D01*
X129745840Y-100996241D01*
X129683760Y-100964180D01*
X129648869Y-100903646D01*
X129652244Y-100833858D01*
X129692814Y-100776973D01*
X129757697Y-100751052D01*
X129769374Y-100750499D01*
X133297872Y-100750499D01*
X133357483Y-100744091D01*
X133492331Y-100693796D01*
X133607546Y-100607546D01*
X133693796Y-100492331D01*
X133744091Y-100357483D01*
X133750500Y-100297873D01*
X133750499Y-96702128D01*
X133744091Y-96642517D01*
X133732613Y-96611744D01*
X133693797Y-96507671D01*
X133693793Y-96507664D01*
X133607547Y-96392455D01*
X133607544Y-96392452D01*
X133492335Y-96306206D01*
X133492328Y-96306202D01*
X133357482Y-96255908D01*
X133357483Y-96255908D01*
X133297883Y-96249501D01*
X133297881Y-96249500D01*
X133297873Y-96249500D01*
X133297864Y-96249500D01*
X129702129Y-96249500D01*
X129702123Y-96249501D01*
X129642516Y-96255908D01*
X129507671Y-96306202D01*
X129507664Y-96306206D01*
X129392455Y-96392452D01*
X129392452Y-96392455D01*
X129306206Y-96507664D01*
X129306202Y-96507671D01*
X129255908Y-96642517D01*
X129249501Y-96702116D01*
X129249501Y-96702123D01*
X129249500Y-96702135D01*
X129249500Y-100297870D01*
X129249501Y-100297876D01*
X129255908Y-100357483D01*
X129306202Y-100492328D01*
X129306206Y-100492335D01*
X129392452Y-100607544D01*
X129392455Y-100607547D01*
X129507664Y-100693793D01*
X129507673Y-100693798D01*
X129556506Y-100712011D01*
X129612440Y-100753881D01*
X129636858Y-100819345D01*
X129622007Y-100887618D01*
X129572603Y-100937024D01*
X129506598Y-100952018D01*
X129468592Y-100950000D01*
X128750000Y-100950000D01*
X128750000Y-102576000D01*
X128730315Y-102643039D01*
X128677511Y-102688794D01*
X128626000Y-102700000D01*
X128374000Y-102700000D01*
X128306961Y-102680315D01*
X128261206Y-102627511D01*
X128250000Y-102576000D01*
X128249999Y-100950000D01*
X127531409Y-100950001D01*
X127478809Y-100952794D01*
X127249012Y-100997237D01*
X127030024Y-101079879D01*
X126828158Y-101198339D01*
X126828151Y-101198344D01*
X126649213Y-101349211D01*
X126649211Y-101349213D01*
X126498344Y-101528151D01*
X126498339Y-101528158D01*
X126379879Y-101730024D01*
X126297237Y-101949012D01*
X126252794Y-102178808D01*
X126252794Y-102178809D01*
X126250000Y-102231409D01*
X126250000Y-102950000D01*
X121900000Y-102950000D01*
X121900000Y-98250000D01*
X123500000Y-98250000D01*
X124876000Y-98250000D01*
X124943039Y-98269685D01*
X124988794Y-98322489D01*
X125000000Y-98374000D01*
X125000000Y-98626000D01*
X124980315Y-98693039D01*
X124927511Y-98738794D01*
X124876000Y-98750000D01*
X123500001Y-98750000D01*
X123500001Y-99564192D01*
X123510400Y-99696332D01*
X123565377Y-99914519D01*
X123658428Y-100119374D01*
X123658431Y-100119380D01*
X123786559Y-100304323D01*
X123786569Y-100304335D01*
X123945664Y-100463430D01*
X123945676Y-100463440D01*
X124130619Y-100591568D01*
X124130625Y-100591571D01*
X124335480Y-100684622D01*
X124553667Y-100739599D01*
X124685807Y-100750000D01*
X125249999Y-100749999D01*
X125250000Y-100749998D01*
X125250000Y-100113346D01*
X125269685Y-100046307D01*
X125322489Y-100000552D01*
X125391647Y-99990608D01*
X125408937Y-99994370D01*
X125428108Y-99999999D01*
X125428110Y-100000000D01*
X125428111Y-100000000D01*
X125571890Y-100000000D01*
X125571890Y-99999999D01*
X125591063Y-99994369D01*
X125660932Y-99994368D01*
X125719711Y-100032141D01*
X125748737Y-100095696D01*
X125750000Y-100113346D01*
X125750000Y-100749999D01*
X126314192Y-100749999D01*
X126446332Y-100739599D01*
X126664519Y-100684622D01*
X126869374Y-100591571D01*
X126869380Y-100591568D01*
X127054323Y-100463440D01*
X127054335Y-100463430D01*
X127213430Y-100304335D01*
X127213440Y-100304323D01*
X127341568Y-100119380D01*
X127341571Y-100119374D01*
X127434622Y-99914519D01*
X127489599Y-99696332D01*
X127500000Y-99564194D01*
X127500000Y-98750000D01*
X126124000Y-98750000D01*
X126056961Y-98730315D01*
X126011206Y-98677511D01*
X126000000Y-98626000D01*
X126000000Y-98374000D01*
X126019685Y-98306961D01*
X126072489Y-98261206D01*
X126124000Y-98250000D01*
X127499999Y-98250000D01*
X127499999Y-97435808D01*
X127489599Y-97303667D01*
X127434622Y-97085480D01*
X127341571Y-96880625D01*
X127341568Y-96880619D01*
X127213440Y-96695676D01*
X127213430Y-96695664D01*
X127054335Y-96536569D01*
X127054323Y-96536559D01*
X126869380Y-96408431D01*
X126869374Y-96408428D01*
X126664519Y-96315377D01*
X126446332Y-96260400D01*
X126314194Y-96250000D01*
X125750000Y-96250000D01*
X125750000Y-96886653D01*
X125730315Y-96953692D01*
X125677511Y-96999447D01*
X125608353Y-97009391D01*
X125591067Y-97005631D01*
X125571889Y-97000000D01*
X125428111Y-97000000D01*
X125408933Y-97005631D01*
X125339064Y-97005630D01*
X125280286Y-96967855D01*
X125251262Y-96904299D01*
X125250000Y-96886653D01*
X125250000Y-96250000D01*
X125249999Y-96250000D01*
X124685808Y-96250001D01*
X124553667Y-96260400D01*
X124335480Y-96315377D01*
X124130625Y-96408428D01*
X124130619Y-96408431D01*
X123945676Y-96536559D01*
X123945664Y-96536569D01*
X123786569Y-96695664D01*
X123786559Y-96695676D01*
X123658431Y-96880619D01*
X123658428Y-96880625D01*
X123565377Y-97085480D01*
X123510400Y-97303667D01*
X123500000Y-97435806D01*
X123500000Y-98250000D01*
X121900000Y-98250000D01*
X121900000Y-87857870D01*
X127149500Y-87857870D01*
X127149501Y-87857876D01*
X127155908Y-87917483D01*
X127206202Y-88052328D01*
X127206206Y-88052335D01*
X127292452Y-88167544D01*
X127292455Y-88167547D01*
X127407664Y-88253793D01*
X127407671Y-88253797D01*
X127407674Y-88253798D01*
X127539598Y-88303002D01*
X127595531Y-88344873D01*
X127619949Y-88410337D01*
X127605098Y-88478610D01*
X127583947Y-88506865D01*
X127461886Y-88628926D01*
X127326400Y-88822420D01*
X127326399Y-88822422D01*
X127226570Y-89036507D01*
X127226567Y-89036513D01*
X127169364Y-89249999D01*
X127169364Y-89250000D01*
X127886653Y-89250000D01*
X127953692Y-89269685D01*
X127999447Y-89322489D01*
X128009391Y-89391647D01*
X128005631Y-89408933D01*
X128000000Y-89428111D01*
X128000000Y-89571889D01*
X128001827Y-89578112D01*
X128005631Y-89591067D01*
X128005630Y-89660936D01*
X127967855Y-89719714D01*
X127904299Y-89748738D01*
X127886653Y-89750000D01*
X127169364Y-89750000D01*
X127226567Y-89963486D01*
X127226570Y-89963492D01*
X127326399Y-90177578D01*
X127461894Y-90371082D01*
X127628917Y-90538105D01*
X127822421Y-90673600D01*
X128036507Y-90773429D01*
X128036516Y-90773433D01*
X128250000Y-90830634D01*
X128250000Y-90112301D01*
X128269685Y-90045262D01*
X128322489Y-89999507D01*
X128391647Y-89989563D01*
X128464237Y-90000000D01*
X128464238Y-90000000D01*
X128535762Y-90000000D01*
X128535763Y-90000000D01*
X128608353Y-89989563D01*
X128677512Y-89999507D01*
X128730315Y-90045262D01*
X128750000Y-90112301D01*
X128749999Y-90830633D01*
X128963483Y-90773433D01*
X128963492Y-90773429D01*
X129177578Y-90673600D01*
X129371082Y-90538105D01*
X129538105Y-90371082D01*
X129673600Y-90177578D01*
X129773429Y-89963492D01*
X129773432Y-89963486D01*
X129830636Y-89750000D01*
X129113347Y-89750000D01*
X129046308Y-89730315D01*
X129000553Y-89677511D01*
X128990609Y-89608353D01*
X128994369Y-89591067D01*
X128998173Y-89578112D01*
X129000000Y-89571889D01*
X129000000Y-89428111D01*
X128994368Y-89408933D01*
X128994370Y-89339064D01*
X129032145Y-89280286D01*
X129095701Y-89251262D01*
X129113347Y-89250000D01*
X129830636Y-89250000D01*
X129830635Y-89249999D01*
X129773432Y-89036513D01*
X129773429Y-89036507D01*
X129673600Y-88822422D01*
X129673599Y-88822420D01*
X129538113Y-88628926D01*
X129538108Y-88628920D01*
X129416053Y-88506865D01*
X129382568Y-88445542D01*
X129387552Y-88375850D01*
X129429424Y-88319917D01*
X129460400Y-88303002D01*
X129592331Y-88253796D01*
X129707546Y-88167546D01*
X129757894Y-88100288D01*
X129813826Y-88058418D01*
X129883518Y-88053434D01*
X129944841Y-88086919D01*
X131017740Y-89159818D01*
X131030790Y-89168017D01*
X131053104Y-89182038D01*
X131058757Y-89186049D01*
X131091413Y-89212091D01*
X131129044Y-89230213D01*
X131135106Y-89233563D01*
X131169146Y-89254952D01*
X131170478Y-89255789D01*
X131209898Y-89269583D01*
X131216326Y-89272245D01*
X131253939Y-89290359D01*
X131294655Y-89299652D01*
X131301324Y-89301574D01*
X131340745Y-89315368D01*
X131382251Y-89320044D01*
X131389076Y-89321203D01*
X131429805Y-89330500D01*
X131475046Y-89330500D01*
X134997060Y-89330500D01*
X135064099Y-89350185D01*
X135084741Y-89366819D01*
X135733181Y-90015259D01*
X135766666Y-90076582D01*
X135769500Y-90102940D01*
X135769500Y-92020191D01*
X135769501Y-92020200D01*
X135778791Y-92060908D01*
X135779955Y-92067763D01*
X135784632Y-92109259D01*
X135798420Y-92148662D01*
X135800345Y-92155345D01*
X135809639Y-92196061D01*
X135827759Y-92233688D01*
X135830421Y-92240114D01*
X135844212Y-92279525D01*
X135866422Y-92314872D01*
X135869787Y-92320959D01*
X135887910Y-92358589D01*
X135913940Y-92391229D01*
X135917966Y-92396904D01*
X135940182Y-92432259D01*
X135940184Y-92432262D01*
X135972174Y-92464252D01*
X136232742Y-92724819D01*
X136232743Y-92724821D01*
X136250184Y-92742262D01*
X136377738Y-92869816D01*
X136413089Y-92892028D01*
X136418765Y-92896055D01*
X136451411Y-92922090D01*
X136451412Y-92922091D01*
X136461725Y-92927057D01*
X136489035Y-92940208D01*
X136495112Y-92943567D01*
X136512635Y-92954577D01*
X136530477Y-92965789D01*
X136569891Y-92979581D01*
X136576320Y-92982244D01*
X136613941Y-93000361D01*
X136654641Y-93009650D01*
X136661328Y-93011576D01*
X136700742Y-93025367D01*
X136700745Y-93025368D01*
X136742241Y-93030043D01*
X136749093Y-93031207D01*
X136789806Y-93040500D01*
X136835046Y-93040500D01*
X137203023Y-93040500D01*
X137270062Y-93060185D01*
X137315817Y-93112989D01*
X137323266Y-93140134D01*
X137324124Y-93139932D01*
X137325907Y-93147479D01*
X137376202Y-93282328D01*
X137376206Y-93282335D01*
X137462452Y-93397544D01*
X137462455Y-93397547D01*
X137577664Y-93483793D01*
X137577671Y-93483797D01*
X137712517Y-93534091D01*
X137712516Y-93534091D01*
X137719444Y-93534835D01*
X137772127Y-93540500D01*
X139467872Y-93540499D01*
X139527483Y-93534091D01*
X139662331Y-93483796D01*
X139777546Y-93397546D01*
X139863796Y-93282331D01*
X139914091Y-93147483D01*
X139920500Y-93087873D01*
X139920499Y-91392128D01*
X139914091Y-91332517D01*
X139902901Y-91302516D01*
X139863797Y-91197671D01*
X139863793Y-91197664D01*
X139777547Y-91082455D01*
X139777544Y-91082452D01*
X139662335Y-90996206D01*
X139662328Y-90996202D01*
X139527482Y-90945908D01*
X139527483Y-90945908D01*
X139467883Y-90939501D01*
X139467881Y-90939500D01*
X139467873Y-90939500D01*
X139467864Y-90939500D01*
X139464548Y-90939322D01*
X139464627Y-90937847D01*
X139403215Y-90919815D01*
X139357460Y-90867011D01*
X139349969Y-90823522D01*
X138803866Y-90277419D01*
X138770381Y-90216096D01*
X138775365Y-90146404D01*
X138817237Y-90090471D01*
X138835245Y-90079258D01*
X138858045Y-90067641D01*
X138947641Y-89978045D01*
X138959254Y-89955252D01*
X139007225Y-89904458D01*
X139075046Y-89887661D01*
X139141181Y-89910197D01*
X139157419Y-89923866D01*
X139699025Y-90465472D01*
X139750136Y-90392478D01*
X139846264Y-90186331D01*
X139846269Y-90186317D01*
X139905139Y-89966610D01*
X139905141Y-89966599D01*
X139924966Y-89740002D01*
X139924966Y-89739997D01*
X139922342Y-89710002D01*
X145445034Y-89710002D01*
X145464858Y-89936599D01*
X145464860Y-89936610D01*
X145523730Y-90156317D01*
X145523734Y-90156326D01*
X145619865Y-90362481D01*
X145619866Y-90362483D01*
X145670973Y-90435471D01*
X145670973Y-90435472D01*
X146212580Y-89893865D01*
X146273903Y-89860380D01*
X146343594Y-89865364D01*
X146399528Y-89907235D01*
X146410742Y-89925246D01*
X146416527Y-89936599D01*
X146422358Y-89948044D01*
X146422363Y-89948050D01*
X146511949Y-90037636D01*
X146511951Y-90037637D01*
X146511955Y-90037641D01*
X146534747Y-90049254D01*
X146585542Y-90097228D01*
X146602337Y-90165049D01*
X146579799Y-90231184D01*
X146566132Y-90247419D01*
X146019351Y-90794200D01*
X146009505Y-90843194D01*
X145960889Y-90893376D01*
X145905367Y-90908048D01*
X145905423Y-90909099D01*
X145905429Y-90909146D01*
X145905426Y-90909146D01*
X145905436Y-90909324D01*
X145902123Y-90909501D01*
X145842516Y-90915908D01*
X145707671Y-90966202D01*
X145707664Y-90966206D01*
X145592455Y-91052452D01*
X145592452Y-91052455D01*
X145506206Y-91167664D01*
X145506202Y-91167671D01*
X145455908Y-91302517D01*
X145450668Y-91351262D01*
X145449501Y-91362123D01*
X145449500Y-91362135D01*
X145449500Y-93057870D01*
X145449501Y-93057876D01*
X145455908Y-93117483D01*
X145506202Y-93252328D01*
X145506206Y-93252335D01*
X145592452Y-93367544D01*
X145592455Y-93367547D01*
X145707664Y-93453793D01*
X145707671Y-93453797D01*
X145842517Y-93504091D01*
X145842516Y-93504091D01*
X145849444Y-93504835D01*
X145902127Y-93510500D01*
X147597872Y-93510499D01*
X147657483Y-93504091D01*
X147792331Y-93453796D01*
X147907546Y-93367546D01*
X147993796Y-93252331D01*
X148044091Y-93117483D01*
X148050500Y-93057873D01*
X148050499Y-91362128D01*
X148044091Y-91302517D01*
X148031665Y-91269202D01*
X147993797Y-91167671D01*
X147993793Y-91167664D01*
X147907547Y-91052455D01*
X147907544Y-91052452D01*
X147792335Y-90966206D01*
X147792328Y-90966202D01*
X147657482Y-90915908D01*
X147657483Y-90915908D01*
X147597883Y-90909501D01*
X147597881Y-90909500D01*
X147597873Y-90909500D01*
X147597864Y-90909500D01*
X147594548Y-90909322D01*
X147594627Y-90907847D01*
X147533215Y-90889815D01*
X147487460Y-90837011D01*
X147479969Y-90793522D01*
X146933866Y-90247419D01*
X146900381Y-90186096D01*
X146905365Y-90116404D01*
X146947237Y-90060471D01*
X146965245Y-90049258D01*
X146988045Y-90037641D01*
X147077641Y-89948045D01*
X147089254Y-89925252D01*
X147137225Y-89874458D01*
X147205046Y-89857661D01*
X147271181Y-89880197D01*
X147287419Y-89893866D01*
X147829025Y-90435472D01*
X147880136Y-90362478D01*
X147976264Y-90156331D01*
X147976269Y-90156317D01*
X148035139Y-89936610D01*
X148035141Y-89936599D01*
X148054966Y-89710002D01*
X148054966Y-89709997D01*
X148035141Y-89483400D01*
X148035139Y-89483389D01*
X147976269Y-89263682D01*
X147976265Y-89263673D01*
X147880133Y-89057516D01*
X147880131Y-89057512D01*
X147829026Y-88984526D01*
X147829025Y-88984526D01*
X147287419Y-89526132D01*
X147226096Y-89559617D01*
X147156404Y-89554633D01*
X147100471Y-89512761D01*
X147089256Y-89494751D01*
X147077641Y-89471955D01*
X147077637Y-89471951D01*
X147077636Y-89471949D01*
X146988050Y-89382363D01*
X146988044Y-89382358D01*
X146974770Y-89375595D01*
X146965250Y-89370744D01*
X146914456Y-89322773D01*
X146897660Y-89254952D01*
X146920197Y-89188817D01*
X146933865Y-89172580D01*
X147475472Y-88630973D01*
X147402483Y-88579866D01*
X147402481Y-88579865D01*
X147196326Y-88483734D01*
X147196317Y-88483730D01*
X146976610Y-88424860D01*
X146976599Y-88424858D01*
X146750002Y-88405034D01*
X146749998Y-88405034D01*
X146523400Y-88424858D01*
X146523389Y-88424860D01*
X146303682Y-88483730D01*
X146303673Y-88483734D01*
X146097513Y-88579868D01*
X146024526Y-88630973D01*
X146566133Y-89172580D01*
X146599618Y-89233903D01*
X146594634Y-89303595D01*
X146552762Y-89359528D01*
X146534748Y-89370745D01*
X146511956Y-89382358D01*
X146511949Y-89382363D01*
X146422363Y-89471949D01*
X146422358Y-89471956D01*
X146410745Y-89494748D01*
X146362770Y-89545544D01*
X146294949Y-89562338D01*
X146228814Y-89539800D01*
X146212580Y-89526133D01*
X145670973Y-88984526D01*
X145619868Y-89057513D01*
X145523734Y-89263673D01*
X145523730Y-89263682D01*
X145464860Y-89483389D01*
X145464858Y-89483400D01*
X145445034Y-89709997D01*
X145445034Y-89710002D01*
X139922342Y-89710002D01*
X139905141Y-89513400D01*
X139905139Y-89513389D01*
X139846269Y-89293682D01*
X139846265Y-89293673D01*
X139750133Y-89087516D01*
X139750131Y-89087512D01*
X139699026Y-89014526D01*
X139699025Y-89014526D01*
X139157419Y-89556132D01*
X139096096Y-89589617D01*
X139026404Y-89584633D01*
X138970471Y-89542761D01*
X138959256Y-89524751D01*
X138947641Y-89501955D01*
X138947637Y-89501951D01*
X138947636Y-89501949D01*
X138858050Y-89412363D01*
X138858044Y-89412358D01*
X138848109Y-89407296D01*
X138835250Y-89400744D01*
X138784456Y-89352773D01*
X138767660Y-89284952D01*
X138790197Y-89218817D01*
X138803865Y-89202580D01*
X139345472Y-88660973D01*
X139272483Y-88609866D01*
X139272481Y-88609865D01*
X139066326Y-88513734D01*
X139066317Y-88513730D01*
X138846610Y-88454860D01*
X138846599Y-88454858D01*
X138620002Y-88435034D01*
X138619998Y-88435034D01*
X138393400Y-88454858D01*
X138393389Y-88454860D01*
X138173682Y-88513730D01*
X138173673Y-88513734D01*
X137967513Y-88609868D01*
X137894526Y-88660973D01*
X138436133Y-89202580D01*
X138469618Y-89263903D01*
X138464634Y-89333595D01*
X138422762Y-89389528D01*
X138404748Y-89400745D01*
X138381956Y-89412358D01*
X138381949Y-89412363D01*
X138292363Y-89501949D01*
X138292358Y-89501956D01*
X138280745Y-89524748D01*
X138232770Y-89575544D01*
X138164949Y-89592338D01*
X138098814Y-89569800D01*
X138082580Y-89556133D01*
X137540973Y-89014526D01*
X137489868Y-89087513D01*
X137427683Y-89220868D01*
X137381510Y-89273307D01*
X137314317Y-89292459D01*
X137247436Y-89272243D01*
X137210307Y-89234435D01*
X137208600Y-89231718D01*
X137199816Y-89217738D01*
X137089703Y-89107625D01*
X137089701Y-89107622D01*
X136561944Y-88579865D01*
X135931692Y-87949614D01*
X135931691Y-87949612D01*
X135914252Y-87932173D01*
X135882262Y-87900184D01*
X135882259Y-87900182D01*
X135882258Y-87900181D01*
X135846904Y-87877966D01*
X135841229Y-87873940D01*
X135808589Y-87847910D01*
X135770959Y-87829787D01*
X135764872Y-87826422D01*
X135729525Y-87804212D01*
X135690114Y-87790421D01*
X135683688Y-87787759D01*
X135646061Y-87769639D01*
X135605345Y-87760345D01*
X135598662Y-87758420D01*
X135559259Y-87744632D01*
X135517763Y-87739955D01*
X135510908Y-87738791D01*
X135470200Y-87729501D01*
X135470196Y-87729500D01*
X135470194Y-87729500D01*
X135470191Y-87729500D01*
X131902940Y-87729500D01*
X131835901Y-87709815D01*
X131815259Y-87693181D01*
X130452262Y-86330184D01*
X130452259Y-86330182D01*
X130416904Y-86307966D01*
X130411229Y-86303940D01*
X130378589Y-86277910D01*
X130340959Y-86259787D01*
X130334872Y-86256422D01*
X130299525Y-86234212D01*
X130260114Y-86220421D01*
X130253688Y-86217759D01*
X130216061Y-86199639D01*
X130175345Y-86190345D01*
X130168662Y-86188420D01*
X130129259Y-86174632D01*
X130087763Y-86169955D01*
X130080908Y-86168791D01*
X130040200Y-86159501D01*
X130040196Y-86159500D01*
X130040194Y-86159500D01*
X130040191Y-86159500D01*
X129972351Y-86159500D01*
X129905312Y-86139815D01*
X129859557Y-86087011D01*
X129849061Y-86048752D01*
X129844091Y-86002516D01*
X129793797Y-85867671D01*
X129793793Y-85867664D01*
X129707547Y-85752455D01*
X129707544Y-85752452D01*
X129592335Y-85666206D01*
X129592328Y-85666202D01*
X129457482Y-85615908D01*
X129457483Y-85615908D01*
X129397883Y-85609501D01*
X129397881Y-85609500D01*
X129397873Y-85609500D01*
X129397864Y-85609500D01*
X127602129Y-85609500D01*
X127602123Y-85609501D01*
X127542516Y-85615908D01*
X127407671Y-85666202D01*
X127407664Y-85666206D01*
X127292455Y-85752452D01*
X127292452Y-85752455D01*
X127206206Y-85867664D01*
X127206202Y-85867671D01*
X127155908Y-86002517D01*
X127149501Y-86062116D01*
X127149500Y-86062135D01*
X127149500Y-87857870D01*
X121900000Y-87857870D01*
X121900000Y-84524000D01*
X121919685Y-84456961D01*
X121972489Y-84411206D01*
X122024000Y-84400000D01*
X206476000Y-84400000D01*
X206543039Y-84419685D01*
G37*
%TD.AperFunction*%
%TD*%
M02*
