%TF.GenerationSoftware,KiCad,Pcbnew,7.0.7*%
%TF.CreationDate,2023-10-17T21:46:05+02:00*%
%TF.ProjectId,Motherboard_pico,4d6f7468-6572-4626-9f61-72645f706963,rev?*%
%TF.SameCoordinates,Original*%
%TF.FileFunction,Soldermask,Bot*%
%TF.FilePolarity,Negative*%
%FSLAX46Y46*%
G04 Gerber Fmt 4.6, Leading zero omitted, Abs format (unit mm)*
G04 Created by KiCad (PCBNEW 7.0.7) date 2023-10-17 21:46:05*
%MOMM*%
%LPD*%
G01*
G04 APERTURE LIST*
G04 Aperture macros list*
%AMRoundRect*
0 Rectangle with rounded corners*
0 $1 Rounding radius*
0 $2 $3 $4 $5 $6 $7 $8 $9 X,Y pos of 4 corners*
0 Add a 4 corners polygon primitive as box body*
4,1,4,$2,$3,$4,$5,$6,$7,$8,$9,$2,$3,0*
0 Add four circle primitives for the rounded corners*
1,1,$1+$1,$2,$3*
1,1,$1+$1,$4,$5*
1,1,$1+$1,$6,$7*
1,1,$1+$1,$8,$9*
0 Add four rect primitives between the rounded corners*
20,1,$1+$1,$2,$3,$4,$5,0*
20,1,$1+$1,$4,$5,$6,$7,0*
20,1,$1+$1,$6,$7,$8,$9,0*
20,1,$1+$1,$8,$9,$2,$3,0*%
G04 Aperture macros list end*
%ADD10R,1.600000X1.600000*%
%ADD11C,1.600000*%
%ADD12RoundRect,0.250000X0.600000X-0.600000X0.600000X0.600000X-0.600000X0.600000X-0.600000X-0.600000X0*%
%ADD13C,1.700000*%
%ADD14R,1.700000X1.700000*%
%ADD15O,1.700000X1.700000*%
%ADD16C,1.102360*%
%ADD17RoundRect,0.250000X-0.600000X0.600000X-0.600000X-0.600000X0.600000X-0.600000X0.600000X0.600000X0*%
%ADD18RoundRect,0.250000X0.600000X0.600000X-0.600000X0.600000X-0.600000X-0.600000X0.600000X-0.600000X0*%
%ADD19R,3.500000X3.500000*%
%ADD20RoundRect,0.750000X-0.750000X-1.000000X0.750000X-1.000000X0.750000X1.000000X-0.750000X1.000000X0*%
%ADD21RoundRect,0.875000X-0.875000X-0.875000X0.875000X-0.875000X0.875000X0.875000X-0.875000X0.875000X0*%
G04 APERTURE END LIST*
D10*
%TO.C,C11*%
X146750000Y-92210000D03*
D11*
X146750000Y-89710000D03*
%TD*%
D10*
%TO.C,C6*%
X138620000Y-92240000D03*
D11*
X138620000Y-89740000D03*
%TD*%
D12*
%TO.C,J7*%
X173320000Y-127500000D03*
D13*
X173320000Y-124960000D03*
X175860000Y-127500000D03*
X175860000Y-124960000D03*
X178400000Y-127500000D03*
X178400000Y-124960000D03*
X180940000Y-127500000D03*
X180940000Y-124960000D03*
%TD*%
D12*
%TO.C,J6*%
X192500000Y-127500000D03*
D13*
X192500000Y-124960000D03*
X195040000Y-127500000D03*
X195040000Y-124960000D03*
X197580000Y-127500000D03*
X197580000Y-124960000D03*
X200120000Y-127500000D03*
X200120000Y-124960000D03*
%TD*%
D14*
%TO.C,J2*%
X160125000Y-100815000D03*
D15*
X160125000Y-103355000D03*
X157585000Y-100815000D03*
X157585000Y-103355000D03*
X155045000Y-100815000D03*
X155045000Y-103355000D03*
%TD*%
D16*
%TO.C,J9*%
X127000220Y-111177920D03*
X127000220Y-115577200D03*
%TD*%
D14*
%TO.C,J3*%
X128500000Y-86960000D03*
D15*
X128500000Y-89500000D03*
%TD*%
D17*
%TO.C,J4*%
X180900000Y-91600000D03*
D13*
X180900000Y-94140000D03*
X178360000Y-91600000D03*
X178360000Y-94140000D03*
X175820000Y-91600000D03*
X175820000Y-94140000D03*
X173280000Y-91600000D03*
X173280000Y-94140000D03*
%TD*%
D17*
%TO.C,J5*%
X200000000Y-91600000D03*
D13*
X200000000Y-94140000D03*
X197460000Y-91600000D03*
X197460000Y-94140000D03*
X194920000Y-91600000D03*
X194920000Y-94140000D03*
X192380000Y-91600000D03*
X192380000Y-94140000D03*
%TD*%
D18*
%TO.C,J8*%
X198400000Y-113080000D03*
D13*
X195860000Y-113080000D03*
X198400000Y-110540000D03*
X195860000Y-110540000D03*
X198400000Y-108000000D03*
X195860000Y-108000000D03*
X198400000Y-105460000D03*
X195860000Y-105460000D03*
%TD*%
D19*
%TO.C,J1*%
X131500000Y-98500000D03*
D20*
X125500000Y-98500000D03*
D21*
X128500000Y-103200000D03*
%TD*%
D10*
%TO.C,C5*%
X148900000Y-102600000D03*
D11*
X148900000Y-100100000D03*
%TD*%
M02*
